G04*
G04 #@! TF.GenerationSoftware,Altium Limited,Altium Designer,19.1.5 (86)*
G04*
G04 Layer_Color=128*
%FSLAX25Y25*%
%MOIN*%
G70*
G01*
G75*
%ADD26C,0.00200*%
D26*
X66128Y227400D02*
X69672D01*
X67900Y225628D02*
Y229172D01*
X76128Y227400D02*
X79672D01*
X77900Y225628D02*
Y229172D01*
X86128Y227400D02*
X89672D01*
X87900Y225628D02*
Y229172D01*
X96128Y227400D02*
X99672D01*
X97900Y225628D02*
Y229172D01*
X106128Y227400D02*
X109672D01*
X107900Y225628D02*
Y229172D01*
X116128Y227400D02*
X119672D01*
X117900Y225628D02*
Y229172D01*
X126128Y227400D02*
X129672D01*
X127900Y225628D02*
Y229172D01*
X136128Y227400D02*
X139672D01*
X137900Y225628D02*
Y229172D01*
X146128Y227400D02*
X149672D01*
X147900Y225628D02*
Y229172D01*
X156128Y227400D02*
X159672D01*
X157900Y225628D02*
Y229172D01*
X166128Y227400D02*
X169672D01*
X167900Y225628D02*
Y229172D01*
X176128Y227400D02*
X179672D01*
X177900Y225628D02*
Y229172D01*
X66128Y237400D02*
X69672D01*
X67900Y235628D02*
Y239172D01*
X76128Y237400D02*
X79672D01*
X77900Y235628D02*
Y239172D01*
X86128Y237400D02*
X89672D01*
X87900Y235628D02*
Y239172D01*
X96128Y237400D02*
X99672D01*
X97900Y235628D02*
Y239172D01*
X106128Y237400D02*
X109672D01*
X107900Y235628D02*
Y239172D01*
X116128Y237400D02*
X119672D01*
X117900Y235628D02*
Y239172D01*
X126128Y237400D02*
X129672D01*
X127900Y235628D02*
Y239172D01*
X136128Y237400D02*
X139672D01*
X137900Y235628D02*
Y239172D01*
X146128Y237400D02*
X149672D01*
X147900Y235628D02*
Y239172D01*
X156128Y237400D02*
X159672D01*
X157900Y235628D02*
Y239172D01*
X166128Y237400D02*
X169672D01*
X167900Y235628D02*
Y239172D01*
X176128Y237400D02*
X179672D01*
X177900Y235628D02*
Y239172D01*
X226128Y177400D02*
X229672D01*
X227900Y175628D02*
Y179172D01*
X226128Y167400D02*
X229672D01*
X227900Y165628D02*
Y169172D01*
X226128Y157400D02*
X229672D01*
X227900Y155628D02*
Y159172D01*
X226128Y147400D02*
X229672D01*
X227900Y145628D02*
Y149172D01*
X226128Y137400D02*
X229672D01*
X227900Y135628D02*
Y139172D01*
X226128Y127400D02*
X229672D01*
X227900Y125628D02*
Y129172D01*
X226128Y117400D02*
X229672D01*
X227900Y115628D02*
Y119172D01*
X226128Y107400D02*
X229672D01*
X227900Y105628D02*
Y109172D01*
X226128Y97400D02*
X229672D01*
X227900Y95628D02*
Y99172D01*
X226128Y87400D02*
X229672D01*
X227900Y85628D02*
Y89172D01*
X226128Y77400D02*
X229672D01*
X227900Y75628D02*
Y79172D01*
X226128Y67400D02*
X229672D01*
X227900Y65628D02*
Y69172D01*
X236128Y177400D02*
X239672D01*
X237900Y175628D02*
Y179172D01*
X236128Y167400D02*
X239672D01*
X237900Y165628D02*
Y169172D01*
X236128Y157400D02*
X239672D01*
X237900Y155628D02*
Y159172D01*
X236128Y147400D02*
X239672D01*
X237900Y145628D02*
Y149172D01*
X236128Y137400D02*
X239672D01*
X237900Y135628D02*
Y139172D01*
X236128Y127400D02*
X239672D01*
X237900Y125628D02*
Y129172D01*
X236128Y117400D02*
X239672D01*
X237900Y115628D02*
Y119172D01*
X236128Y107400D02*
X239672D01*
X237900Y105628D02*
Y109172D01*
X236128Y97400D02*
X239672D01*
X237900Y95628D02*
Y99172D01*
X236128Y87400D02*
X239672D01*
X237900Y85628D02*
Y89172D01*
X236128Y77400D02*
X239672D01*
X237900Y75628D02*
Y79172D01*
X236128Y67400D02*
X239672D01*
X237900Y65628D02*
Y69172D01*
X176128Y17400D02*
X179672D01*
X177900Y15628D02*
Y19172D01*
X166128Y17400D02*
X169672D01*
X167900Y15628D02*
Y19172D01*
X156128Y17400D02*
X159672D01*
X157900Y15628D02*
Y19172D01*
X146128Y17400D02*
X149672D01*
X147900Y15628D02*
Y19172D01*
X136128Y17400D02*
X139672D01*
X137900Y15628D02*
Y19172D01*
X126128Y17400D02*
X129672D01*
X127900Y15628D02*
Y19172D01*
X116128Y17400D02*
X119672D01*
X117900Y15628D02*
Y19172D01*
X106128Y17400D02*
X109672D01*
X107900Y15628D02*
Y19172D01*
X96128Y17400D02*
X99672D01*
X97900Y15628D02*
Y19172D01*
X86128Y17400D02*
X89672D01*
X87900Y15628D02*
Y19172D01*
X76128Y17400D02*
X79672D01*
X77900Y15628D02*
Y19172D01*
X66128Y17400D02*
X69672D01*
X67900Y15628D02*
Y19172D01*
X176128Y7400D02*
X179672D01*
X177900Y5628D02*
Y9172D01*
X166128Y7400D02*
X169672D01*
X167900Y5628D02*
Y9172D01*
X156128Y7400D02*
X159672D01*
X157900Y5628D02*
Y9172D01*
X146128Y7400D02*
X149672D01*
X147900Y5628D02*
Y9172D01*
X136128Y7400D02*
X139672D01*
X137900Y5628D02*
Y9172D01*
X126128Y7400D02*
X129672D01*
X127900Y5628D02*
Y9172D01*
X116128Y7400D02*
X119672D01*
X117900Y5628D02*
Y9172D01*
X106128Y7400D02*
X109672D01*
X107900Y5628D02*
Y9172D01*
X96128Y7400D02*
X99672D01*
X97900Y5628D02*
Y9172D01*
X86128Y7400D02*
X89672D01*
X87900Y5628D02*
Y9172D01*
X76128Y7400D02*
X79672D01*
X77900Y5628D02*
Y9172D01*
X66128Y7400D02*
X69672D01*
X67900Y5628D02*
Y9172D01*
X16128Y67400D02*
X19672D01*
X17900Y65628D02*
Y69172D01*
X16128Y77400D02*
X19672D01*
X17900Y75628D02*
Y79172D01*
X16128Y87400D02*
X19672D01*
X17900Y85628D02*
Y89172D01*
X16128Y97400D02*
X19672D01*
X17900Y95628D02*
Y99172D01*
X16128Y107400D02*
X19672D01*
X17900Y105628D02*
Y109172D01*
X16128Y117400D02*
X19672D01*
X17900Y115628D02*
Y119172D01*
X16128Y127400D02*
X19672D01*
X17900Y125628D02*
Y129172D01*
X16128Y137400D02*
X19672D01*
X17900Y135628D02*
Y139172D01*
X16128Y147400D02*
X19672D01*
X17900Y145628D02*
Y149172D01*
X16128Y157400D02*
X19672D01*
X17900Y155628D02*
Y159172D01*
X16128Y167400D02*
X19672D01*
X17900Y165628D02*
Y169172D01*
X16128Y177400D02*
X19672D01*
X17900Y175628D02*
Y179172D01*
X6128Y67400D02*
X9672D01*
X7900Y65628D02*
Y69172D01*
X6128Y77400D02*
X9672D01*
X7900Y75628D02*
Y79172D01*
X6128Y87400D02*
X9672D01*
X7900Y85628D02*
Y89172D01*
X6128Y97400D02*
X9672D01*
X7900Y95628D02*
Y99172D01*
X6128Y107400D02*
X9672D01*
X7900Y105628D02*
Y109172D01*
X6128Y117400D02*
X9672D01*
X7900Y115628D02*
Y119172D01*
X6128Y127400D02*
X9672D01*
X7900Y125628D02*
Y129172D01*
X6128Y137400D02*
X9672D01*
X7900Y135628D02*
Y139172D01*
X6128Y147400D02*
X9672D01*
X7900Y145628D02*
Y149172D01*
X6128Y157400D02*
X9672D01*
X7900Y155628D02*
Y159172D01*
X6128Y167400D02*
X9672D01*
X7900Y165628D02*
Y169172D01*
X6128Y177400D02*
X9672D01*
X7900Y175628D02*
Y179172D01*
X66128Y187400D02*
X69672D01*
X67900Y185628D02*
Y189172D01*
X76128Y187400D02*
X79672D01*
X77900Y185628D02*
Y189172D01*
X86128Y187400D02*
X89672D01*
X87900Y185628D02*
Y189172D01*
X96128Y187400D02*
X99672D01*
X97900Y185628D02*
Y189172D01*
X106128Y187400D02*
X109672D01*
X107900Y185628D02*
Y189172D01*
X116128Y187400D02*
X119672D01*
X117900Y185628D02*
Y189172D01*
X126128Y187400D02*
X129672D01*
X127900Y185628D02*
Y189172D01*
X136128Y187400D02*
X139672D01*
X137900Y185628D02*
Y189172D01*
X146128Y187400D02*
X149672D01*
X147900Y185628D02*
Y189172D01*
X156128Y187400D02*
X159672D01*
X157900Y185628D02*
Y189172D01*
X166128Y187400D02*
X169672D01*
X167900Y185628D02*
Y189172D01*
X176128Y187400D02*
X179672D01*
X177900Y185628D02*
Y189172D01*
X66128Y197400D02*
X69672D01*
X67900Y195628D02*
Y199172D01*
X76128Y197400D02*
X79672D01*
X77900Y195628D02*
Y199172D01*
X86128Y197400D02*
X89672D01*
X87900Y195628D02*
Y199172D01*
X96128Y197400D02*
X99672D01*
X97900Y195628D02*
Y199172D01*
X106128Y197400D02*
X109672D01*
X107900Y195628D02*
Y199172D01*
X116128Y197400D02*
X119672D01*
X117900Y195628D02*
Y199172D01*
X126128Y197400D02*
X129672D01*
X127900Y195628D02*
Y199172D01*
X136128Y197400D02*
X139672D01*
X137900Y195628D02*
Y199172D01*
X146128Y197400D02*
X149672D01*
X147900Y195628D02*
Y199172D01*
X156128Y197400D02*
X159672D01*
X157900Y195628D02*
Y199172D01*
X166128Y197400D02*
X169672D01*
X167900Y195628D02*
Y199172D01*
X176128Y197400D02*
X179672D01*
X177900Y195628D02*
Y199172D01*
X186128Y177400D02*
X189672D01*
X187900Y175628D02*
Y179172D01*
X186128Y167400D02*
X189672D01*
X187900Y165628D02*
Y169172D01*
X186128Y157400D02*
X189672D01*
X187900Y155628D02*
Y159172D01*
X186128Y147400D02*
X189672D01*
X187900Y145628D02*
Y149172D01*
X186128Y137400D02*
X189672D01*
X187900Y135628D02*
Y139172D01*
X186128Y127400D02*
X189672D01*
X187900Y125628D02*
Y129172D01*
X186128Y117400D02*
X189672D01*
X187900Y115628D02*
Y119172D01*
X186128Y107400D02*
X189672D01*
X187900Y105628D02*
Y109172D01*
X186128Y97400D02*
X189672D01*
X187900Y95628D02*
Y99172D01*
X186128Y87400D02*
X189672D01*
X187900Y85628D02*
Y89172D01*
X186128Y77400D02*
X189672D01*
X187900Y75628D02*
Y79172D01*
X186128Y67400D02*
X189672D01*
X187900Y65628D02*
Y69172D01*
X196128Y177400D02*
X199672D01*
X197900Y175628D02*
Y179172D01*
X196128Y167400D02*
X199672D01*
X197900Y165628D02*
Y169172D01*
X196128Y157400D02*
X199672D01*
X197900Y155628D02*
Y159172D01*
X196128Y147400D02*
X199672D01*
X197900Y145628D02*
Y149172D01*
X196128Y137400D02*
X199672D01*
X197900Y135628D02*
Y139172D01*
X196128Y127400D02*
X199672D01*
X197900Y125628D02*
Y129172D01*
X196128Y117400D02*
X199672D01*
X197900Y115628D02*
Y119172D01*
X196128Y107400D02*
X199672D01*
X197900Y105628D02*
Y109172D01*
X196128Y97400D02*
X199672D01*
X197900Y95628D02*
Y99172D01*
X196128Y87400D02*
X199672D01*
X197900Y85628D02*
Y89172D01*
X196128Y77400D02*
X199672D01*
X197900Y75628D02*
Y79172D01*
X196128Y67400D02*
X199672D01*
X197900Y65628D02*
Y69172D01*
X56128Y67400D02*
X59672D01*
X57900Y65628D02*
Y69172D01*
X56128Y77400D02*
X59672D01*
X57900Y75628D02*
Y79172D01*
X56128Y87400D02*
X59672D01*
X57900Y85628D02*
Y89172D01*
X56128Y97400D02*
X59672D01*
X57900Y95628D02*
Y99172D01*
X56128Y107400D02*
X59672D01*
X57900Y105628D02*
Y109172D01*
X56128Y117400D02*
X59672D01*
X57900Y115628D02*
Y119172D01*
X56128Y127400D02*
X59672D01*
X57900Y125628D02*
Y129172D01*
X56128Y137400D02*
X59672D01*
X57900Y135628D02*
Y139172D01*
X56128Y147400D02*
X59672D01*
X57900Y145628D02*
Y149172D01*
X56128Y157400D02*
X59672D01*
X57900Y155628D02*
Y159172D01*
X56128Y167400D02*
X59672D01*
X57900Y165628D02*
Y169172D01*
X56128Y177400D02*
X59672D01*
X57900Y175628D02*
Y179172D01*
X46128Y67400D02*
X49672D01*
X47900Y65628D02*
Y69172D01*
X46128Y77400D02*
X49672D01*
X47900Y75628D02*
Y79172D01*
X46128Y87400D02*
X49672D01*
X47900Y85628D02*
Y89172D01*
X46128Y97400D02*
X49672D01*
X47900Y95628D02*
Y99172D01*
X46128Y107400D02*
X49672D01*
X47900Y105628D02*
Y109172D01*
X46128Y117400D02*
X49672D01*
X47900Y115628D02*
Y119172D01*
X46128Y127400D02*
X49672D01*
X47900Y125628D02*
Y129172D01*
X46128Y137400D02*
X49672D01*
X47900Y135628D02*
Y139172D01*
X46128Y147400D02*
X49672D01*
X47900Y145628D02*
Y149172D01*
X46128Y157400D02*
X49672D01*
X47900Y155628D02*
Y159172D01*
X46128Y167400D02*
X49672D01*
X47900Y165628D02*
Y169172D01*
X46128Y177400D02*
X49672D01*
X47900Y175628D02*
Y179172D01*
X176128Y57400D02*
X179672D01*
X177900Y55628D02*
Y59172D01*
X166128Y57400D02*
X169672D01*
X167900Y55628D02*
Y59172D01*
X156128Y57400D02*
X159672D01*
X157900Y55628D02*
Y59172D01*
X146128Y57400D02*
X149672D01*
X147900Y55628D02*
Y59172D01*
X136128Y57400D02*
X139672D01*
X137900Y55628D02*
Y59172D01*
X126128Y57400D02*
X129672D01*
X127900Y55628D02*
Y59172D01*
X116128Y57400D02*
X119672D01*
X117900Y55628D02*
Y59172D01*
X106128Y57400D02*
X109672D01*
X107900Y55628D02*
Y59172D01*
X96128Y57400D02*
X99672D01*
X97900Y55628D02*
Y59172D01*
X86128Y57400D02*
X89672D01*
X87900Y55628D02*
Y59172D01*
X76128Y57400D02*
X79672D01*
X77900Y55628D02*
Y59172D01*
X66128Y57400D02*
X69672D01*
X67900Y55628D02*
Y59172D01*
X176128Y47400D02*
X179672D01*
X177900Y45628D02*
Y49172D01*
X166128Y47400D02*
X169672D01*
X167900Y45628D02*
Y49172D01*
X156128Y47400D02*
X159672D01*
X157900Y45628D02*
Y49172D01*
X146128Y47400D02*
X149672D01*
X147900Y45628D02*
Y49172D01*
X136128Y47400D02*
X139672D01*
X137900Y45628D02*
Y49172D01*
X126128Y47400D02*
X129672D01*
X127900Y45628D02*
Y49172D01*
X116128Y47400D02*
X119672D01*
X117900Y45628D02*
Y49172D01*
X106128Y47400D02*
X109672D01*
X107900Y45628D02*
Y49172D01*
X96128Y47400D02*
X99672D01*
X97900Y45628D02*
Y49172D01*
X86128Y47400D02*
X89672D01*
X87900Y45628D02*
Y49172D01*
X76128Y47400D02*
X79672D01*
X77900Y45628D02*
Y49172D01*
X66128Y47400D02*
X69672D01*
X67900Y45628D02*
Y49172D01*
X12744Y219400D02*
X33056D01*
X22900Y209244D02*
Y229556D01*
X12744Y19400D02*
X33056D01*
X22900Y9244D02*
Y29556D01*
X212744Y19400D02*
X233056D01*
X222900Y9244D02*
Y29556D01*
X212744Y219400D02*
X233056D01*
X222900Y209244D02*
Y229556D01*
M02*
