M48
;Layer_Color=9474304
;FILE_FORMAT=2:5
INCH,LZ
;TYPE=PLATED
T1F00S00C0.03543
T2F00S00C0.20312
%
T01
X00679Y00074
Y00174
X00779
X00879
X00979
X01079
X01179
X01279
X01379
X01479
X01579
X01679
X01779
Y00074
X01679
X01579
X01479
X01379
X01279
X01179
X01079
X00979
X00879
X00779
Y00474
X00879
X00979
X01079
X01179
X01279
X01379
X01479
X01579
X01679
X01779
X00679
X02279Y00674
Y00774
Y00874
Y00974
Y01074
Y01174
Y01274
Y01374
Y01474
Y01574
Y01674
Y01774
X02379
Y01674
Y01574
Y01474
Y01374
Y01274
Y01174
Y01074
Y00974
Y00874
Y00774
Y00674
X01979
X01879
Y00774
Y00874
Y00974
Y01074
Y01174
Y01274
Y01374
Y01474
Y01574
Y01674
Y01774
X01979
Y01674
Y01574
Y01474
Y01374
Y01274
Y01174
Y01074
Y00974
Y00874
Y00774
X01779Y00574
X01679
X01579
X01479
X01379
X01279
X01179
X01079
X00979
X00879
X00779
X00679
X00579Y00674
Y00774
Y00874
Y00974
Y01074
Y01174
Y01274
Y01374
Y01474
Y01574
Y01674
Y01774
X00679Y01874
X00779
X00879
X00979
X01079
X01179
X01279
X01379
X01479
X01579
X01679
X01779
Y01974
X01679
X01579
X01479
X01379
X01279
X01179
X01079
X00979
X00879
X00779
X00679
X00479Y01774
Y01674
Y01574
Y01474
Y01374
Y01274
Y01174
Y01074
Y00974
Y00874
Y00774
Y00674
X00179
Y00774
Y00874
Y00974
Y01074
Y01174
Y01274
Y01374
Y01474
Y01574
Y01674
Y01774
X00079
Y01674
Y01574
Y01474
Y01374
Y01274
Y01174
Y01074
Y00974
Y00874
Y00774
Y00674
X00679Y02274
X00779
X00879
X00979
X01079
X01179
X01279
X01379
X01479
X01579
X01679
X01779
Y02374
X01679
X01579
X01479
X01379
X01279
X01179
X01079
X00979
X00879
X00779
X00679
T02
X00229Y00194
X02229
X00229Y02194
X02229
M30
