G04*
G04 #@! TF.GenerationSoftware,Altium Limited,Altium Designer,19.1.5 (86)*
G04*
G04 Layer_Color=16711935*
%FSLAX25Y25*%
%MOIN*%
G70*
G01*
G75*
%ADD46C,0.00394*%
D46*
X210954Y184669D02*
Y193331D01*
X205246Y184669D02*
Y193331D01*
X210954D01*
X205246Y184669D02*
X210954D01*
X212954Y272319D02*
Y280981D01*
X207246Y272319D02*
Y280981D01*
X212954D01*
X207246Y272319D02*
X212954D01*
X123854Y272669D02*
Y281331D01*
X118146Y272669D02*
Y281331D01*
X123854D01*
X118146Y272669D02*
X123854D01*
X75354Y273169D02*
Y281831D01*
X69646Y273169D02*
Y281831D01*
X75354D01*
X69646Y273169D02*
X75354D01*
X119169Y350646D02*
X127831D01*
X119169Y356354D02*
X127831D01*
Y350646D02*
Y356354D01*
X119169Y350646D02*
Y356354D01*
X73354Y389122D02*
Y397783D01*
X67646Y389122D02*
Y397783D01*
X73354D01*
X67646Y389122D02*
X73354D01*
X211854Y83669D02*
Y92331D01*
X206146Y83669D02*
Y92331D01*
X211854D01*
X206146Y83669D02*
X211854D01*
X207354Y350169D02*
Y358831D01*
X201646Y350169D02*
Y358831D01*
X207354D01*
X201646Y350169D02*
X207354D01*
X245354Y83669D02*
Y92331D01*
X239646Y83669D02*
Y92331D01*
X245354D01*
X239646Y83669D02*
X245354D01*
X243954Y184122D02*
Y192783D01*
X238246Y184122D02*
Y192783D01*
X243954D01*
X238246Y184122D02*
X243954D01*
X243454Y272819D02*
Y281481D01*
X237746Y272819D02*
Y281481D01*
X243454D01*
X237746Y272819D02*
X243454D01*
X242354Y350122D02*
Y358783D01*
X236646Y350122D02*
Y358783D01*
X242354D01*
X236646Y350122D02*
X242354D01*
X36354Y273669D02*
Y282331D01*
X30646Y273669D02*
Y282331D01*
X36354D01*
X30646Y273669D02*
X36354D01*
X123354Y83669D02*
Y92331D01*
X117646Y83669D02*
Y92331D01*
X123354D01*
X117646Y83669D02*
X123354D01*
X125454Y186669D02*
Y195331D01*
X119746Y186669D02*
Y195331D01*
X125454D01*
X119746Y186669D02*
X125454D01*
X160354Y82169D02*
Y90831D01*
X154646Y82169D02*
Y90831D01*
X160354D01*
X154646Y82169D02*
X160354D01*
X159954Y185169D02*
Y193831D01*
X154246Y185169D02*
Y193831D01*
X159954D01*
X154246Y185169D02*
X159954D01*
X161854Y273169D02*
Y281831D01*
X156146Y273169D02*
Y281831D01*
X161854D01*
X156146Y273169D02*
X161854D01*
M02*
