G04*
G04 #@! TF.GenerationSoftware,Altium Limited,Altium Designer,19.1.5 (86)*
G04*
G04 Layer_Color=32896*
%FSLAX25Y25*%
%MOIN*%
G70*
G01*
G75*
%ADD14C,0.00500*%
%ADD17C,0.00600*%
%ADD45C,0.00000*%
D14*
X2063Y366783D02*
X58756D01*
X2063Y402217D02*
X58756D01*
Y366783D02*
Y402217D01*
X2063Y366783D02*
Y402217D01*
Y366783D02*
X58756D01*
X2063Y402217D02*
X58756D01*
Y366783D02*
Y402217D01*
X2063Y366783D02*
Y402217D01*
D17*
X223300Y82500D02*
X229500D01*
Y83600D01*
Y85100D01*
Y86200D01*
Y87700D01*
Y88700D01*
Y90200D01*
Y91300D01*
X227600Y93900D02*
X229500D01*
X225200D02*
X227600D01*
X223300D02*
X225200D01*
X223300Y92800D02*
Y93900D01*
Y91300D02*
Y92800D01*
Y90200D02*
Y91300D01*
Y88700D02*
Y90200D01*
Y87700D02*
Y88700D01*
Y86200D02*
Y87700D01*
Y85100D02*
Y86200D01*
X220500Y92800D02*
X223300D01*
X220500Y91300D02*
Y92800D01*
Y91300D02*
X223300D01*
X220500Y90200D02*
X223300D01*
X220500Y88700D02*
Y90200D01*
Y88700D02*
X223300D01*
X220500Y87700D02*
X223300D01*
X220500Y86200D02*
Y87700D01*
Y86200D02*
X223300D01*
Y82500D02*
Y83600D01*
Y85100D01*
X220500D02*
X223300D01*
X220500Y83600D02*
Y85100D01*
Y83600D02*
X223300D01*
X229500D02*
X232300D01*
Y85100D01*
X229500D02*
X232300D01*
X229500Y86200D02*
X232300D01*
Y87700D01*
X229500D02*
X232300D01*
X229500Y88700D02*
X232300D01*
Y90200D01*
X229500D02*
X232300D01*
X229500Y92800D02*
Y93900D01*
Y91300D02*
Y92800D01*
Y91300D02*
X232300D01*
Y92800D01*
X229500D02*
X232300D01*
X223300Y82500D02*
X229500D01*
Y83600D01*
Y85100D01*
Y86200D01*
Y87700D01*
Y88700D01*
Y90200D01*
Y91300D01*
X227600Y93900D02*
X229500D01*
X225200D02*
X227600D01*
X223300D02*
X225200D01*
X223300Y92800D02*
Y93900D01*
Y91300D02*
Y92800D01*
Y90200D02*
Y91300D01*
Y88700D02*
Y90200D01*
Y87700D02*
Y88700D01*
Y86200D02*
Y87700D01*
Y85100D02*
Y86200D01*
X220500Y92800D02*
X223300D01*
X220500Y91300D02*
Y92800D01*
Y91300D02*
X223300D01*
X220500Y90200D02*
X223300D01*
X220500Y88700D02*
Y90200D01*
Y88700D02*
X223300D01*
X220500Y87700D02*
X223300D01*
X220500Y86200D02*
Y87700D01*
Y86200D02*
X223300D01*
Y82500D02*
Y83600D01*
Y85100D01*
X220500D02*
X223300D01*
X220500Y83600D02*
Y85100D01*
Y83600D02*
X223300D01*
X229500D02*
X232300D01*
Y85100D01*
X229500D02*
X232300D01*
X229500Y86200D02*
X232300D01*
Y87700D01*
X229500D02*
X232300D01*
X229500Y88700D02*
X232300D01*
Y90200D01*
X229500D02*
X232300D01*
X229500Y92800D02*
Y93900D01*
Y91300D02*
Y92800D01*
Y91300D02*
X232300D01*
Y92800D01*
X229500D02*
X232300D01*
X139300Y81600D02*
X145500D01*
Y82700D01*
Y84200D01*
Y85300D01*
Y86800D01*
Y87800D01*
Y89300D01*
Y90400D01*
X143600Y93000D02*
X145500D01*
X141200D02*
X143600D01*
X139300D02*
X141200D01*
X139300Y91900D02*
Y93000D01*
Y90400D02*
Y91900D01*
Y89300D02*
Y90400D01*
Y87800D02*
Y89300D01*
Y86800D02*
Y87800D01*
Y85300D02*
Y86800D01*
Y84200D02*
Y85300D01*
X136500Y91900D02*
X139300D01*
X136500Y90400D02*
Y91900D01*
Y90400D02*
X139300D01*
X136500Y89300D02*
X139300D01*
X136500Y87800D02*
Y89300D01*
Y87800D02*
X139300D01*
X136500Y86800D02*
X139300D01*
X136500Y85300D02*
Y86800D01*
Y85300D02*
X139300D01*
Y81600D02*
Y82700D01*
Y84200D01*
X136500D02*
X139300D01*
X136500Y82700D02*
Y84200D01*
Y82700D02*
X139300D01*
X145500D02*
X148300D01*
Y84200D01*
X145500D02*
X148300D01*
X145500Y85300D02*
X148300D01*
Y86800D01*
X145500D02*
X148300D01*
X145500Y87800D02*
X148300D01*
Y89300D01*
X145500D02*
X148300D01*
X145500Y91900D02*
Y93000D01*
Y90400D02*
Y91900D01*
Y90400D02*
X148300D01*
Y91900D01*
X145500D02*
X148300D01*
X139300Y81600D02*
X145500D01*
Y82700D01*
Y84200D01*
Y85300D01*
Y86800D01*
Y87800D01*
Y89300D01*
Y90400D01*
X143600Y93000D02*
X145500D01*
X141200D02*
X143600D01*
X139300D02*
X141200D01*
X139300Y91900D02*
Y93000D01*
Y90400D02*
Y91900D01*
Y89300D02*
Y90400D01*
Y87800D02*
Y89300D01*
Y86800D02*
Y87800D01*
Y85300D02*
Y86800D01*
Y84200D02*
Y85300D01*
X136500Y91900D02*
X139300D01*
X136500Y90400D02*
Y91900D01*
Y90400D02*
X139300D01*
X136500Y89300D02*
X139300D01*
X136500Y87800D02*
Y89300D01*
Y87800D02*
X139300D01*
X136500Y86800D02*
X139300D01*
X136500Y85300D02*
Y86800D01*
Y85300D02*
X139300D01*
Y81600D02*
Y82700D01*
Y84200D01*
X136500D02*
X139300D01*
X136500Y82700D02*
Y84200D01*
Y82700D02*
X139300D01*
X145500D02*
X148300D01*
Y84200D01*
X145500D02*
X148300D01*
X145500Y85300D02*
X148300D01*
Y86800D01*
X145500D02*
X148300D01*
X145500Y87800D02*
X148300D01*
Y89300D01*
X145500D02*
X148300D01*
X145500Y91900D02*
Y93000D01*
Y90400D02*
Y91900D01*
Y90400D02*
X148300D01*
Y91900D01*
X145500D02*
X148300D01*
X138600Y184500D02*
X144800D01*
Y185600D01*
Y187100D01*
Y188200D01*
Y189700D01*
Y190700D01*
Y192200D01*
Y193300D01*
X142900Y195900D02*
X144800D01*
X140500D02*
X142900D01*
X138600D02*
X140500D01*
X138600Y194800D02*
Y195900D01*
Y193300D02*
Y194800D01*
Y192200D02*
Y193300D01*
Y190700D02*
Y192200D01*
Y189700D02*
Y190700D01*
Y188200D02*
Y189700D01*
Y187100D02*
Y188200D01*
X135800Y194800D02*
X138600D01*
X135800Y193300D02*
Y194800D01*
Y193300D02*
X138600D01*
X135800Y192200D02*
X138600D01*
X135800Y190700D02*
Y192200D01*
Y190700D02*
X138600D01*
X135800Y189700D02*
X138600D01*
X135800Y188200D02*
Y189700D01*
Y188200D02*
X138600D01*
Y184500D02*
Y185600D01*
Y187100D01*
X135800D02*
X138600D01*
X135800Y185600D02*
Y187100D01*
Y185600D02*
X138600D01*
X144800D02*
X147600D01*
Y187100D01*
X144800D02*
X147600D01*
X144800Y188200D02*
X147600D01*
Y189700D01*
X144800D02*
X147600D01*
X144800Y190700D02*
X147600D01*
Y192200D01*
X144800D02*
X147600D01*
X144800Y194800D02*
Y195900D01*
Y193300D02*
Y194800D01*
Y193300D02*
X147600D01*
Y194800D01*
X144800D02*
X147600D01*
X138600Y184500D02*
X144800D01*
Y185600D01*
Y187100D01*
Y188200D01*
Y189700D01*
Y190700D01*
Y192200D01*
Y193300D01*
X142900Y195900D02*
X144800D01*
X140500D02*
X142900D01*
X138600D02*
X140500D01*
X138600Y194800D02*
Y195900D01*
Y193300D02*
Y194800D01*
Y192200D02*
Y193300D01*
Y190700D02*
Y192200D01*
Y189700D02*
Y190700D01*
Y188200D02*
Y189700D01*
Y187100D02*
Y188200D01*
X135800Y194800D02*
X138600D01*
X135800Y193300D02*
Y194800D01*
Y193300D02*
X138600D01*
X135800Y192200D02*
X138600D01*
X135800Y190700D02*
Y192200D01*
Y190700D02*
X138600D01*
X135800Y189700D02*
X138600D01*
X135800Y188200D02*
Y189700D01*
Y188200D02*
X138600D01*
Y184500D02*
Y185600D01*
Y187100D01*
X135800D02*
X138600D01*
X135800Y185600D02*
Y187100D01*
Y185600D02*
X138600D01*
X144800D02*
X147600D01*
Y187100D01*
X144800D02*
X147600D01*
X144800Y188200D02*
X147600D01*
Y189700D01*
X144800D02*
X147600D01*
X144800Y190700D02*
X147600D01*
Y192200D01*
X144800D02*
X147600D01*
X144800Y194800D02*
Y195900D01*
Y193300D02*
Y194800D01*
Y193300D02*
X147600D01*
Y194800D01*
X144800D02*
X147600D01*
X223500Y182800D02*
X229700D01*
Y183900D01*
Y185400D01*
Y186500D01*
Y188000D01*
Y189000D01*
Y190500D01*
Y191600D01*
X227800Y194200D02*
X229700D01*
X225400D02*
X227800D01*
X223500D02*
X225400D01*
X223500Y193100D02*
Y194200D01*
Y191600D02*
Y193100D01*
Y190500D02*
Y191600D01*
Y189000D02*
Y190500D01*
Y188000D02*
Y189000D01*
Y186500D02*
Y188000D01*
Y185400D02*
Y186500D01*
X220700Y193100D02*
X223500D01*
X220700Y191600D02*
Y193100D01*
Y191600D02*
X223500D01*
X220700Y190500D02*
X223500D01*
X220700Y189000D02*
Y190500D01*
Y189000D02*
X223500D01*
X220700Y188000D02*
X223500D01*
X220700Y186500D02*
Y188000D01*
Y186500D02*
X223500D01*
Y182800D02*
Y183900D01*
Y185400D01*
X220700D02*
X223500D01*
X220700Y183900D02*
Y185400D01*
Y183900D02*
X223500D01*
X229700D02*
X232500D01*
Y185400D01*
X229700D02*
X232500D01*
X229700Y186500D02*
X232500D01*
Y188000D01*
X229700D02*
X232500D01*
X229700Y189000D02*
X232500D01*
Y190500D01*
X229700D02*
X232500D01*
X229700Y193100D02*
Y194200D01*
Y191600D02*
Y193100D01*
Y191600D02*
X232500D01*
Y193100D01*
X229700D02*
X232500D01*
X223500Y182800D02*
X229700D01*
Y183900D01*
Y185400D01*
Y186500D01*
Y188000D01*
Y189000D01*
Y190500D01*
Y191600D01*
X227800Y194200D02*
X229700D01*
X225400D02*
X227800D01*
X223500D02*
X225400D01*
X223500Y193100D02*
Y194200D01*
Y191600D02*
Y193100D01*
Y190500D02*
Y191600D01*
Y189000D02*
Y190500D01*
Y188000D02*
Y189000D01*
Y186500D02*
Y188000D01*
Y185400D02*
Y186500D01*
X220700Y193100D02*
X223500D01*
X220700Y191600D02*
Y193100D01*
Y191600D02*
X223500D01*
X220700Y190500D02*
X223500D01*
X220700Y189000D02*
Y190500D01*
Y189000D02*
X223500D01*
X220700Y188000D02*
X223500D01*
X220700Y186500D02*
Y188000D01*
Y186500D02*
X223500D01*
Y182800D02*
Y183900D01*
Y185400D01*
X220700D02*
X223500D01*
X220700Y183900D02*
Y185400D01*
Y183900D02*
X223500D01*
X229700D02*
X232500D01*
Y185400D01*
X229700D02*
X232500D01*
X229700Y186500D02*
X232500D01*
Y188000D01*
X229700D02*
X232500D01*
X229700Y189000D02*
X232500D01*
Y190500D01*
X229700D02*
X232500D01*
X229700Y193100D02*
Y194200D01*
Y191600D02*
Y193100D01*
Y191600D02*
X232500D01*
Y193100D01*
X229700D02*
X232500D01*
X51400Y271300D02*
X57600D01*
Y272400D01*
Y273900D01*
Y275000D01*
Y276500D01*
Y277500D01*
Y279000D01*
Y280100D01*
X55700Y282700D02*
X57600D01*
X53300D02*
X55700D01*
X51400D02*
X53300D01*
X51400Y281600D02*
Y282700D01*
Y280100D02*
Y281600D01*
Y279000D02*
Y280100D01*
Y277500D02*
Y279000D01*
Y276500D02*
Y277500D01*
Y275000D02*
Y276500D01*
Y273900D02*
Y275000D01*
X48600Y281600D02*
X51400D01*
X48600Y280100D02*
Y281600D01*
Y280100D02*
X51400D01*
X48600Y279000D02*
X51400D01*
X48600Y277500D02*
Y279000D01*
Y277500D02*
X51400D01*
X48600Y276500D02*
X51400D01*
X48600Y275000D02*
Y276500D01*
Y275000D02*
X51400D01*
Y271300D02*
Y272400D01*
Y273900D01*
X48600D02*
X51400D01*
X48600Y272400D02*
Y273900D01*
Y272400D02*
X51400D01*
X57600D02*
X60400D01*
Y273900D01*
X57600D02*
X60400D01*
X57600Y275000D02*
X60400D01*
Y276500D01*
X57600D02*
X60400D01*
X57600Y277500D02*
X60400D01*
Y279000D01*
X57600D02*
X60400D01*
X57600Y281600D02*
Y282700D01*
Y280100D02*
Y281600D01*
Y280100D02*
X60400D01*
Y281600D01*
X57600D02*
X60400D01*
X51400Y271300D02*
X57600D01*
Y272400D01*
Y273900D01*
Y275000D01*
Y276500D01*
Y277500D01*
Y279000D01*
Y280100D01*
X55700Y282700D02*
X57600D01*
X53300D02*
X55700D01*
X51400D02*
X53300D01*
X51400Y281600D02*
Y282700D01*
Y280100D02*
Y281600D01*
Y279000D02*
Y280100D01*
Y277500D02*
Y279000D01*
Y276500D02*
Y277500D01*
Y275000D02*
Y276500D01*
Y273900D02*
Y275000D01*
X48600Y281600D02*
X51400D01*
X48600Y280100D02*
Y281600D01*
Y280100D02*
X51400D01*
X48600Y279000D02*
X51400D01*
X48600Y277500D02*
Y279000D01*
Y277500D02*
X51400D01*
X48600Y276500D02*
X51400D01*
X48600Y275000D02*
Y276500D01*
Y275000D02*
X51400D01*
Y271300D02*
Y272400D01*
Y273900D01*
X48600D02*
X51400D01*
X48600Y272400D02*
Y273900D01*
Y272400D02*
X51400D01*
X57600D02*
X60400D01*
Y273900D01*
X57600D02*
X60400D01*
X57600Y275000D02*
X60400D01*
Y276500D01*
X57600D02*
X60400D01*
X57600Y277500D02*
X60400D01*
Y279000D01*
X57600D02*
X60400D01*
X57600Y281600D02*
Y282700D01*
Y280100D02*
Y281600D01*
Y280100D02*
X60400D01*
Y281600D01*
X57600D02*
X60400D01*
X136500Y271000D02*
X142700D01*
Y272100D01*
Y273600D01*
Y274700D01*
Y276200D01*
Y277200D01*
Y278700D01*
Y279800D01*
X140800Y282400D02*
X142700D01*
X138400D02*
X140800D01*
X136500D02*
X138400D01*
X136500Y281300D02*
Y282400D01*
Y279800D02*
Y281300D01*
Y278700D02*
Y279800D01*
Y277200D02*
Y278700D01*
Y276200D02*
Y277200D01*
Y274700D02*
Y276200D01*
Y273600D02*
Y274700D01*
X133700Y281300D02*
X136500D01*
X133700Y279800D02*
Y281300D01*
Y279800D02*
X136500D01*
X133700Y278700D02*
X136500D01*
X133700Y277200D02*
Y278700D01*
Y277200D02*
X136500D01*
X133700Y276200D02*
X136500D01*
X133700Y274700D02*
Y276200D01*
Y274700D02*
X136500D01*
Y271000D02*
Y272100D01*
Y273600D01*
X133700D02*
X136500D01*
X133700Y272100D02*
Y273600D01*
Y272100D02*
X136500D01*
X142700D02*
X145500D01*
Y273600D01*
X142700D02*
X145500D01*
X142700Y274700D02*
X145500D01*
Y276200D01*
X142700D02*
X145500D01*
X142700Y277200D02*
X145500D01*
Y278700D01*
X142700D02*
X145500D01*
X142700Y281300D02*
Y282400D01*
Y279800D02*
Y281300D01*
Y279800D02*
X145500D01*
Y281300D01*
X142700D02*
X145500D01*
X136500Y271000D02*
X142700D01*
Y272100D01*
Y273600D01*
Y274700D01*
Y276200D01*
Y277200D01*
Y278700D01*
Y279800D01*
X140800Y282400D02*
X142700D01*
X138400D02*
X140800D01*
X136500D02*
X138400D01*
X136500Y281300D02*
Y282400D01*
Y279800D02*
Y281300D01*
Y278700D02*
Y279800D01*
Y277200D02*
Y278700D01*
Y276200D02*
Y277200D01*
Y274700D02*
Y276200D01*
Y273600D02*
Y274700D01*
X133700Y281300D02*
X136500D01*
X133700Y279800D02*
Y281300D01*
Y279800D02*
X136500D01*
X133700Y278700D02*
X136500D01*
X133700Y277200D02*
Y278700D01*
Y277200D02*
X136500D01*
X133700Y276200D02*
X136500D01*
X133700Y274700D02*
Y276200D01*
Y274700D02*
X136500D01*
Y271000D02*
Y272100D01*
Y273600D01*
X133700D02*
X136500D01*
X133700Y272100D02*
Y273600D01*
Y272100D02*
X136500D01*
X142700D02*
X145500D01*
Y273600D01*
X142700D02*
X145500D01*
X142700Y274700D02*
X145500D01*
Y276200D01*
X142700D02*
X145500D01*
X142700Y277200D02*
X145500D01*
Y278700D01*
X142700D02*
X145500D01*
X142700Y281300D02*
Y282400D01*
Y279800D02*
Y281300D01*
Y279800D02*
X145500D01*
Y281300D01*
X142700D02*
X145500D01*
X223000Y270950D02*
X229200D01*
Y272050D01*
Y273550D01*
Y274650D01*
Y276150D01*
Y277150D01*
Y278650D01*
Y279750D01*
X227300Y282350D02*
X229200D01*
X224900D02*
X227300D01*
X223000D02*
X224900D01*
X223000Y281250D02*
Y282350D01*
Y279750D02*
Y281250D01*
Y278650D02*
Y279750D01*
Y277150D02*
Y278650D01*
Y276150D02*
Y277150D01*
Y274650D02*
Y276150D01*
Y273550D02*
Y274650D01*
X220200Y281250D02*
X223000D01*
X220200Y279750D02*
Y281250D01*
Y279750D02*
X223000D01*
X220200Y278650D02*
X223000D01*
X220200Y277150D02*
Y278650D01*
Y277150D02*
X223000D01*
X220200Y276150D02*
X223000D01*
X220200Y274650D02*
Y276150D01*
Y274650D02*
X223000D01*
Y270950D02*
Y272050D01*
Y273550D01*
X220200D02*
X223000D01*
X220200Y272050D02*
Y273550D01*
Y272050D02*
X223000D01*
X229200D02*
X232000D01*
Y273550D01*
X229200D02*
X232000D01*
X229200Y274650D02*
X232000D01*
Y276150D01*
X229200D02*
X232000D01*
X229200Y277150D02*
X232000D01*
Y278650D01*
X229200D02*
X232000D01*
X229200Y281250D02*
Y282350D01*
Y279750D02*
Y281250D01*
Y279750D02*
X232000D01*
Y281250D01*
X229200D02*
X232000D01*
X223000Y270950D02*
X229200D01*
Y272050D01*
Y273550D01*
Y274650D01*
Y276150D01*
Y277150D01*
Y278650D01*
Y279750D01*
X227300Y282350D02*
X229200D01*
X224900D02*
X227300D01*
X223000D02*
X224900D01*
X223000Y281250D02*
Y282350D01*
Y279750D02*
Y281250D01*
Y278650D02*
Y279750D01*
Y277150D02*
Y278650D01*
Y276150D02*
Y277150D01*
Y274650D02*
Y276150D01*
Y273550D02*
Y274650D01*
X220200Y281250D02*
X223000D01*
X220200Y279750D02*
Y281250D01*
Y279750D02*
X223000D01*
X220200Y278650D02*
X223000D01*
X220200Y277150D02*
Y278650D01*
Y277150D02*
X223000D01*
X220200Y276150D02*
X223000D01*
X220200Y274650D02*
Y276150D01*
Y274650D02*
X223000D01*
Y270950D02*
Y272050D01*
Y273550D01*
X220200D02*
X223000D01*
X220200Y272050D02*
Y273550D01*
Y272050D02*
X223000D01*
X229200D02*
X232000D01*
Y273550D01*
X229200D02*
X232000D01*
X229200Y274650D02*
X232000D01*
Y276150D01*
X229200D02*
X232000D01*
X229200Y277150D02*
X232000D01*
Y278650D01*
X229200D02*
X232000D01*
X229200Y281250D02*
Y282350D01*
Y279750D02*
Y281250D01*
Y279750D02*
X232000D01*
Y281250D01*
X229200D02*
X232000D01*
X219800Y349000D02*
X226000D01*
Y350100D01*
Y351600D01*
Y352700D01*
Y354200D01*
Y355200D01*
Y356700D01*
Y357800D01*
X224100Y360400D02*
X226000D01*
X221700D02*
X224100D01*
X219800D02*
X221700D01*
X219800Y359300D02*
Y360400D01*
Y357800D02*
Y359300D01*
Y356700D02*
Y357800D01*
Y355200D02*
Y356700D01*
Y354200D02*
Y355200D01*
Y352700D02*
Y354200D01*
Y351600D02*
Y352700D01*
X217000Y359300D02*
X219800D01*
X217000Y357800D02*
Y359300D01*
Y357800D02*
X219800D01*
X217000Y356700D02*
X219800D01*
X217000Y355200D02*
Y356700D01*
Y355200D02*
X219800D01*
X217000Y354200D02*
X219800D01*
X217000Y352700D02*
Y354200D01*
Y352700D02*
X219800D01*
Y349000D02*
Y350100D01*
Y351600D01*
X217000D02*
X219800D01*
X217000Y350100D02*
Y351600D01*
Y350100D02*
X219800D01*
X226000D02*
X228800D01*
Y351600D01*
X226000D02*
X228800D01*
X226000Y352700D02*
X228800D01*
Y354200D01*
X226000D02*
X228800D01*
X226000Y355200D02*
X228800D01*
Y356700D01*
X226000D02*
X228800D01*
X226000Y359300D02*
Y360400D01*
Y357800D02*
Y359300D01*
Y357800D02*
X228800D01*
Y359300D01*
X226000D02*
X228800D01*
X219800Y349000D02*
X226000D01*
Y350100D01*
Y351600D01*
Y352700D01*
Y354200D01*
Y355200D01*
Y356700D01*
Y357800D01*
X224100Y360400D02*
X226000D01*
X221700D02*
X224100D01*
X219800D02*
X221700D01*
X219800Y359300D02*
Y360400D01*
Y357800D02*
Y359300D01*
Y356700D02*
Y357800D01*
Y355200D02*
Y356700D01*
Y354200D02*
Y355200D01*
Y352700D02*
Y354200D01*
Y351600D02*
Y352700D01*
X217000Y359300D02*
X219800D01*
X217000Y357800D02*
Y359300D01*
Y357800D02*
X219800D01*
X217000Y356700D02*
X219800D01*
X217000Y355200D02*
Y356700D01*
Y355200D02*
X219800D01*
X217000Y354200D02*
X219800D01*
X217000Y352700D02*
Y354200D01*
Y352700D02*
X219800D01*
Y349000D02*
Y350100D01*
Y351600D01*
X217000D02*
X219800D01*
X217000Y350100D02*
Y351600D01*
Y350100D02*
X219800D01*
X226000D02*
X228800D01*
Y351600D01*
X226000D02*
X228800D01*
X226000Y352700D02*
X228800D01*
Y354200D01*
X226000D02*
X228800D01*
X226000Y355200D02*
X228800D01*
Y356700D01*
X226000D02*
X228800D01*
X226000Y359300D02*
Y360400D01*
Y357800D02*
Y359300D01*
Y357800D02*
X228800D01*
Y359300D01*
X226000D02*
X228800D01*
D45*
X225200Y93900D02*
G03*
X227600Y93900I1200J0D01*
G01*
X225200D02*
G03*
X227600Y93900I1200J0D01*
G01*
X141200Y93000D02*
G03*
X143600Y93000I1200J0D01*
G01*
X141200D02*
G03*
X143600Y93000I1200J0D01*
G01*
X140500Y195900D02*
G03*
X142900Y195900I1200J0D01*
G01*
X140500D02*
G03*
X142900Y195900I1200J0D01*
G01*
X225400Y194200D02*
G03*
X227800Y194200I1200J0D01*
G01*
X225400D02*
G03*
X227800Y194200I1200J0D01*
G01*
X53300Y282700D02*
G03*
X55700Y282700I1200J0D01*
G01*
X53300D02*
G03*
X55700Y282700I1200J0D01*
G01*
X138400Y282400D02*
G03*
X140800Y282400I1200J0D01*
G01*
X138400D02*
G03*
X140800Y282400I1200J0D01*
G01*
X224900Y282350D02*
G03*
X227300Y282350I1200J0D01*
G01*
X224900D02*
G03*
X227300Y282350I1200J0D01*
G01*
X221700Y360400D02*
G03*
X224100Y360400I1200J0D01*
G01*
X221700D02*
G03*
X224100Y360400I1200J0D01*
G01*
M02*
