M48
;Layer_Color=9474304
;FILE_FORMAT=2:5
INCH,LZ
;TYPE=PLATED
T1F00S00C0.02800
T2F00S00C0.03543
T3F00S00C0.03937
T4F00S00C0.05000
T5F00S00C0.12600
%
T01
X00475Y00062
X0079Y00393
X01279Y0055
X0172Y00405
X01775Y00276
X01976Y00353
X02305Y00395
X02452Y00305
X02375Y00094
X022225Y00971
X0222Y0106
X0232Y0111
X02325Y0153
X0236Y0206
X0202Y01858
X01805Y021
X0131247Y0193953
X01035Y01545
X0172Y01525
X0173Y01135
X0179Y01
X01969Y0126495
X01406Y00788
X01125Y0074274
X0031Y02385
X00275Y02748
X0028Y03125
X00915Y0304
X0101Y0312
X01125Y03145
X0128Y0331
X0114Y0347
X0167Y031
X0168Y0295
X01789Y03141
X0196Y02985
X0206Y02675
X01665Y0237
X01005Y02365
X00749Y02577
X00687Y02626
X0222Y0285
X023Y0312
X02336Y03576
X0266Y0286
X0231Y02345
X02295Y0385
T02
X00325Y0014
X00425
X00525
Y0024
X00425
X00325
X00625
X00725
X00825
X00925
X01025
X01125
X01225
X01325
X01425
X01525
X01625
X01725
X01825
X01925
X02025
Y0014
X01925
X01825
X01725
X01625
X01525
X01425
X01325
X01225
X01125
X01025
X00925
X00825
X00725
X00625
X01615Y00485
X01715
X02205Y0048
X02305
X02325Y0024
X02425
Y0014
X02325
X02225
Y0024
X02125
Y0014
X0222Y012
X0232
X02325Y01615
X02225
X0172Y0161
X0162
X01625Y0122
X01725
X0103Y01625
X0093
X0031Y02475
X0021
X0018Y0321
X0028
X0091Y03215
X0101
X0157Y0319
X0167
X0166Y02455
X0156
X01005
X00905
X0221Y0243
X0231
X02305Y03205
X02205
X02195Y03935
X02295
X02325Y0419374
X02225
X02125
Y0429374
X02225
X02325
X02425
Y0419374
X02025
X01925
X01825
X01725
X01625
X01525
X01425
X01325
X01225
X01125
X01025
X00925
X00825
X00725
X00625
Y0429374
X00725
X00825
X00925
X01025
X01125
X01225
X01325
X01425
X01525
X01625
X01725
X01825
X01925
X02025
X00525
X00425
X00325
Y0419374
X00425
X00525
T03
X0044189Y0365996
X0056Y03845
X0032378
T04
X0087Y03735
Y03835
Y03935
T05
X0157Y03835
M30
