G04*
G04 #@! TF.GenerationSoftware,Altium Limited,Altium Designer,19.1.5 (86)*
G04*
G04 Layer_Color=12632256*
%FSLAX25Y25*%
%MOIN*%
G70*
G01*
G75*
%ADD36C,0.05906*%
%ADD37R,0.05906X0.05906*%
%ADD38O,0.16000X0.08000*%
%ADD39C,0.30000*%
%ADD40O,0.09843X0.19685*%
%ADD41O,0.08858X0.17717*%
%ADD42O,0.17717X0.08858*%
D36*
X242500Y24000D02*
D03*
Y14000D02*
D03*
X232500Y24000D02*
D03*
Y14000D02*
D03*
X222500Y24000D02*
D03*
Y14000D02*
D03*
X212500Y24000D02*
D03*
Y14000D02*
D03*
X202500Y24000D02*
D03*
Y14000D02*
D03*
X192500Y24000D02*
D03*
Y14000D02*
D03*
X182500Y24000D02*
D03*
Y14000D02*
D03*
X172500Y24000D02*
D03*
Y14000D02*
D03*
X162500Y24000D02*
D03*
Y14000D02*
D03*
X152500Y24000D02*
D03*
Y14000D02*
D03*
X142500Y24000D02*
D03*
Y14000D02*
D03*
X132500Y24000D02*
D03*
Y14000D02*
D03*
X122500Y24000D02*
D03*
Y14000D02*
D03*
X112500Y24000D02*
D03*
Y14000D02*
D03*
X102500Y24000D02*
D03*
Y14000D02*
D03*
X92500Y24000D02*
D03*
Y14000D02*
D03*
X82500Y24000D02*
D03*
Y14000D02*
D03*
X72500Y24000D02*
D03*
Y14000D02*
D03*
X62500Y24000D02*
D03*
Y14000D02*
D03*
X52500Y24000D02*
D03*
Y14000D02*
D03*
X42500D02*
D03*
X32500Y24000D02*
D03*
X42500D02*
D03*
X32500Y419374D02*
D03*
Y429374D02*
D03*
X42500Y419374D02*
D03*
Y429374D02*
D03*
X52500Y419374D02*
D03*
Y429374D02*
D03*
X62500Y419374D02*
D03*
Y429374D02*
D03*
X72500Y419374D02*
D03*
Y429374D02*
D03*
X82500Y419374D02*
D03*
Y429374D02*
D03*
X92500Y419374D02*
D03*
Y429374D02*
D03*
X102500Y419374D02*
D03*
Y429374D02*
D03*
X112500Y419374D02*
D03*
Y429374D02*
D03*
X122500Y419374D02*
D03*
Y429374D02*
D03*
X132500Y419374D02*
D03*
Y429374D02*
D03*
X142500Y419374D02*
D03*
Y429374D02*
D03*
X152500Y419374D02*
D03*
Y429374D02*
D03*
X162500Y419374D02*
D03*
Y429374D02*
D03*
X172500Y419374D02*
D03*
Y429374D02*
D03*
X182500Y419374D02*
D03*
Y429374D02*
D03*
X192500Y419374D02*
D03*
Y429374D02*
D03*
X202500Y419374D02*
D03*
Y429374D02*
D03*
X212500Y419374D02*
D03*
Y429374D02*
D03*
X222500Y419374D02*
D03*
Y429374D02*
D03*
X232500D02*
D03*
X242500Y419374D02*
D03*
X232500D02*
D03*
X28000Y321000D02*
D03*
X31000Y247500D02*
D03*
X171500Y48500D02*
D03*
X172500Y122000D02*
D03*
X172000Y161000D02*
D03*
X166000Y245500D02*
D03*
X101000Y321500D02*
D03*
X100500Y245500D02*
D03*
X230500Y48000D02*
D03*
X232000Y120000D02*
D03*
X232500Y161500D02*
D03*
X103000Y162500D02*
D03*
X167000Y319000D02*
D03*
X231000Y243000D02*
D03*
X230500Y320500D02*
D03*
X229500Y393500D02*
D03*
D37*
X32500Y14000D02*
D03*
X242500Y429374D02*
D03*
X18000Y321000D02*
D03*
X21000Y247500D02*
D03*
X161500Y48500D02*
D03*
X162500Y122000D02*
D03*
X162000Y161000D02*
D03*
X156000Y245500D02*
D03*
X91000Y321500D02*
D03*
X90500Y245500D02*
D03*
X220500Y48000D02*
D03*
X222000Y120000D02*
D03*
X222500Y161500D02*
D03*
X93000Y162500D02*
D03*
X157000Y319000D02*
D03*
X221000Y243000D02*
D03*
X220500Y320500D02*
D03*
X219500Y393500D02*
D03*
D38*
X87000D02*
D03*
Y383500D02*
D03*
Y373500D02*
D03*
D39*
X157000Y383500D02*
D03*
D40*
X56000Y384500D02*
D03*
D41*
X32378D02*
D03*
D42*
X44189Y365996D02*
D03*
M02*
