G04*
G04 #@! TF.GenerationSoftware,Altium Limited,Altium Designer,19.1.5 (86)*
G04*
G04 Layer_Color=128*
%FSLAX25Y25*%
%MOIN*%
G70*
G01*
G75*
%ADD48C,0.00200*%
D48*
X240728Y24000D02*
X244272D01*
X242500Y22228D02*
Y25772D01*
X240728Y14000D02*
X244272D01*
X242500Y12228D02*
Y15772D01*
X230728Y24000D02*
X234272D01*
X232500Y22228D02*
Y25772D01*
X230728Y14000D02*
X234272D01*
X232500Y12228D02*
Y15772D01*
X220728Y24000D02*
X224272D01*
X222500Y22228D02*
Y25772D01*
X220728Y14000D02*
X224272D01*
X222500Y12228D02*
Y15772D01*
X210728Y24000D02*
X214272D01*
X212500Y22228D02*
Y25772D01*
X210728Y14000D02*
X214272D01*
X212500Y12228D02*
Y15772D01*
X200728Y24000D02*
X204272D01*
X202500Y22228D02*
Y25772D01*
X200728Y14000D02*
X204272D01*
X202500Y12228D02*
Y15772D01*
X190728Y24000D02*
X194272D01*
X192500Y22228D02*
Y25772D01*
X190728Y14000D02*
X194272D01*
X192500Y12228D02*
Y15772D01*
X180728Y24000D02*
X184272D01*
X182500Y22228D02*
Y25772D01*
X180728Y14000D02*
X184272D01*
X182500Y12228D02*
Y15772D01*
X170728Y24000D02*
X174272D01*
X172500Y22228D02*
Y25772D01*
X170728Y14000D02*
X174272D01*
X172500Y12228D02*
Y15772D01*
X160728Y24000D02*
X164272D01*
X162500Y22228D02*
Y25772D01*
X160728Y14000D02*
X164272D01*
X162500Y12228D02*
Y15772D01*
X150728Y24000D02*
X154272D01*
X152500Y22228D02*
Y25772D01*
X150728Y14000D02*
X154272D01*
X152500Y12228D02*
Y15772D01*
X140728Y24000D02*
X144272D01*
X142500Y22228D02*
Y25772D01*
X140728Y14000D02*
X144272D01*
X142500Y12228D02*
Y15772D01*
X130728Y24000D02*
X134272D01*
X132500Y22228D02*
Y25772D01*
X130728Y14000D02*
X134272D01*
X132500Y12228D02*
Y15772D01*
X120728Y24000D02*
X124272D01*
X122500Y22228D02*
Y25772D01*
X120728Y14000D02*
X124272D01*
X122500Y12228D02*
Y15772D01*
X110728Y24000D02*
X114272D01*
X112500Y22228D02*
Y25772D01*
X110728Y14000D02*
X114272D01*
X112500Y12228D02*
Y15772D01*
X100728Y24000D02*
X104272D01*
X102500Y22228D02*
Y25772D01*
X100728Y14000D02*
X104272D01*
X102500Y12228D02*
Y15772D01*
X90728Y24000D02*
X94272D01*
X92500Y22228D02*
Y25772D01*
X90728Y14000D02*
X94272D01*
X92500Y12228D02*
Y15772D01*
X80728Y24000D02*
X84272D01*
X82500Y22228D02*
Y25772D01*
X80728Y14000D02*
X84272D01*
X82500Y12228D02*
Y15772D01*
X70728Y24000D02*
X74272D01*
X72500Y22228D02*
Y25772D01*
X70728Y14000D02*
X74272D01*
X72500Y12228D02*
Y15772D01*
X60728Y24000D02*
X64272D01*
X62500Y22228D02*
Y25772D01*
X60728Y14000D02*
X64272D01*
X62500Y12228D02*
Y15772D01*
X50728Y24000D02*
X54272D01*
X52500Y22228D02*
Y25772D01*
X50728Y14000D02*
X54272D01*
X52500Y12228D02*
Y15772D01*
X40728Y14000D02*
X44272D01*
X42500Y12228D02*
Y15772D01*
X30728Y24000D02*
X34272D01*
X32500Y22228D02*
Y25772D01*
X30728Y14000D02*
X34272D01*
X32500Y12228D02*
Y15772D01*
X40728Y24000D02*
X44272D01*
X42500Y22228D02*
Y25772D01*
X30728Y419374D02*
X34272D01*
X32500Y417602D02*
Y421146D01*
X30728Y429374D02*
X34272D01*
X32500Y427602D02*
Y431146D01*
X40728Y419374D02*
X44272D01*
X42500Y417602D02*
Y421146D01*
X40728Y429374D02*
X44272D01*
X42500Y427602D02*
Y431146D01*
X50728Y419374D02*
X54272D01*
X52500Y417602D02*
Y421146D01*
X50728Y429374D02*
X54272D01*
X52500Y427602D02*
Y431146D01*
X60728Y419374D02*
X64272D01*
X62500Y417602D02*
Y421146D01*
X60728Y429374D02*
X64272D01*
X62500Y427602D02*
Y431146D01*
X70728Y419374D02*
X74272D01*
X72500Y417602D02*
Y421146D01*
X70728Y429374D02*
X74272D01*
X72500Y427602D02*
Y431146D01*
X80728Y419374D02*
X84272D01*
X82500Y417602D02*
Y421146D01*
X80728Y429374D02*
X84272D01*
X82500Y427602D02*
Y431146D01*
X90728Y419374D02*
X94272D01*
X92500Y417602D02*
Y421146D01*
X90728Y429374D02*
X94272D01*
X92500Y427602D02*
Y431146D01*
X100728Y419374D02*
X104272D01*
X102500Y417602D02*
Y421146D01*
X100728Y429374D02*
X104272D01*
X102500Y427602D02*
Y431146D01*
X110728Y419374D02*
X114272D01*
X112500Y417602D02*
Y421146D01*
X110728Y429374D02*
X114272D01*
X112500Y427602D02*
Y431146D01*
X120728Y419374D02*
X124272D01*
X122500Y417602D02*
Y421146D01*
X120728Y429374D02*
X124272D01*
X122500Y427602D02*
Y431146D01*
X130728Y419374D02*
X134272D01*
X132500Y417602D02*
Y421146D01*
X130728Y429374D02*
X134272D01*
X132500Y427602D02*
Y431146D01*
X140728Y419374D02*
X144272D01*
X142500Y417602D02*
Y421146D01*
X140728Y429374D02*
X144272D01*
X142500Y427602D02*
Y431146D01*
X150728Y419374D02*
X154272D01*
X152500Y417602D02*
Y421146D01*
X150728Y429374D02*
X154272D01*
X152500Y427602D02*
Y431146D01*
X160728Y419374D02*
X164272D01*
X162500Y417602D02*
Y421146D01*
X160728Y429374D02*
X164272D01*
X162500Y427602D02*
Y431146D01*
X170728Y419374D02*
X174272D01*
X172500Y417602D02*
Y421146D01*
X170728Y429374D02*
X174272D01*
X172500Y427602D02*
Y431146D01*
X180728Y419374D02*
X184272D01*
X182500Y417602D02*
Y421146D01*
X180728Y429374D02*
X184272D01*
X182500Y427602D02*
Y431146D01*
X190728Y419374D02*
X194272D01*
X192500Y417602D02*
Y421146D01*
X190728Y429374D02*
X194272D01*
X192500Y427602D02*
Y431146D01*
X200728Y419374D02*
X204272D01*
X202500Y417602D02*
Y421146D01*
X200728Y429374D02*
X204272D01*
X202500Y427602D02*
Y431146D01*
X210728Y419374D02*
X214272D01*
X212500Y417602D02*
Y421146D01*
X210728Y429374D02*
X214272D01*
X212500Y427602D02*
Y431146D01*
X220728Y419374D02*
X224272D01*
X222500Y417602D02*
Y421146D01*
X220728Y429374D02*
X224272D01*
X222500Y427602D02*
Y431146D01*
X230728Y429374D02*
X234272D01*
X232500Y427602D02*
Y431146D01*
X240728Y419374D02*
X244272D01*
X242500Y417602D02*
Y421146D01*
X240728Y429374D02*
X244272D01*
X242500Y427602D02*
Y431146D01*
X230728Y419374D02*
X234272D01*
X232500Y417602D02*
Y421146D01*
X16228Y321000D02*
X19772D01*
X18000Y319228D02*
Y322772D01*
X26228Y321000D02*
X29772D01*
X28000Y319228D02*
Y322772D01*
X19228Y247500D02*
X22772D01*
X21000Y245728D02*
Y249272D01*
X29228Y247500D02*
X32772D01*
X31000Y245728D02*
Y249272D01*
X159728Y48500D02*
X163272D01*
X161500Y46728D02*
Y50272D01*
X169728Y48500D02*
X173272D01*
X171500Y46728D02*
Y50272D01*
X160728Y122000D02*
X164272D01*
X162500Y120228D02*
Y123772D01*
X170728Y122000D02*
X174272D01*
X172500Y120228D02*
Y123772D01*
X160228Y161000D02*
X163772D01*
X162000Y159228D02*
Y162772D01*
X170228Y161000D02*
X173772D01*
X172000Y159228D02*
Y162772D01*
X154228Y245500D02*
X157772D01*
X156000Y243728D02*
Y247272D01*
X164228Y245500D02*
X167772D01*
X166000Y243728D02*
Y247272D01*
X89228Y321500D02*
X92772D01*
X91000Y319728D02*
Y323272D01*
X99228Y321500D02*
X102772D01*
X101000Y319728D02*
Y323272D01*
X88728Y245500D02*
X92272D01*
X90500Y243728D02*
Y247272D01*
X98728Y245500D02*
X102272D01*
X100500Y243728D02*
Y247272D01*
X218728Y48000D02*
X222272D01*
X220500Y46228D02*
Y49772D01*
X228728Y48000D02*
X232272D01*
X230500Y46228D02*
Y49772D01*
X220228Y120000D02*
X223772D01*
X222000Y118228D02*
Y121772D01*
X230228Y120000D02*
X233772D01*
X232000Y118228D02*
Y121772D01*
X220728Y161500D02*
X224272D01*
X222500Y159728D02*
Y163272D01*
X230728Y161500D02*
X234272D01*
X232500Y159728D02*
Y163272D01*
X91228Y162500D02*
X94772D01*
X93000Y160728D02*
Y164272D01*
X101228Y162500D02*
X104772D01*
X103000Y160728D02*
Y164272D01*
X155228Y319000D02*
X158772D01*
X157000Y317228D02*
Y320772D01*
X165228Y319000D02*
X168772D01*
X167000Y317228D02*
Y320772D01*
X219228Y243000D02*
X222772D01*
X221000Y241228D02*
Y244772D01*
X229228Y243000D02*
X232772D01*
X231000Y241228D02*
Y244772D01*
X218728Y320500D02*
X222272D01*
X220500Y318728D02*
Y322272D01*
X228728Y320500D02*
X232272D01*
X230500Y318728D02*
Y322272D01*
X217728Y393500D02*
X221272D01*
X219500Y391728D02*
Y395272D01*
X227728Y393500D02*
X231272D01*
X229500Y391728D02*
Y395272D01*
X84500Y393500D02*
X89500D01*
X87000Y391000D02*
Y396000D01*
X84500Y383500D02*
X89500D01*
X87000Y381000D02*
Y386000D01*
X84500Y373500D02*
X89500D01*
X87000Y371000D02*
Y376000D01*
X150700Y383500D02*
X163300D01*
X157000Y377200D02*
Y389800D01*
X54031Y384500D02*
X57968D01*
X56000Y382531D02*
Y386469D01*
X30410Y384500D02*
X34347D01*
X32378Y382531D02*
Y386469D01*
X42221Y365996D02*
X46158D01*
X44189Y364028D02*
Y367965D01*
X220600Y106000D02*
X223400D01*
X222000Y104600D02*
Y107400D01*
X177600Y100000D02*
X180400D01*
X179000Y98600D02*
Y101400D01*
X179100Y210000D02*
X181900D01*
X180500Y208600D02*
Y211400D01*
X234600Y206000D02*
X237400D01*
X236000Y204600D02*
Y207400D01*
X264600Y286000D02*
X267400D01*
X266000Y284600D02*
Y287400D01*
X166600Y295000D02*
X169400D01*
X168000Y293600D02*
Y296400D01*
X194600Y298500D02*
X197400D01*
X196000Y297100D02*
Y299900D01*
X111100Y314500D02*
X113900D01*
X112500Y313100D02*
Y315900D01*
X90100Y304000D02*
X92900D01*
X91500Y302600D02*
Y305400D01*
X204600Y267500D02*
X207400D01*
X206000Y266100D02*
Y268900D01*
X220600Y285000D02*
X223400D01*
X222000Y283600D02*
Y286400D01*
X126600Y331000D02*
X129400D01*
X128000Y329600D02*
Y332400D01*
X112600Y347000D02*
X115400D01*
X114000Y345600D02*
Y348400D01*
X196200Y35300D02*
X199000D01*
X197600Y33900D02*
Y36700D01*
X195500Y126495D02*
X198300D01*
X196900Y125095D02*
Y127895D01*
X111100Y74274D02*
X113900D01*
X112500Y72874D02*
Y75674D01*
X77600Y39300D02*
X80400D01*
X79000Y37900D02*
Y40700D01*
X129847Y193953D02*
X132647D01*
X131247Y192553D02*
Y195353D01*
X139200Y78800D02*
X142000D01*
X140600Y77400D02*
Y80200D01*
X46100Y6200D02*
X48900D01*
X47500Y4800D02*
Y7600D01*
X26100Y274800D02*
X28900D01*
X27500Y273400D02*
Y276200D01*
X236100Y9400D02*
X238900D01*
X237500Y8000D02*
Y10800D01*
X126500Y55000D02*
X129300D01*
X127900Y53600D02*
Y56400D01*
X220850Y97100D02*
X223650D01*
X222250Y95700D02*
Y98500D01*
X73500Y257700D02*
X76300D01*
X74900Y256300D02*
Y259100D01*
X177500Y314100D02*
X180300D01*
X178900Y312700D02*
Y315500D01*
X67300Y262600D02*
X70100D01*
X68700Y261200D02*
Y264000D01*
X232200Y357600D02*
X235000D01*
X233600Y356200D02*
Y359000D01*
X200600Y185800D02*
X203400D01*
X202000Y184400D02*
Y187200D01*
X176100Y27600D02*
X178900D01*
X177500Y26200D02*
Y29000D01*
X243800Y30500D02*
X246600D01*
X245200Y29100D02*
Y31900D01*
X170600Y40500D02*
X173400D01*
X172000Y39100D02*
Y41900D01*
X229100Y39500D02*
X231900D01*
X230500Y38100D02*
Y40900D01*
X230600Y111000D02*
X233400D01*
X232000Y109600D02*
Y112400D01*
X231100Y153000D02*
X233900D01*
X232500Y151600D02*
Y154400D01*
X170600Y152500D02*
X173400D01*
X172000Y151100D02*
Y153900D01*
X171600Y113500D02*
X174400D01*
X173000Y112100D02*
Y114900D01*
X102100Y154500D02*
X104900D01*
X103500Y153100D02*
Y155900D01*
X165100Y237000D02*
X167900D01*
X166500Y235600D02*
Y238400D01*
X26600Y312500D02*
X29400D01*
X28000Y311100D02*
Y313900D01*
X99600Y312000D02*
X102400D01*
X101000Y310600D02*
Y313400D01*
X228100Y385000D02*
X230900D01*
X229500Y383600D02*
Y386400D01*
X228600Y312000D02*
X231400D01*
X230000Y310600D02*
Y313400D01*
X165600Y310000D02*
X168400D01*
X167000Y308600D02*
Y311400D01*
X229600Y234500D02*
X232400D01*
X231000Y233100D02*
Y235900D01*
X99100Y236500D02*
X101900D01*
X100500Y235100D02*
Y237900D01*
X29600Y238500D02*
X32400D01*
X31000Y237100D02*
Y239900D01*
M02*
