G04*
G04 #@! TF.GenerationSoftware,Altium Limited,Altium Designer,19.1.5 (86)*
G04*
G04 Layer_Color=8388736*
%FSLAX25Y25*%
%MOIN*%
G70*
G01*
G75*
%ADD22C,0.00100*%
%ADD23R,0.06800X0.02500*%
%ADD24R,0.06312X0.05131*%
%ADD25R,0.06300X0.04800*%
%ADD26R,0.05131X0.06312*%
%ADD27C,0.06706*%
%ADD28R,0.06706X0.06706*%
%ADD29O,0.16800X0.08800*%
%ADD30C,0.30800*%
%ADD31O,0.10642X0.20485*%
%ADD32O,0.09658X0.18517*%
%ADD33O,0.18517X0.09658*%
%ADD34C,0.05800*%
D22*
X109395Y456569D02*
X115595D01*
X109095Y456469D02*
X115995D01*
X119795D02*
X121095D01*
X130195D02*
X140495D01*
X141795D02*
X150295D01*
X153595D02*
X154895D01*
X159295D02*
X163695D01*
X108795Y456369D02*
X116295D01*
X119795D02*
X121095D01*
X130195D02*
X140495D01*
X141795D02*
X150695D01*
X153595D02*
X154895D01*
X158295D02*
X164795D01*
X108695Y456269D02*
X116495D01*
X119795D02*
X121095D01*
X130195D02*
X140495D01*
X141795D02*
X150895D01*
X153595D02*
X154895D01*
X157895D02*
X165095D01*
X108495Y456169D02*
X116595D01*
X119795D02*
X121095D01*
X130195D02*
X140495D01*
X141795D02*
X151095D01*
X153595D02*
X154895D01*
X157695D02*
X165395D01*
X108395Y456069D02*
X116795D01*
X119795D02*
X121095D01*
X130195D02*
X140495D01*
X141795D02*
X151295D01*
X153595D02*
X154895D01*
X157495D02*
X165595D01*
X108295Y455969D02*
X116895D01*
X119795D02*
X121095D01*
X130195D02*
X140495D01*
X141795D02*
X151395D01*
X153595D02*
X154895D01*
X157395D02*
X165695D01*
X108195Y455869D02*
X116995D01*
X119795D02*
X121095D01*
X130195D02*
X140495D01*
X141795D02*
X151595D01*
X153595D02*
X154895D01*
X157195D02*
X165795D01*
X108095Y455769D02*
X117095D01*
X119795D02*
X121095D01*
X130195D02*
X140495D01*
X141795D02*
X151695D01*
X153595D02*
X154895D01*
X157095D02*
X165995D01*
X107995Y455669D02*
X117195D01*
X119795D02*
X121095D01*
X130195D02*
X140495D01*
X141795D02*
X151795D01*
X153595D02*
X154895D01*
X156995D02*
X166095D01*
X107895Y455569D02*
X117295D01*
X119795D02*
X121095D01*
X130195D02*
X140495D01*
X141795D02*
X151895D01*
X153595D02*
X154895D01*
X156895D02*
X166195D01*
X107795Y455469D02*
X117395D01*
X119795D02*
X121095D01*
X130195D02*
X140495D01*
X141795D02*
X151895D01*
X153595D02*
X154895D01*
X156795D02*
X166295D01*
X107795Y455369D02*
X117395D01*
X119795D02*
X121095D01*
X130195D02*
X140495D01*
X141795D02*
X151995D01*
X153595D02*
X154895D01*
X156695D02*
X166395D01*
X107695Y455269D02*
X110195D01*
X115395D02*
X117495D01*
X119795D02*
X121095D01*
X130195D02*
X140495D01*
X141795D02*
X152095D01*
X153595D02*
X154895D01*
X156695D02*
X166395D01*
X107695Y455169D02*
X109695D01*
X115695D02*
X117495D01*
X119795D02*
X121095D01*
X130195D02*
X131495D01*
X141795D02*
X143095D01*
X150095D02*
X152195D01*
X153495D02*
X154895D01*
X156595D02*
X166495D01*
X107595Y455069D02*
X109395D01*
X115895D02*
X117595D01*
X119795D02*
X121095D01*
X130195D02*
X131495D01*
X141795D02*
X143095D01*
X150395D02*
X152195D01*
X153495D02*
X154895D01*
X156495D02*
X158795D01*
X164295D02*
X166595D01*
X107595Y454969D02*
X109195D01*
X115995D02*
X117595D01*
X119795D02*
X121095D01*
X130195D02*
X131495D01*
X141795D02*
X143095D01*
X150495D02*
X152295D01*
X153495D02*
X154895D01*
X156495D02*
X158395D01*
X164695D02*
X166595D01*
X107495Y454869D02*
X109095D01*
X116095D02*
X117695D01*
X119795D02*
X121095D01*
X130195D02*
X131495D01*
X141795D02*
X143095D01*
X150695D02*
X152295D01*
X153495D02*
X154895D01*
X156395D02*
X158195D01*
X164795D02*
X166695D01*
X107495Y454769D02*
X108995D01*
X116195D02*
X117695D01*
X119795D02*
X121095D01*
X130195D02*
X131495D01*
X141795D02*
X143095D01*
X150795D02*
X152395D01*
X153495D02*
X154895D01*
X156395D02*
X158095D01*
X164995D02*
X166695D01*
X107495Y454669D02*
X108895D01*
X116195D02*
X117695D01*
X119795D02*
X121095D01*
X150895D02*
X152395D01*
X153495D02*
X154895D01*
X156295D02*
X157995D01*
X165095D02*
X166795D01*
X107495Y454569D02*
X108795D01*
X116295D02*
X117695D01*
X119795D02*
X121095D01*
X150995D02*
X152395D01*
X153495D02*
X154895D01*
X156295D02*
X157895D01*
X165195D02*
X166795D01*
X107395Y454469D02*
X108795D01*
X116295D02*
X117795D01*
X150995D02*
X152495D01*
X153495D02*
X154895D01*
X156295D02*
X157795D01*
X165295D02*
X166895D01*
X107395Y454369D02*
X108795D01*
X116395D02*
X117795D01*
X151095D02*
X152495D01*
X153495D02*
X154895D01*
X156195D02*
X157695D01*
X165395D02*
X166895D01*
X107395Y454269D02*
X108695D01*
X116395D02*
X117795D01*
X151095D02*
X152495D01*
X153495D02*
X154895D01*
X156195D02*
X157595D01*
X165395D02*
X166895D01*
X107395Y454169D02*
X108695D01*
X116395D02*
X117795D01*
X151195D02*
X152495D01*
X153495D02*
X154895D01*
X156195D02*
X157595D01*
X165495D02*
X166895D01*
X107395Y454069D02*
X108695D01*
X116395D02*
X117795D01*
X151195D02*
X152595D01*
X153495D02*
X154895D01*
X156095D02*
X157495D01*
X165495D02*
X166995D01*
X107395Y453969D02*
X108695D01*
X116395D02*
X117795D01*
X151195D02*
X152595D01*
X153495D02*
X154895D01*
X156095D02*
X157495D01*
X165595D02*
X166995D01*
X107395Y453869D02*
X108695D01*
X116395D02*
X117795D01*
X119795D02*
X121095D01*
X151295D02*
X152595D01*
X153495D02*
X154895D01*
X156095D02*
X157495D01*
X165595D02*
X166995D01*
X107395Y453769D02*
X108695D01*
X116395D02*
X117795D01*
X119795D02*
X121095D01*
X151295D02*
X152595D01*
X153495D02*
X154895D01*
X156095D02*
X157495D01*
X165595D02*
X166995D01*
X107395Y453669D02*
X108795D01*
X116395D02*
X117795D01*
X119795D02*
X121095D01*
X151295D02*
X152595D01*
X153495D02*
X154895D01*
X156095D02*
X157395D01*
X165595D02*
X166995D01*
X107395Y453569D02*
X108795D01*
X116395D02*
X117795D01*
X119795D02*
X121095D01*
X151295D02*
X152595D01*
X153495D02*
X154895D01*
X156095D02*
X157395D01*
X165595D02*
X166995D01*
X107495Y453469D02*
X108795D01*
X119795D02*
X121095D01*
X151295D02*
X152595D01*
X153495D02*
X154895D01*
X156095D02*
X157395D01*
X165595D02*
X166995D01*
X97995Y453369D02*
X98895D01*
X107495D02*
X108895D01*
X119795D02*
X121095D01*
X151295D02*
X152595D01*
X153495D02*
X154895D01*
X156095D02*
X157395D01*
X165595D02*
X166995D01*
X97995Y453269D02*
X98895D01*
X107495D02*
X108895D01*
X119795D02*
X121095D01*
X130195D02*
X131495D01*
X151295D02*
X152595D01*
X153495D02*
X154895D01*
X156095D02*
X157395D01*
X165595D02*
X166995D01*
X97995Y453169D02*
X98195D01*
X98695D02*
X98895D01*
X107495D02*
X108995D01*
X119795D02*
X121095D01*
X130195D02*
X131495D01*
X151295D02*
X152595D01*
X153495D02*
X154895D01*
X156095D02*
X157395D01*
X165595D02*
X166995D01*
X97995Y453069D02*
X98195D01*
X98695D02*
X98895D01*
X107595D02*
X109095D01*
X119795D02*
X121095D01*
X130195D02*
X131495D01*
X151295D02*
X152595D01*
X153495D02*
X154895D01*
X155995D02*
X157395D01*
X165695D02*
X166995D01*
X97995Y452969D02*
X98195D01*
X98695D02*
X98895D01*
X107595D02*
X109295D01*
X119795D02*
X121095D01*
X130195D02*
X131495D01*
X151295D02*
X152595D01*
X153495D02*
X154895D01*
X155995D02*
X157395D01*
X97995Y452869D02*
X98195D01*
X98695D02*
X98895D01*
X107695D02*
X109395D01*
X119795D02*
X121095D01*
X130195D02*
X131495D01*
X151195D02*
X152595D01*
X153495D02*
X154895D01*
X155995D02*
X157395D01*
X97995Y452769D02*
X98195D01*
X98695D02*
X98895D01*
X107695D02*
X109795D01*
X119795D02*
X121095D01*
X130195D02*
X139695D01*
X151195D02*
X152595D01*
X153495D02*
X154895D01*
X155995D02*
X157395D01*
X97995Y452669D02*
X98195D01*
X98695D02*
X98895D01*
X107795D02*
X115095D01*
X119795D02*
X121095D01*
X130195D02*
X139695D01*
X151195D02*
X152495D01*
X153495D02*
X154895D01*
X155995D02*
X157395D01*
X97995Y452569D02*
X98195D01*
X98695D02*
X98895D01*
X107895D02*
X115695D01*
X119795D02*
X121095D01*
X130195D02*
X139695D01*
X151095D02*
X152495D01*
X153495D02*
X154895D01*
X155995D02*
X157395D01*
X97995Y452469D02*
X98195D01*
X98695D02*
X98895D01*
X107995D02*
X115995D01*
X119795D02*
X121095D01*
X130195D02*
X139695D01*
X151095D02*
X152495D01*
X153495D02*
X154895D01*
X155995D02*
X157395D01*
X94195Y452369D02*
X94595D01*
X97995D02*
X98195D01*
X98695D02*
X98895D01*
X102295D02*
X102595D01*
X107995D02*
X116295D01*
X119795D02*
X121095D01*
X130195D02*
X139695D01*
X150995D02*
X152495D01*
X153495D02*
X154895D01*
X155995D02*
X157395D01*
X94095Y452269D02*
X94695D01*
X97995D02*
X98195D01*
X98695D02*
X98895D01*
X102195D02*
X102795D01*
X108095D02*
X116495D01*
X119795D02*
X121095D01*
X130195D02*
X139695D01*
X150995D02*
X152395D01*
X153495D02*
X154895D01*
X155995D02*
X157395D01*
X93895Y452169D02*
X94695D01*
X97995D02*
X98195D01*
X98695D02*
X98895D01*
X102195D02*
X102995D01*
X108195D02*
X116695D01*
X119795D02*
X121095D01*
X130195D02*
X139695D01*
X150895D02*
X152395D01*
X153495D02*
X154895D01*
X155995D02*
X157395D01*
X93795Y452069D02*
X94195D01*
X94495D02*
X94795D01*
X97995D02*
X98195D01*
X98695D02*
X98895D01*
X102095D02*
X102395D01*
X102695D02*
X103095D01*
X108395D02*
X116895D01*
X119795D02*
X121095D01*
X130195D02*
X139695D01*
X141795D02*
X143095D01*
X150795D02*
X152395D01*
X153495D02*
X154895D01*
X155995D02*
X157395D01*
X93795Y451969D02*
X94095D01*
X94495D02*
X94795D01*
X97995D02*
X98195D01*
X98695D02*
X98895D01*
X101995D02*
X102395D01*
X102795D02*
X103095D01*
X108495D02*
X116995D01*
X119795D02*
X121095D01*
X130195D02*
X139695D01*
X141795D02*
X143095D01*
X150695D02*
X152295D01*
X153495D02*
X154895D01*
X155995D02*
X157395D01*
X93895Y451869D02*
X94095D01*
X94595D02*
X94895D01*
X97995D02*
X98195D01*
X98695D02*
X98895D01*
X101995D02*
X102295D01*
X102795D02*
X102995D01*
X108695D02*
X117195D01*
X119795D02*
X121095D01*
X130195D02*
X139695D01*
X141795D02*
X143095D01*
X150595D02*
X152295D01*
X153495D02*
X154895D01*
X155995D02*
X157395D01*
X93895Y451769D02*
X94195D01*
X94695D02*
X94995D01*
X97995D02*
X98195D01*
X98695D02*
X98895D01*
X101895D02*
X102195D01*
X102695D02*
X102995D01*
X108795D02*
X117295D01*
X119795D02*
X121095D01*
X130195D02*
X139695D01*
X141795D02*
X143095D01*
X150395D02*
X152195D01*
X153495D02*
X154895D01*
X155995D02*
X157395D01*
X93995Y451669D02*
X94195D01*
X94695D02*
X94995D01*
X97995D02*
X98195D01*
X98695D02*
X98895D01*
X101895D02*
X102195D01*
X102595D02*
X102895D01*
X109095D02*
X117395D01*
X119795D02*
X121095D01*
X130195D02*
X139695D01*
X141795D02*
X143095D01*
X150095D02*
X152195D01*
X153495D02*
X154895D01*
X155995D02*
X157395D01*
X93995Y451569D02*
X94295D01*
X94795D02*
X95095D01*
X97995D02*
X98195D01*
X98695D02*
X98895D01*
X101795D02*
X102095D01*
X102595D02*
X102895D01*
X109295D02*
X117495D01*
X119795D02*
X121095D01*
X130195D02*
X139695D01*
X141795D02*
X152095D01*
X153495D02*
X154895D01*
X155995D02*
X157395D01*
X94095Y451469D02*
X94395D01*
X94795D02*
X95095D01*
X97995D02*
X98195D01*
X98695D02*
X98895D01*
X101695D02*
X101995D01*
X102495D02*
X102795D01*
X109695D02*
X117495D01*
X119795D02*
X121095D01*
X130195D02*
X131495D01*
X141795D02*
X151995D01*
X153495D02*
X154895D01*
X155995D02*
X157395D01*
X94095Y451369D02*
X94395D01*
X94895D02*
X95195D01*
X97995D02*
X98195D01*
X98695D02*
X98895D01*
X101695D02*
X101995D01*
X102495D02*
X102795D01*
X115595D02*
X117595D01*
X119795D02*
X121095D01*
X130195D02*
X131495D01*
X141795D02*
X151895D01*
X153495D02*
X154895D01*
X155995D02*
X157395D01*
X94195Y451269D02*
X94495D01*
X94995D02*
X95295D01*
X97995D02*
X98195D01*
X98695D02*
X98895D01*
X101595D02*
X101895D01*
X102395D02*
X102695D01*
X115995D02*
X117695D01*
X119795D02*
X121095D01*
X130195D02*
X131495D01*
X141795D02*
X151895D01*
X153495D02*
X154895D01*
X155995D02*
X157395D01*
X94195Y451169D02*
X94495D01*
X94995D02*
X95295D01*
X97995D02*
X98195D01*
X98695D02*
X98895D01*
X101595D02*
X101895D01*
X102395D02*
X102595D01*
X116195D02*
X117695D01*
X119795D02*
X121095D01*
X130195D02*
X131495D01*
X141795D02*
X151795D01*
X153495D02*
X154895D01*
X155995D02*
X157395D01*
X94295Y451069D02*
X94595D01*
X95095D02*
X95395D01*
X97995D02*
X98195D01*
X98695D02*
X98895D01*
X101495D02*
X101795D01*
X102295D02*
X102595D01*
X116295D02*
X117795D01*
X119795D02*
X121095D01*
X130195D02*
X131495D01*
X141795D02*
X151695D01*
X153495D02*
X154895D01*
X155995D02*
X157395D01*
X94395Y450969D02*
X94595D01*
X95095D02*
X95395D01*
X97995D02*
X98195D01*
X98695D02*
X98895D01*
X101495D02*
X101795D01*
X102195D02*
X102495D01*
X116395D02*
X117795D01*
X119795D02*
X121095D01*
X130195D02*
X131495D01*
X141795D02*
X151595D01*
X153495D02*
X154895D01*
X155995D02*
X157395D01*
X94395Y450869D02*
X94695D01*
X95195D02*
X95495D01*
X97995D02*
X98195D01*
X98695D02*
X98895D01*
X101395D02*
X101695D01*
X102195D02*
X102495D01*
X116495D02*
X117895D01*
X119795D02*
X121095D01*
X130195D02*
X131495D01*
X141795D02*
X151395D01*
X153495D02*
X154895D01*
X155995D02*
X157395D01*
X94495Y450769D02*
X94795D01*
X95195D02*
X95495D01*
X96795D02*
X97295D01*
X97995D02*
X98195D01*
X98695D02*
X98895D01*
X99595D02*
X100095D01*
X101295D02*
X101595D01*
X102095D02*
X102395D01*
X116595D02*
X117895D01*
X119795D02*
X121095D01*
X130195D02*
X131495D01*
X141795D02*
X151295D01*
X153495D02*
X154895D01*
X155995D02*
X157395D01*
X94495Y450669D02*
X94795D01*
X95295D02*
X95595D01*
X96495D02*
X97295D01*
X97995D02*
X98195D01*
X98695D02*
X98895D01*
X99495D02*
X100295D01*
X101295D02*
X101595D01*
X102095D02*
X102395D01*
X116595D02*
X117995D01*
X119795D02*
X121095D01*
X130195D02*
X131495D01*
X141795D02*
X151095D01*
X153495D02*
X154895D01*
X155995D02*
X157395D01*
X94595Y450569D02*
X94895D01*
X95395D02*
X95695D01*
X96495D02*
X97395D01*
X97995D02*
X98195D01*
X98695D02*
X98895D01*
X99495D02*
X100395D01*
X101195D02*
X101495D01*
X101995D02*
X102295D01*
X116695D02*
X117995D01*
X119795D02*
X121095D01*
X130195D02*
X131495D01*
X141795D02*
X150895D01*
X153495D02*
X154895D01*
X156095D02*
X157395D01*
X94595Y450469D02*
X94895D01*
X95395D02*
X95695D01*
X96495D02*
X97395D01*
X97995D02*
X98195D01*
X98695D02*
X98895D01*
X99495D02*
X100395D01*
X101195D02*
X101495D01*
X101995D02*
X102295D01*
X116695D02*
X117995D01*
X119795D02*
X121095D01*
X141795D02*
X150695D01*
X153495D02*
X154895D01*
X156095D02*
X157395D01*
X94695Y450369D02*
X94995D01*
X95495D02*
X95795D01*
X96495D02*
X97395D01*
X97995D02*
X98195D01*
X98695D02*
X98895D01*
X99495D02*
X100395D01*
X101095D02*
X101395D01*
X101895D02*
X102195D01*
X116695D02*
X117995D01*
X119795D02*
X121095D01*
X141795D02*
X150295D01*
X153495D02*
X154895D01*
X156095D02*
X157395D01*
X94795Y450269D02*
X94995D01*
X95495D02*
X95795D01*
X96495D02*
X97495D01*
X97995D02*
X98195D01*
X98695D02*
X98895D01*
X99395D02*
X100395D01*
X101095D02*
X101395D01*
X101795D02*
X102095D01*
X116695D02*
X117995D01*
X119795D02*
X121095D01*
X141795D02*
X143095D01*
X153495D02*
X154895D01*
X156095D02*
X157395D01*
X94795Y450169D02*
X95095D01*
X95595D02*
X95895D01*
X96495D02*
X97495D01*
X97995D02*
X98195D01*
X98695D02*
X98895D01*
X99395D02*
X100395D01*
X100995D02*
X101295D01*
X101795D02*
X102095D01*
X116795D02*
X118095D01*
X119795D02*
X121095D01*
X141795D02*
X143095D01*
X153495D02*
X154895D01*
X156095D02*
X157395D01*
X94895Y450069D02*
X95195D01*
X95695D02*
X95995D01*
X96595D02*
X97495D01*
X97995D02*
X98195D01*
X98695D02*
X98895D01*
X99395D02*
X100295D01*
X100895D02*
X101195D01*
X101695D02*
X101995D01*
X116795D02*
X118095D01*
X119795D02*
X121095D01*
X141795D02*
X143095D01*
X153495D02*
X154895D01*
X156095D02*
X157395D01*
X94895Y449969D02*
X95195D01*
X95695D02*
X95995D01*
X96595D02*
X97495D01*
X97995D02*
X98195D01*
X98695D02*
X98895D01*
X99295D02*
X100295D01*
X100895D02*
X101195D01*
X101695D02*
X101995D01*
X116795D02*
X118095D01*
X119795D02*
X121095D01*
X141795D02*
X143095D01*
X153495D02*
X154895D01*
X156095D02*
X157395D01*
X94995Y449869D02*
X95295D01*
X95795D02*
X96095D01*
X96595D02*
X97595D01*
X97995D02*
X98195D01*
X98695D02*
X98895D01*
X99295D02*
X100295D01*
X100795D02*
X101095D01*
X101595D02*
X101895D01*
X116795D02*
X118095D01*
X119795D02*
X121095D01*
X141795D02*
X143095D01*
X153495D02*
X154895D01*
X156095D02*
X157395D01*
X165595D02*
X166995D01*
X94995Y449769D02*
X95295D01*
X95795D02*
X96095D01*
X96595D02*
X97595D01*
X97995D02*
X98195D01*
X98695D02*
X98895D01*
X99295D02*
X100295D01*
X100795D02*
X101095D01*
X101595D02*
X101795D01*
X116795D02*
X118095D01*
X119795D02*
X121095D01*
X141795D02*
X143095D01*
X153495D02*
X154895D01*
X156095D02*
X157395D01*
X165595D02*
X166995D01*
X95095Y449669D02*
X95395D01*
X95895D02*
X96195D01*
X96695D02*
X97595D01*
X97995D02*
X98195D01*
X98695D02*
X98895D01*
X99295D02*
X100195D01*
X100695D02*
X100995D01*
X101495D02*
X101795D01*
X107195D02*
X108495D01*
X116795D02*
X118095D01*
X119795D02*
X121095D01*
X141795D02*
X143095D01*
X153495D02*
X154895D01*
X156095D02*
X157395D01*
X165595D02*
X166995D01*
X95195Y449569D02*
X95495D01*
X95895D02*
X96195D01*
X96695D02*
X97695D01*
X97995D02*
X98195D01*
X98695D02*
X98895D01*
X99195D02*
X100195D01*
X100695D02*
X100895D01*
X101395D02*
X101695D01*
X107195D02*
X108595D01*
X116795D02*
X118095D01*
X119795D02*
X121095D01*
X141795D02*
X143095D01*
X153495D02*
X154895D01*
X156095D02*
X157395D01*
X165595D02*
X166995D01*
X95195Y449469D02*
X95495D01*
X95995D02*
X96295D01*
X96695D02*
X97695D01*
X97995D02*
X98195D01*
X98695D02*
X98895D01*
X99195D02*
X100195D01*
X100595D02*
X100895D01*
X101395D02*
X101695D01*
X107195D02*
X108595D01*
X116795D02*
X118095D01*
X119795D02*
X121095D01*
X141795D02*
X143095D01*
X153495D02*
X154895D01*
X156095D02*
X157395D01*
X165595D02*
X166995D01*
X91095Y449369D02*
X91395D01*
X94295D02*
X94495D01*
X95295D02*
X95595D01*
X96095D02*
X96395D01*
X96695D02*
X97695D01*
X97995D02*
X98195D01*
X98695D02*
X98895D01*
X99195D02*
X100095D01*
X100495D02*
X100795D01*
X101295D02*
X101595D01*
X102395D02*
X102595D01*
X105395D02*
X105795D01*
X107195D02*
X108595D01*
X116795D02*
X118095D01*
X119795D02*
X121095D01*
X141795D02*
X143095D01*
X153495D02*
X154895D01*
X156095D02*
X157395D01*
X165595D02*
X166995D01*
X90995Y449269D02*
X91595D01*
X94195D02*
X94595D01*
X95295D02*
X95595D01*
X96095D02*
X96395D01*
X96795D02*
X97695D01*
X97995D02*
X98195D01*
X98695D02*
X98895D01*
X99195D02*
X100095D01*
X100495D02*
X100795D01*
X101295D02*
X101595D01*
X102295D02*
X102695D01*
X105195D02*
X105895D01*
X107195D02*
X108595D01*
X116795D02*
X118095D01*
X119795D02*
X121095D01*
X141795D02*
X143095D01*
X153495D02*
X154895D01*
X156095D02*
X157495D01*
X165595D02*
X166995D01*
X90995Y449169D02*
X91795D01*
X94095D02*
X94695D01*
X95395D02*
X95695D01*
X96195D02*
X96495D01*
X96795D02*
X97795D01*
X97995D02*
X98195D01*
X98695D02*
X98895D01*
X99095D02*
X100095D01*
X100395D02*
X100695D01*
X101195D02*
X101495D01*
X102095D02*
X102795D01*
X105095D02*
X105895D01*
X107195D02*
X108595D01*
X116695D02*
X118095D01*
X119795D02*
X121095D01*
X141795D02*
X143095D01*
X153495D02*
X154895D01*
X156095D02*
X157495D01*
X165595D02*
X166995D01*
X90895Y449069D02*
X91195D01*
X91495D02*
X91995D01*
X93995D02*
X94795D01*
X95395D02*
X95695D01*
X96195D02*
X96495D01*
X96795D02*
X97795D01*
X97995D02*
X98195D01*
X98695D02*
X98895D01*
X99095D02*
X100095D01*
X100395D02*
X100695D01*
X101095D02*
X101395D01*
X101995D02*
X102895D01*
X104895D02*
X105395D01*
X105695D02*
X105995D01*
X107295D02*
X108595D01*
X116695D02*
X118095D01*
X119795D02*
X121095D01*
X141795D02*
X143095D01*
X153495D02*
X154895D01*
X156095D02*
X157495D01*
X165495D02*
X166995D01*
X90895Y448969D02*
X91195D01*
X91695D02*
X92195D01*
X93895D02*
X94895D01*
X95495D02*
X95795D01*
X96295D02*
X96595D01*
X96895D02*
X97795D01*
X97995D02*
X98195D01*
X98695D02*
X98895D01*
X99095D02*
X99995D01*
X100295D02*
X100595D01*
X101095D02*
X101395D01*
X101895D02*
X102995D01*
X104695D02*
X105195D01*
X105695D02*
X105995D01*
X107295D02*
X108695D01*
X116695D02*
X117995D01*
X119795D02*
X121095D01*
X141795D02*
X143095D01*
X153495D02*
X154895D01*
X156095D02*
X157595D01*
X165495D02*
X166895D01*
X90795Y448869D02*
X91095D01*
X91795D02*
X92395D01*
X93895D02*
X94995D01*
X95595D02*
X95895D01*
X96395D02*
X96595D01*
X96895D02*
X97795D01*
X97995D02*
X98195D01*
X98695D02*
X98895D01*
X99095D02*
X99995D01*
X100295D02*
X100495D01*
X100995D02*
X101295D01*
X101795D02*
X102995D01*
X104495D02*
X105095D01*
X105795D02*
X106095D01*
X107295D02*
X108695D01*
X116595D02*
X117995D01*
X119795D02*
X121095D01*
X130195D02*
X131495D01*
X141795D02*
X143095D01*
X153495D02*
X154895D01*
X156095D02*
X157595D01*
X165395D02*
X166895D01*
X90795Y448769D02*
X91195D01*
X91995D02*
X92495D01*
X93895D02*
X95095D01*
X95595D02*
X95895D01*
X96395D02*
X96695D01*
X96895D02*
X97895D01*
X97995D02*
X98195D01*
X98695D02*
X98895D01*
X98995D02*
X99995D01*
X100195D02*
X100495D01*
X100995D02*
X101295D01*
X101695D02*
X102995D01*
X104395D02*
X104895D01*
X105695D02*
X106095D01*
X107295D02*
X108795D01*
X116495D02*
X117995D01*
X119795D02*
X121095D01*
X130195D02*
X131495D01*
X141795D02*
X143095D01*
X153495D02*
X154895D01*
X156195D02*
X157695D01*
X165395D02*
X166895D01*
X90895Y448669D02*
X91395D01*
X92195D02*
X92695D01*
X93995D02*
X95195D01*
X95695D02*
X95995D01*
X96495D02*
X96795D01*
X96895D02*
X97895D01*
X97995D02*
X98195D01*
X98695D02*
X98895D01*
X98995D02*
X99995D01*
X100095D02*
X100395D01*
X100895D02*
X101195D01*
X101595D02*
X102895D01*
X104195D02*
X104695D01*
X105495D02*
X105995D01*
X107395D02*
X108795D01*
X116495D02*
X117995D01*
X119795D02*
X121095D01*
X130195D02*
X131495D01*
X141795D02*
X143095D01*
X153495D02*
X154895D01*
X156195D02*
X157795D01*
X165295D02*
X166895D01*
X90995Y448569D02*
X91495D01*
X92395D02*
X92895D01*
X94095D02*
X95395D01*
X95695D02*
X95995D01*
X96495D02*
X96795D01*
X96995D02*
X97895D01*
X97995D02*
X98195D01*
X98695D02*
X98895D01*
X98995D02*
X99895D01*
X100095D02*
X100395D01*
X100895D02*
X101195D01*
X101495D02*
X102795D01*
X103995D02*
X104495D01*
X105395D02*
X105895D01*
X107395D02*
X108895D01*
X116395D02*
X117895D01*
X119795D02*
X121095D01*
X130195D02*
X131495D01*
X141795D02*
X143095D01*
X153495D02*
X154895D01*
X156195D02*
X157795D01*
X165195D02*
X166895D01*
X91195Y448469D02*
X91695D01*
X92495D02*
X92995D01*
X94095D02*
X95495D01*
X95795D02*
X96095D01*
X96595D02*
X96895D01*
X96995D02*
X97895D01*
X97995D02*
X98195D01*
X98695D02*
X98895D01*
X98995D02*
X99895D01*
X99995D02*
X100295D01*
X100795D02*
X101095D01*
X101395D02*
X102695D01*
X103795D02*
X104395D01*
X105195D02*
X105695D01*
X107395D02*
X108995D01*
X116295D02*
X117895D01*
X119795D02*
X121095D01*
X130195D02*
X131495D01*
X141795D02*
X143095D01*
X153495D02*
X154895D01*
X156295D02*
X157895D01*
X165095D02*
X166795D01*
X91395Y448369D02*
X91895D01*
X92695D02*
X93195D01*
X94195D02*
X95595D01*
X95895D02*
X96195D01*
X96595D02*
X96895D01*
X96995D02*
X99895D01*
X99995D02*
X100295D01*
X100695D02*
X100995D01*
X101295D02*
X102695D01*
X103695D02*
X104195D01*
X104995D02*
X105495D01*
X107495D02*
X109095D01*
X116195D02*
X117895D01*
X119795D02*
X121095D01*
X130195D02*
X131495D01*
X141795D02*
X143095D01*
X153495D02*
X154895D01*
X156295D02*
X158095D01*
X164995D02*
X166795D01*
X91495Y448269D02*
X91995D01*
X92895D02*
X93395D01*
X94295D02*
X95695D01*
X95895D02*
X96195D01*
X96695D02*
X100195D01*
X100695D02*
X100995D01*
X101195D02*
X102595D01*
X103495D02*
X103995D01*
X104895D02*
X105395D01*
X107495D02*
X109195D01*
X115995D02*
X117795D01*
X119795D02*
X121095D01*
X130195D02*
X131495D01*
X141795D02*
X143095D01*
X153495D02*
X154895D01*
X156295D02*
X158195D01*
X164895D02*
X166695D01*
X91695Y448169D02*
X92195D01*
X93095D02*
X93595D01*
X94395D02*
X95795D01*
X95995D02*
X96295D01*
X96795D02*
X96995D01*
X97095D02*
X97995D01*
X98895D02*
X99795D01*
X99895D02*
X100095D01*
X100595D02*
X100895D01*
X101095D02*
X102495D01*
X103295D02*
X103795D01*
X104695D02*
X105195D01*
X107595D02*
X109295D01*
X115795D02*
X117795D01*
X119795D02*
X121095D01*
X130195D02*
X131495D01*
X141795D02*
X143095D01*
X153495D02*
X154895D01*
X156395D02*
X158395D01*
X164695D02*
X166695D01*
X91895Y448069D02*
X92395D01*
X93195D02*
X93695D01*
X94495D02*
X95895D01*
X95995D02*
X96295D01*
X96795D02*
X98095D01*
X98795D02*
X100095D01*
X100595D02*
X100895D01*
X100995D02*
X102395D01*
X103195D02*
X103695D01*
X104495D02*
X104995D01*
X107595D02*
X109495D01*
X115495D02*
X117695D01*
X119795D02*
X121095D01*
X130195D02*
X131495D01*
X141795D02*
X143095D01*
X153495D02*
X154895D01*
X156395D02*
X158795D01*
X164395D02*
X166595D01*
X91995Y447969D02*
X92595D01*
X93395D02*
X93895D01*
X94595D02*
X95995D01*
X96095D02*
X96395D01*
X96595D02*
X98095D01*
X98795D02*
X99795D01*
X99895D02*
X100195D01*
X100495D02*
X100795D01*
X100895D02*
X102295D01*
X102995D02*
X103495D01*
X104295D02*
X104795D01*
X107695D02*
X109795D01*
X110495D02*
X113095D01*
X114895D02*
X117595D01*
X119795D02*
X121095D01*
X130195D02*
X131495D01*
X141795D02*
X143095D01*
X153495D02*
X154895D01*
X156495D02*
X166595D01*
X92195Y447869D02*
X92695D01*
X93595D02*
X94095D01*
X94695D02*
X96095D01*
X96195D02*
X96895D01*
X97095D02*
X98095D01*
X98795D02*
X99695D01*
X99895D02*
X100695D01*
X100795D02*
X102195D01*
X102795D02*
X103295D01*
X104195D02*
X104695D01*
X107795D02*
X117595D01*
X119795D02*
X121095D01*
X130195D02*
X140495D01*
X141795D02*
X143095D01*
X153495D02*
X154895D01*
X156595D02*
X166495D01*
X92395Y447769D02*
X92895D01*
X93695D02*
X94295D01*
X94795D02*
X96795D01*
X97195D02*
X98095D01*
X98795D02*
X99695D01*
X100095D02*
X102095D01*
X102595D02*
X103095D01*
X103995D02*
X104495D01*
X107795D02*
X117495D01*
X119795D02*
X121095D01*
X130195D02*
X140495D01*
X141795D02*
X143095D01*
X153495D02*
X154895D01*
X156595D02*
X166395D01*
X92595Y447669D02*
X93095D01*
X93895D02*
X94395D01*
X94895D02*
X96595D01*
X97195D02*
X98195D01*
X98695D02*
X99695D01*
X100295D02*
X101995D01*
X102495D02*
X102995D01*
X103795D02*
X104295D01*
X107895D02*
X117395D01*
X119795D02*
X121095D01*
X130195D02*
X140495D01*
X141795D02*
X143095D01*
X153495D02*
X154895D01*
X156695D02*
X166395D01*
X92695Y447569D02*
X93195D01*
X94095D02*
X94595D01*
X94995D02*
X96395D01*
X97195D02*
X98195D01*
X98695D02*
X99695D01*
X100495D02*
X101895D01*
X102295D02*
X102795D01*
X103595D02*
X104195D01*
X107995D02*
X117295D01*
X119795D02*
X121095D01*
X130195D02*
X140495D01*
X141795D02*
X143095D01*
X153495D02*
X154895D01*
X156795D02*
X166295D01*
X92895Y447469D02*
X93395D01*
X94295D02*
X94795D01*
X95095D02*
X96495D01*
X97295D02*
X98195D01*
X98695D02*
X99595D01*
X100395D02*
X101795D01*
X102095D02*
X102595D01*
X103495D02*
X103995D01*
X108095D02*
X117295D01*
X119795D02*
X121095D01*
X130195D02*
X140495D01*
X141795D02*
X143095D01*
X153495D02*
X154895D01*
X156895D02*
X166195D01*
X93095Y447369D02*
X93595D01*
X94395D02*
X94895D01*
X95195D02*
X96595D01*
X97295D02*
X98195D01*
X98695D02*
X99595D01*
X100295D02*
X101695D01*
X101895D02*
X102495D01*
X103295D02*
X103795D01*
X108195D02*
X117195D01*
X119795D02*
X121095D01*
X130195D02*
X140495D01*
X141795D02*
X143095D01*
X153495D02*
X154895D01*
X156995D02*
X166095D01*
X93195Y447269D02*
X93795D01*
X94595D02*
X95095D01*
X95295D02*
X96695D01*
X97295D02*
X99595D01*
X100195D02*
X101595D01*
X101795D02*
X102295D01*
X103095D02*
X103595D01*
X108295D02*
X117095D01*
X119795D02*
X121095D01*
X130195D02*
X140495D01*
X141795D02*
X143095D01*
X153495D02*
X154895D01*
X157095D02*
X165995D01*
X93395Y447169D02*
X93895D01*
X94795D02*
X95295D01*
X95395D02*
X96795D01*
X97295D02*
X99595D01*
X100095D02*
X101495D01*
X101595D02*
X102095D01*
X102995D02*
X103495D01*
X108495D02*
X116895D01*
X119795D02*
X121095D01*
X130195D02*
X140495D01*
X141795D02*
X143095D01*
X153595D02*
X154895D01*
X157195D02*
X165795D01*
X93595Y447069D02*
X94095D01*
X94895D02*
X95395D01*
X95495D02*
X96895D01*
X97395D02*
X99595D01*
X99995D02*
X101895D01*
X102795D02*
X103295D01*
X108595D02*
X116795D01*
X119795D02*
X121095D01*
X130195D02*
X140495D01*
X141795D02*
X143095D01*
X153595D02*
X154895D01*
X157395D02*
X165695D01*
X93795Y446969D02*
X94295D01*
X95095D02*
X96995D01*
X97195D02*
X99695D01*
X99895D02*
X101795D01*
X102595D02*
X103095D01*
X108795D02*
X116595D01*
X119795D02*
X121095D01*
X130195D02*
X140495D01*
X141795D02*
X143095D01*
X153595D02*
X154895D01*
X157495D02*
X165595D01*
X93895Y446869D02*
X94495D01*
X95295D02*
X101595D01*
X102395D02*
X102895D01*
X108995D02*
X116395D01*
X119795D02*
X121095D01*
X130195D02*
X140495D01*
X141795D02*
X143095D01*
X153595D02*
X154895D01*
X157695D02*
X165395D01*
X92595Y446769D02*
X92895D01*
X94095D02*
X94595D01*
X95395D02*
X95695D01*
X95795D02*
X101095D01*
X101195D02*
X101495D01*
X102295D02*
X102795D01*
X103995D02*
X104295D01*
X109395D02*
X116195D01*
X119795D02*
X121095D01*
X130195D02*
X140495D01*
X141795D02*
X143095D01*
X153595D02*
X154895D01*
X157895D02*
X165095D01*
X92595Y446669D02*
X93295D01*
X94295D02*
X94795D01*
X95295D02*
X95595D01*
X95895D02*
X100995D01*
X101295D02*
X101595D01*
X102095D02*
X102595D01*
X103595D02*
X104295D01*
X110595D02*
X115795D01*
X119795D02*
X121095D01*
X130195D02*
X140495D01*
X141795D02*
X143095D01*
X153595D02*
X154895D01*
X158295D02*
X164795D01*
X92495Y446569D02*
X93695D01*
X94495D02*
X94995D01*
X95295D02*
X95595D01*
X95995D02*
X100895D01*
X101295D02*
X101595D01*
X101895D02*
X102395D01*
X103195D02*
X104395D01*
X159495D02*
X163395D01*
X92495Y446469D02*
X94095D01*
X94595D02*
X95495D01*
X96095D02*
X100795D01*
X101395D02*
X102195D01*
X102895D02*
X104395D01*
X92495Y446369D02*
X94395D01*
X94795D02*
X95395D01*
X96195D02*
X100695D01*
X101495D02*
X101995D01*
X102495D02*
X104395D01*
X92495Y446269D02*
X94795D01*
X94995D02*
X95295D01*
X96295D02*
X100595D01*
X101495D02*
X101795D01*
X102095D02*
X104395D01*
X92395Y446169D02*
X95195D01*
X96295D02*
X100595D01*
X101695D02*
X104395D01*
X92395Y446069D02*
X95495D01*
X96295D02*
X100595D01*
X101395D02*
X104395D01*
X92395Y445969D02*
X95895D01*
X96195D02*
X100695D01*
X100995D02*
X104395D01*
X92695Y445869D02*
X104095D01*
X93095Y445769D02*
X103795D01*
X93495Y445669D02*
X103395D01*
X93795Y445569D02*
X103095D01*
X94195Y445469D02*
X102695D01*
X94595Y445369D02*
X98195D01*
X98695D02*
X102295D01*
X94995Y445269D02*
X97995D01*
X98795D02*
X101895D01*
X89895Y445169D02*
X94995D01*
X95295D02*
X97895D01*
X98895D02*
X169095D01*
X89895Y445069D02*
X94995D01*
X95695D02*
X97895D01*
X98995D02*
X169095D01*
X89895Y444969D02*
X89995D01*
X94795D02*
X94995D01*
X95895D02*
X97795D01*
X98995D02*
X169095D01*
X89895Y444869D02*
X89995D01*
X94795D02*
X94995D01*
X95995D02*
X97795D01*
X89895Y444769D02*
X89995D01*
X94795D02*
X94995D01*
X95995D02*
X97795D01*
X89895Y444669D02*
X89995D01*
X94795D02*
X94995D01*
X95895D02*
X97795D01*
X98995D02*
X169095D01*
X89895Y444569D02*
X94995D01*
X95695D02*
X97895D01*
X98995D02*
X169095D01*
X89895Y444469D02*
X94995D01*
X95395D02*
X97895D01*
X98895D02*
X169095D01*
X94995Y444369D02*
X97995D01*
X98795D02*
X101895D01*
X94595Y444269D02*
X98195D01*
X98695D02*
X102195D01*
X94295Y444169D02*
X102595D01*
X93895Y444069D02*
X102995D01*
X93495Y443969D02*
X103395D01*
X93195Y443869D02*
X103695D01*
X92795Y443769D02*
X104095D01*
X92495Y443669D02*
X95995D01*
X96195D02*
X100695D01*
X100895D02*
X104395D01*
X92395Y443569D02*
X95595D01*
X96295D02*
X100595D01*
X101295D02*
X104395D01*
X92395Y443469D02*
X95195D01*
X96295D02*
X100595D01*
X101695D02*
X104395D01*
X92495Y443369D02*
X94895D01*
X94995D02*
X95295D01*
X96295D02*
X100595D01*
X101495D02*
X101795D01*
X101995D02*
X104395D01*
X92495Y443269D02*
X94495D01*
X94795D02*
X95395D01*
X96195D02*
X100695D01*
X101495D02*
X101995D01*
X102395D02*
X104395D01*
X92495Y443169D02*
X94095D01*
X94695D02*
X95495D01*
X96095D02*
X100795D01*
X101395D02*
X102195D01*
X102795D02*
X104395D01*
X92495Y443069D02*
X93695D01*
X94495D02*
X94995D01*
X95295D02*
X95495D01*
X95995D02*
X100895D01*
X101295D02*
X101595D01*
X101895D02*
X102395D01*
X103195D02*
X104395D01*
X92595Y442969D02*
X93395D01*
X94295D02*
X94795D01*
X95295D02*
X95595D01*
X95895D02*
X100995D01*
X101295D02*
X101595D01*
X101995D02*
X102595D01*
X103495D02*
X104295D01*
X92595Y442869D02*
X92995D01*
X94195D02*
X94695D01*
X95395D02*
X95695D01*
X95795D02*
X101095D01*
X101195D02*
X101495D01*
X102195D02*
X102695D01*
X103995D02*
X104295D01*
X93995Y442769D02*
X94495D01*
X95295D02*
X101595D01*
X102395D02*
X102895D01*
X93795Y442669D02*
X94295D01*
X95195D02*
X96995D01*
X97095D02*
X99695D01*
X99895D02*
X101695D01*
X102595D02*
X103095D01*
X93595Y442569D02*
X94095D01*
X94995D02*
X96895D01*
X97295D02*
X99595D01*
X99995D02*
X101895D01*
X102695D02*
X103295D01*
X108095D02*
X108995D01*
X112595D02*
X113995D01*
X116295D02*
X117195D01*
X119595D02*
X120495D01*
X93495Y442469D02*
X93995D01*
X94795D02*
X95295D01*
X95395D02*
X96795D01*
X97295D02*
X99595D01*
X100095D02*
X101495D01*
X101595D02*
X102095D01*
X102895D02*
X103395D01*
X108095D02*
X108995D01*
X112395D02*
X113895D01*
X116295D02*
X117195D01*
X119595D02*
X120495D01*
X93295Y442369D02*
X93795D01*
X94595D02*
X95095D01*
X95295D02*
X96695D01*
X97295D02*
X99595D01*
X100195D02*
X101595D01*
X101795D02*
X102195D01*
X103095D02*
X103595D01*
X108095D02*
X108995D01*
X112295D02*
X113795D01*
X116295D02*
X117195D01*
X119595D02*
X120495D01*
X93095Y442269D02*
X93595D01*
X94495D02*
X94995D01*
X95195D02*
X96595D01*
X97295D02*
X98295D01*
X98595D02*
X99595D01*
X100295D02*
X101695D01*
X101895D02*
X102395D01*
X103295D02*
X103795D01*
X108095D02*
X108995D01*
X112195D02*
X113695D01*
X116295D02*
X117195D01*
X119595D02*
X120495D01*
X92895Y442169D02*
X93395D01*
X94295D02*
X94795D01*
X95095D02*
X96495D01*
X97295D02*
X98195D01*
X98695D02*
X99595D01*
X100395D02*
X101795D01*
X102095D02*
X102595D01*
X103395D02*
X103995D01*
X108095D02*
X108995D01*
X112095D02*
X113495D01*
X116295D02*
X117195D01*
X119595D02*
X120495D01*
X92795Y442069D02*
X93295D01*
X94095D02*
X94595D01*
X94995D02*
X96395D01*
X97195D02*
X98195D01*
X98695D02*
X99695D01*
X100495D02*
X101895D01*
X102295D02*
X102795D01*
X103595D02*
X104095D01*
X108095D02*
X108995D01*
X111895D02*
X113395D01*
X116295D02*
X117195D01*
X119595D02*
X120495D01*
X92595Y441969D02*
X93095D01*
X93895D02*
X94495D01*
X94895D02*
X96595D01*
X97195D02*
X98195D01*
X98695D02*
X99695D01*
X100295D02*
X101995D01*
X102395D02*
X102895D01*
X103795D02*
X104295D01*
X108095D02*
X108995D01*
X111795D02*
X113295D01*
X116295D02*
X117195D01*
X119595D02*
X120495D01*
X92395Y441869D02*
X92895D01*
X93795D02*
X94295D01*
X94795D02*
X96195D01*
X96295D02*
X96795D01*
X97195D02*
X98095D01*
X98795D02*
X99695D01*
X100095D02*
X101995D01*
X102595D02*
X103095D01*
X103995D02*
X104495D01*
X108095D02*
X108995D01*
X111695D02*
X113195D01*
X116295D02*
X117195D01*
X119595D02*
X120495D01*
X92195Y441769D02*
X92795D01*
X93595D02*
X94095D01*
X94695D02*
X96095D01*
X96195D02*
X96895D01*
X97195D02*
X98095D01*
X98795D02*
X99695D01*
X99995D02*
X100695D01*
X100795D02*
X102095D01*
X102795D02*
X103295D01*
X104095D02*
X104595D01*
X108095D02*
X108995D01*
X111595D02*
X112995D01*
X116295D02*
X117195D01*
X119595D02*
X120495D01*
X92095Y441669D02*
X92595D01*
X93395D02*
X93895D01*
X94595D02*
X95995D01*
X96095D02*
X96395D01*
X96595D02*
X98095D01*
X98795D02*
X99795D01*
X99895D02*
X100295D01*
X100495D02*
X100795D01*
X100895D02*
X102195D01*
X102895D02*
X103495D01*
X104295D02*
X104795D01*
X108095D02*
X108995D01*
X111495D02*
X112895D01*
X116295D02*
X117195D01*
X119595D02*
X120495D01*
X91895Y441569D02*
X92395D01*
X93295D02*
X93795D01*
X94495D02*
X95895D01*
X96095D02*
X96295D01*
X96795D02*
X98095D01*
X98795D02*
X100095D01*
X100595D02*
X100795D01*
X100995D02*
X102295D01*
X103095D02*
X103595D01*
X104495D02*
X104995D01*
X108095D02*
X108995D01*
X111295D02*
X112795D01*
X116295D02*
X117195D01*
X119595D02*
X120495D01*
X91695Y441469D02*
X92195D01*
X93095D02*
X93595D01*
X94395D02*
X95795D01*
X95995D02*
X96295D01*
X96795D02*
X96995D01*
X97095D02*
X97995D01*
X98895D02*
X99795D01*
X99895D02*
X100095D01*
X100595D02*
X100895D01*
X101095D02*
X102395D01*
X103295D02*
X103795D01*
X104695D02*
X105195D01*
X108095D02*
X108995D01*
X111195D02*
X112695D01*
X116295D02*
X117195D01*
X119595D02*
X120495D01*
X91595Y441369D02*
X92095D01*
X92895D02*
X93395D01*
X94295D02*
X95695D01*
X95895D02*
X96195D01*
X96695D02*
X99795D01*
X99895D02*
X100195D01*
X100695D02*
X100995D01*
X101195D02*
X102495D01*
X103495D02*
X103995D01*
X104795D02*
X105295D01*
X108095D02*
X108995D01*
X111095D02*
X112495D01*
X116295D02*
X117195D01*
X119595D02*
X120495D01*
X91395Y441269D02*
X91895D01*
X92695D02*
X93195D01*
X94295D02*
X95595D01*
X95895D02*
X96195D01*
X96695D02*
X96895D01*
X96995D02*
X99895D01*
X99995D02*
X100195D01*
X100695D02*
X100995D01*
X101295D02*
X102595D01*
X103595D02*
X104195D01*
X104995D02*
X105495D01*
X108095D02*
X108995D01*
X110995D02*
X112395D01*
X118995D02*
X121095D01*
X123495D02*
X126295D01*
X91195Y441169D02*
X91695D01*
X92595D02*
X93095D01*
X94195D02*
X95495D01*
X95795D02*
X96095D01*
X96595D02*
X96895D01*
X96995D02*
X97895D01*
X97995D02*
X98195D01*
X98695D02*
X99895D01*
X99995D02*
X100295D01*
X100795D02*
X101095D01*
X101395D02*
X102695D01*
X103795D02*
X104295D01*
X105195D02*
X105695D01*
X108095D02*
X108995D01*
X110795D02*
X112295D01*
X116295D02*
X117195D01*
X118995D02*
X121095D01*
X123295D02*
X126595D01*
X91095Y441069D02*
X91595D01*
X92395D02*
X92895D01*
X94095D02*
X95395D01*
X95795D02*
X95995D01*
X96495D02*
X96795D01*
X96995D02*
X97895D01*
X97995D02*
X98195D01*
X98695D02*
X98895D01*
X98995D02*
X99895D01*
X100095D02*
X100395D01*
X100895D02*
X101095D01*
X101495D02*
X102795D01*
X103995D02*
X104495D01*
X105295D02*
X105795D01*
X108095D02*
X108995D01*
X110695D02*
X112195D01*
X116295D02*
X117195D01*
X118995D02*
X121095D01*
X123095D02*
X126795D01*
X90895Y440969D02*
X91395D01*
X92195D02*
X92695D01*
X93995D02*
X95295D01*
X95695D02*
X95995D01*
X96495D02*
X96795D01*
X96895D02*
X97895D01*
X97995D02*
X98195D01*
X98695D02*
X98895D01*
X98995D02*
X99995D01*
X100095D02*
X100395D01*
X100895D02*
X101195D01*
X101595D02*
X102895D01*
X104195D02*
X104695D01*
X105495D02*
X105995D01*
X108095D02*
X108995D01*
X110595D02*
X112095D01*
X116295D02*
X117195D01*
X118995D02*
X121095D01*
X122995D02*
X126895D01*
X90795Y440869D02*
X91195D01*
X91995D02*
X92495D01*
X93895D02*
X95195D01*
X95595D02*
X95895D01*
X96395D02*
X96695D01*
X96895D02*
X97895D01*
X97995D02*
X98195D01*
X98695D02*
X98895D01*
X98995D02*
X99995D01*
X100195D02*
X100495D01*
X100995D02*
X101295D01*
X101695D02*
X102995D01*
X104295D02*
X104795D01*
X105695D02*
X106095D01*
X108095D02*
X108995D01*
X110495D02*
X111895D01*
X116295D02*
X117195D01*
X118995D02*
X121095D01*
X122895D02*
X126995D01*
X90795Y440769D02*
X91095D01*
X91895D02*
X92395D01*
X93895D02*
X95095D01*
X95595D02*
X95895D01*
X96395D02*
X96595D01*
X96895D02*
X97795D01*
X97995D02*
X98195D01*
X98695D02*
X98895D01*
X99095D02*
X99995D01*
X100195D02*
X100495D01*
X100995D02*
X101295D01*
X101795D02*
X102995D01*
X104495D02*
X104995D01*
X105795D02*
X106095D01*
X108095D02*
X108995D01*
X110295D02*
X111795D01*
X116295D02*
X117195D01*
X118995D02*
X121095D01*
X122795D02*
X127095D01*
X90895Y440669D02*
X91095D01*
X91695D02*
X92195D01*
X93895D02*
X94995D01*
X95495D02*
X95795D01*
X96295D02*
X96595D01*
X96895D02*
X97795D01*
X97995D02*
X98195D01*
X98695D02*
X98895D01*
X99095D02*
X99995D01*
X100295D02*
X100595D01*
X101095D02*
X101395D01*
X101895D02*
X102995D01*
X104695D02*
X105195D01*
X105695D02*
X105995D01*
X108095D02*
X108995D01*
X110195D02*
X111695D01*
X116295D02*
X117195D01*
X118995D02*
X121095D01*
X122795D02*
X127195D01*
X90895Y440569D02*
X91195D01*
X91495D02*
X91995D01*
X93995D02*
X94895D01*
X95495D02*
X95795D01*
X96195D02*
X96495D01*
X96795D02*
X97795D01*
X97995D02*
X98195D01*
X98695D02*
X98895D01*
X99095D02*
X100095D01*
X100395D02*
X100595D01*
X101095D02*
X101395D01*
X101995D02*
X102895D01*
X104895D02*
X105395D01*
X105695D02*
X105995D01*
X108095D02*
X108995D01*
X110095D02*
X111595D01*
X116295D02*
X117195D01*
X118995D02*
X121095D01*
X122695D02*
X127195D01*
X90995Y440469D02*
X91795D01*
X94095D02*
X94795D01*
X95395D02*
X95695D01*
X96195D02*
X96495D01*
X96795D02*
X97795D01*
X97995D02*
X98195D01*
X98695D02*
X98895D01*
X99095D02*
X100095D01*
X100395D02*
X100695D01*
X101195D02*
X101495D01*
X102095D02*
X102795D01*
X104995D02*
X105495D01*
X105595D02*
X105895D01*
X108095D02*
X108995D01*
X109995D02*
X111395D01*
X116295D02*
X117195D01*
X118995D02*
X121095D01*
X122695D02*
X127295D01*
X90995Y440369D02*
X91595D01*
X94195D02*
X94595D01*
X95295D02*
X95595D01*
X96095D02*
X96395D01*
X96795D02*
X97695D01*
X97995D02*
X98195D01*
X98695D02*
X98895D01*
X99195D02*
X100095D01*
X100495D02*
X100795D01*
X101295D02*
X101595D01*
X102195D02*
X102695D01*
X105195D02*
X105895D01*
X108095D02*
X108995D01*
X109795D02*
X111495D01*
X116295D02*
X117195D01*
X119595D02*
X120495D01*
X122695D02*
X123695D01*
X126195D02*
X127295D01*
X91095Y440269D02*
X91395D01*
X94295D02*
X94495D01*
X95295D02*
X95595D01*
X96095D02*
X96395D01*
X96795D02*
X97695D01*
X97995D02*
X98195D01*
X98695D02*
X98895D01*
X99195D02*
X100095D01*
X100495D02*
X100795D01*
X101295D02*
X101595D01*
X102395D02*
X102595D01*
X105395D02*
X105795D01*
X108095D02*
X108995D01*
X109695D02*
X111595D01*
X116295D02*
X117195D01*
X119595D02*
X120495D01*
X122695D02*
X123595D01*
X126295D02*
X127295D01*
X95195Y440169D02*
X95495D01*
X95995D02*
X96295D01*
X96695D02*
X97695D01*
X97995D02*
X98195D01*
X98695D02*
X98895D01*
X99195D02*
X100195D01*
X100595D02*
X100895D01*
X101395D02*
X101695D01*
X108095D02*
X108995D01*
X109595D02*
X111695D01*
X116295D02*
X117195D01*
X119595D02*
X120495D01*
X122695D02*
X123595D01*
X126395D02*
X127295D01*
X95195Y440069D02*
X95495D01*
X95995D02*
X96195D01*
X96695D02*
X97695D01*
X97995D02*
X98195D01*
X98695D02*
X98895D01*
X99195D02*
X100195D01*
X100595D02*
X100895D01*
X101395D02*
X101695D01*
X108095D02*
X108995D01*
X109495D02*
X111695D01*
X116295D02*
X117195D01*
X119595D02*
X120495D01*
X122695D02*
X123595D01*
X126395D02*
X127295D01*
X95095Y439969D02*
X95395D01*
X95895D02*
X96195D01*
X96695D02*
X97595D01*
X97995D02*
X98195D01*
X98695D02*
X98895D01*
X99295D02*
X100195D01*
X100695D02*
X100995D01*
X101495D02*
X101795D01*
X108095D02*
X108995D01*
X109295D02*
X111795D01*
X116295D02*
X117195D01*
X119595D02*
X120495D01*
X122695D02*
X123595D01*
X126395D02*
X127295D01*
X94995Y439869D02*
X95295D01*
X95795D02*
X96095D01*
X96595D02*
X97595D01*
X97995D02*
X98195D01*
X98695D02*
X98895D01*
X99295D02*
X100195D01*
X100795D02*
X101095D01*
X101495D02*
X101795D01*
X108095D02*
X108995D01*
X109195D02*
X111895D01*
X116295D02*
X117195D01*
X119595D02*
X120495D01*
X122695D02*
X123895D01*
X126495D02*
X127295D01*
X94995Y439769D02*
X95295D01*
X95795D02*
X96095D01*
X96595D02*
X97595D01*
X97995D02*
X98195D01*
X98695D02*
X98895D01*
X99295D02*
X100295D01*
X100795D02*
X101095D01*
X101595D02*
X101895D01*
X108095D02*
X108995D01*
X109095D02*
X110595D01*
X110795D02*
X111995D01*
X116295D02*
X117195D01*
X119595D02*
X120495D01*
X122695D02*
X126495D01*
X94895Y439669D02*
X95195D01*
X95695D02*
X95995D01*
X96595D02*
X97495D01*
X97995D02*
X98195D01*
X98695D02*
X98895D01*
X99295D02*
X100295D01*
X100895D02*
X101195D01*
X101695D02*
X101995D01*
X108095D02*
X110395D01*
X110895D02*
X112095D01*
X116295D02*
X117195D01*
X119595D02*
X120495D01*
X122795D02*
X126695D01*
X94895Y439569D02*
X95195D01*
X95695D02*
X95995D01*
X96595D02*
X97495D01*
X97995D02*
X98195D01*
X98695D02*
X98895D01*
X99395D02*
X100295D01*
X100895D02*
X101195D01*
X101695D02*
X101995D01*
X108095D02*
X110295D01*
X110995D02*
X112195D01*
X116295D02*
X117195D01*
X119595D02*
X120495D01*
X122795D02*
X126895D01*
X94795Y439469D02*
X95095D01*
X95595D02*
X95895D01*
X96595D02*
X97495D01*
X97995D02*
X98195D01*
X98695D02*
X98895D01*
X99395D02*
X100295D01*
X100995D02*
X101295D01*
X101795D02*
X102095D01*
X108095D02*
X110195D01*
X110995D02*
X112195D01*
X116295D02*
X117195D01*
X119595D02*
X120495D01*
X122895D02*
X126995D01*
X94795Y439369D02*
X95095D01*
X95495D02*
X95795D01*
X96495D02*
X97495D01*
X97995D02*
X98195D01*
X98695D02*
X98895D01*
X99395D02*
X100395D01*
X100995D02*
X101295D01*
X101795D02*
X102095D01*
X108095D02*
X110095D01*
X111095D02*
X112295D01*
X116295D02*
X117195D01*
X119595D02*
X120495D01*
X122895D02*
X127095D01*
X94695Y439269D02*
X94995D01*
X95495D02*
X95795D01*
X96495D02*
X97395D01*
X97995D02*
X98195D01*
X98695D02*
X98895D01*
X99395D02*
X100395D01*
X101095D02*
X101395D01*
X101895D02*
X102195D01*
X108095D02*
X109895D01*
X111195D02*
X112395D01*
X116295D02*
X117195D01*
X119595D02*
X120495D01*
X122995D02*
X127195D01*
X94595Y439169D02*
X94895D01*
X95395D02*
X95695D01*
X96495D02*
X97395D01*
X97995D02*
X98195D01*
X98695D02*
X98895D01*
X99495D02*
X100395D01*
X101195D02*
X101495D01*
X101895D02*
X102195D01*
X108095D02*
X109795D01*
X111295D02*
X112495D01*
X116295D02*
X117195D01*
X119595D02*
X120495D01*
X123095D02*
X127295D01*
X94595Y439069D02*
X94895D01*
X95395D02*
X95695D01*
X96495D02*
X97395D01*
X97995D02*
X98195D01*
X98695D02*
X98895D01*
X99495D02*
X100395D01*
X101195D02*
X101495D01*
X101995D02*
X102295D01*
X108095D02*
X109695D01*
X111395D02*
X112595D01*
X116295D02*
X117195D01*
X119595D02*
X120495D01*
X123295D02*
X127295D01*
X94495Y438969D02*
X94795D01*
X95295D02*
X95595D01*
X96495D02*
X97395D01*
X97995D02*
X98195D01*
X98695D02*
X98895D01*
X99495D02*
X100395D01*
X101295D02*
X101595D01*
X102095D02*
X102395D01*
X108095D02*
X109595D01*
X111495D02*
X112595D01*
X116295D02*
X117195D01*
X119595D02*
X120495D01*
X123595D02*
X127395D01*
X94495Y438869D02*
X94795D01*
X95295D02*
X95595D01*
X96795D02*
X97295D01*
X97995D02*
X98195D01*
X98695D02*
X98895D01*
X99595D02*
X100095D01*
X101295D02*
X101595D01*
X102095D02*
X102395D01*
X108095D02*
X109495D01*
X111495D02*
X112695D01*
X116295D02*
X117195D01*
X119595D02*
X120495D01*
X126295D02*
X127395D01*
X94395Y438769D02*
X94695D01*
X95195D02*
X95495D01*
X97995D02*
X98195D01*
X98695D02*
X98895D01*
X101395D02*
X101695D01*
X102195D02*
X102495D01*
X108095D02*
X109295D01*
X111595D02*
X112795D01*
X116295D02*
X117195D01*
X119595D02*
X120495D01*
X126495D02*
X127495D01*
X94395Y438669D02*
X94695D01*
X95095D02*
X95395D01*
X97995D02*
X98195D01*
X98695D02*
X98895D01*
X101495D02*
X101795D01*
X102195D02*
X102495D01*
X108095D02*
X109195D01*
X111695D02*
X112895D01*
X116295D02*
X117195D01*
X119595D02*
X120495D01*
X126495D02*
X127495D01*
X94295Y438569D02*
X94595D01*
X95095D02*
X95395D01*
X97995D02*
X98195D01*
X98695D02*
X98895D01*
X101495D02*
X101795D01*
X102295D02*
X102595D01*
X108095D02*
X109095D01*
X111795D02*
X112995D01*
X116295D02*
X117195D01*
X119595D02*
X120495D01*
X122695D02*
X123595D01*
X126595D02*
X127495D01*
X94195Y438469D02*
X94495D01*
X94995D02*
X95295D01*
X97995D02*
X98195D01*
X98695D02*
X98895D01*
X101595D02*
X101895D01*
X102295D02*
X102595D01*
X108095D02*
X108995D01*
X111895D02*
X112995D01*
X116295D02*
X117195D01*
X119595D02*
X120495D01*
X122695D02*
X123595D01*
X126595D02*
X127495D01*
X94195Y438369D02*
X94495D01*
X94995D02*
X95295D01*
X97995D02*
X98195D01*
X98695D02*
X98895D01*
X101595D02*
X101895D01*
X102395D02*
X102695D01*
X108095D02*
X108995D01*
X111895D02*
X113095D01*
X116295D02*
X117195D01*
X119595D02*
X120495D01*
X122695D02*
X123595D01*
X126595D02*
X127495D01*
X94095Y438269D02*
X94395D01*
X94895D02*
X95195D01*
X97995D02*
X98195D01*
X98695D02*
X98895D01*
X101695D02*
X101995D01*
X102495D02*
X102795D01*
X108095D02*
X108995D01*
X111995D02*
X113195D01*
X116295D02*
X117195D01*
X119595D02*
X120495D01*
X122695D02*
X123695D01*
X126495D02*
X127495D01*
X94095Y438169D02*
X94395D01*
X94895D02*
X95095D01*
X97995D02*
X98195D01*
X98695D02*
X98895D01*
X101695D02*
X101995D01*
X102495D02*
X102795D01*
X108095D02*
X108995D01*
X112095D02*
X113295D01*
X116295D02*
X117195D01*
X119595D02*
X120495D01*
X122695D02*
X123695D01*
X126495D02*
X127495D01*
X93995Y438069D02*
X94295D01*
X94795D02*
X95095D01*
X97995D02*
X98195D01*
X98695D02*
X98895D01*
X101795D02*
X102095D01*
X102595D02*
X102895D01*
X108095D02*
X108995D01*
X112195D02*
X113395D01*
X116295D02*
X117195D01*
X119595D02*
X120495D01*
X122695D02*
X123895D01*
X126295D02*
X127395D01*
X93995Y437969D02*
X94295D01*
X94695D02*
X94995D01*
X97995D02*
X98195D01*
X98695D02*
X98895D01*
X101895D02*
X102195D01*
X102595D02*
X102895D01*
X108095D02*
X108995D01*
X112295D02*
X113495D01*
X116295D02*
X117195D01*
X119595D02*
X120495D01*
X122695D02*
X127395D01*
X93895Y437869D02*
X94195D01*
X94695D02*
X94995D01*
X97995D02*
X98195D01*
X98695D02*
X98895D01*
X101895D02*
X102195D01*
X102695D02*
X102995D01*
X108095D02*
X108995D01*
X112295D02*
X113495D01*
X116295D02*
X117195D01*
X119595D02*
X120495D01*
X122795D02*
X127395D01*
X93895Y437769D02*
X94095D01*
X94595D02*
X94895D01*
X97995D02*
X98195D01*
X98695D02*
X98895D01*
X101995D02*
X102295D01*
X102695D02*
X102995D01*
X108095D02*
X108995D01*
X112395D02*
X113595D01*
X116295D02*
X117195D01*
X119595D02*
X120495D01*
X122795D02*
X127295D01*
X93795Y437669D02*
X94095D01*
X94495D02*
X94895D01*
X97995D02*
X98195D01*
X98695D02*
X98895D01*
X101995D02*
X102395D01*
X102795D02*
X103095D01*
X108095D02*
X108995D01*
X112495D02*
X113695D01*
X116295D02*
X117195D01*
X119595D02*
X120495D01*
X122895D02*
X127295D01*
X93795Y437569D02*
X94195D01*
X94495D02*
X94795D01*
X97995D02*
X98195D01*
X98695D02*
X98895D01*
X102095D02*
X102395D01*
X102695D02*
X103095D01*
X108095D02*
X108995D01*
X112595D02*
X113795D01*
X116295D02*
X117195D01*
X119595D02*
X120495D01*
X122995D02*
X127195D01*
X93895Y437469D02*
X94695D01*
X97995D02*
X98195D01*
X98695D02*
X98895D01*
X102095D02*
X102995D01*
X108095D02*
X108995D01*
X112695D02*
X113895D01*
X116295D02*
X117195D01*
X119595D02*
X120495D01*
X123095D02*
X127095D01*
X93995Y437369D02*
X94695D01*
X97995D02*
X98195D01*
X98695D02*
X98895D01*
X102195D02*
X102795D01*
X108095D02*
X108995D01*
X112795D02*
X113895D01*
X116295D02*
X117195D01*
X119595D02*
X120495D01*
X123195D02*
X126995D01*
X94195Y437269D02*
X94595D01*
X97995D02*
X98195D01*
X98695D02*
X98895D01*
X102295D02*
X102695D01*
X108095D02*
X108995D01*
X112795D02*
X113995D01*
X116295D02*
X117195D01*
X119595D02*
X120495D01*
X123395D02*
X126795D01*
X94395Y437169D02*
X94495D01*
X97995D02*
X98195D01*
X98695D02*
X98895D01*
X108095D02*
X108995D01*
X112895D02*
X114095D01*
X116295D02*
X117195D01*
X119595D02*
X120495D01*
X123795D02*
X126595D01*
X97995Y437069D02*
X98195D01*
X98695D02*
X98895D01*
X97995Y436969D02*
X98195D01*
X98695D02*
X98895D01*
X97995Y436869D02*
X98195D01*
X98695D02*
X98895D01*
X97995Y436769D02*
X98195D01*
X98695D02*
X98895D01*
X97995Y436669D02*
X98195D01*
X98695D02*
X98895D01*
X97995Y436569D02*
X98195D01*
X98695D02*
X98895D01*
X97995Y436469D02*
X98195D01*
X98695D02*
X98895D01*
X97995Y436369D02*
X98895D01*
X97995Y436269D02*
X98895D01*
D23*
X221800Y92000D02*
D03*
Y89500D02*
D03*
Y86900D02*
D03*
Y84400D02*
D03*
X231000D02*
D03*
Y86900D02*
D03*
Y89500D02*
D03*
Y92000D02*
D03*
X137800Y91100D02*
D03*
Y88600D02*
D03*
Y86000D02*
D03*
Y83500D02*
D03*
X147000D02*
D03*
Y86000D02*
D03*
Y88600D02*
D03*
Y91100D02*
D03*
X137100Y194000D02*
D03*
Y191500D02*
D03*
Y188900D02*
D03*
Y186400D02*
D03*
X146300D02*
D03*
Y188900D02*
D03*
Y191500D02*
D03*
Y194000D02*
D03*
X222000Y192300D02*
D03*
Y189800D02*
D03*
Y187200D02*
D03*
Y184700D02*
D03*
X231200D02*
D03*
Y187200D02*
D03*
Y189800D02*
D03*
Y192300D02*
D03*
X49900Y280800D02*
D03*
Y278300D02*
D03*
Y275700D02*
D03*
Y273200D02*
D03*
X59100D02*
D03*
Y275700D02*
D03*
Y278300D02*
D03*
Y280800D02*
D03*
X135000Y280500D02*
D03*
Y278000D02*
D03*
Y275400D02*
D03*
Y272900D02*
D03*
X144200D02*
D03*
Y275400D02*
D03*
Y278000D02*
D03*
Y280500D02*
D03*
X221500Y280450D02*
D03*
Y277950D02*
D03*
Y275350D02*
D03*
Y272850D02*
D03*
X230700D02*
D03*
Y275350D02*
D03*
Y277950D02*
D03*
Y280450D02*
D03*
X218300Y358500D02*
D03*
Y356000D02*
D03*
Y353400D02*
D03*
Y350900D02*
D03*
X227500D02*
D03*
Y353400D02*
D03*
Y356000D02*
D03*
Y358500D02*
D03*
D24*
X208100Y191953D02*
D03*
Y186047D02*
D03*
X210100Y279603D02*
D03*
Y273697D02*
D03*
X121000Y279953D02*
D03*
Y274047D02*
D03*
X72500Y280453D02*
D03*
Y274547D02*
D03*
X70500Y396406D02*
D03*
Y390500D02*
D03*
X209000Y90953D02*
D03*
Y85047D02*
D03*
X204500Y357453D02*
D03*
Y351547D02*
D03*
X242500Y90953D02*
D03*
Y85047D02*
D03*
X241100Y191406D02*
D03*
Y185500D02*
D03*
X240600Y280103D02*
D03*
Y274197D02*
D03*
X239500Y357406D02*
D03*
Y351500D02*
D03*
X33500Y280953D02*
D03*
Y275047D02*
D03*
X120500Y90953D02*
D03*
Y85047D02*
D03*
X122600Y193953D02*
D03*
Y188047D02*
D03*
X157500Y89453D02*
D03*
Y83547D02*
D03*
X157100Y192453D02*
D03*
Y186547D02*
D03*
X159000Y280453D02*
D03*
Y274547D02*
D03*
D25*
X108000Y272500D02*
D03*
Y279500D02*
D03*
X196500Y84000D02*
D03*
Y91000D02*
D03*
X196100Y185500D02*
D03*
Y192500D02*
D03*
X198100Y273650D02*
D03*
Y280650D02*
D03*
X192500Y351000D02*
D03*
Y358000D02*
D03*
X257000Y83000D02*
D03*
Y90000D02*
D03*
X254600Y183500D02*
D03*
Y190500D02*
D03*
X254100Y273150D02*
D03*
Y280150D02*
D03*
X255500Y351000D02*
D03*
Y358000D02*
D03*
X15000Y274500D02*
D03*
Y281500D02*
D03*
X102500Y83500D02*
D03*
Y90500D02*
D03*
X108100Y187000D02*
D03*
Y194000D02*
D03*
X90000Y273500D02*
D03*
Y280500D02*
D03*
X175000Y82500D02*
D03*
Y89500D02*
D03*
X175600Y185000D02*
D03*
Y192000D02*
D03*
X178500Y273500D02*
D03*
Y280500D02*
D03*
D26*
X126453Y353500D02*
D03*
X120547D02*
D03*
D27*
X242500Y24000D02*
D03*
Y14000D02*
D03*
X232500Y24000D02*
D03*
Y14000D02*
D03*
X222500Y24000D02*
D03*
Y14000D02*
D03*
X212500Y24000D02*
D03*
Y14000D02*
D03*
X202500Y24000D02*
D03*
Y14000D02*
D03*
X192500Y24000D02*
D03*
Y14000D02*
D03*
X182500Y24000D02*
D03*
Y14000D02*
D03*
X172500Y24000D02*
D03*
Y14000D02*
D03*
X162500Y24000D02*
D03*
Y14000D02*
D03*
X152500Y24000D02*
D03*
Y14000D02*
D03*
X142500Y24000D02*
D03*
Y14000D02*
D03*
X132500Y24000D02*
D03*
Y14000D02*
D03*
X122500Y24000D02*
D03*
Y14000D02*
D03*
X112500Y24000D02*
D03*
Y14000D02*
D03*
X102500Y24000D02*
D03*
Y14000D02*
D03*
X92500Y24000D02*
D03*
Y14000D02*
D03*
X82500Y24000D02*
D03*
Y14000D02*
D03*
X72500Y24000D02*
D03*
Y14000D02*
D03*
X62500Y24000D02*
D03*
Y14000D02*
D03*
X52500Y24000D02*
D03*
Y14000D02*
D03*
X42500D02*
D03*
X32500Y24000D02*
D03*
X42500D02*
D03*
X32500Y419374D02*
D03*
Y429374D02*
D03*
X42500Y419374D02*
D03*
Y429374D02*
D03*
X52500Y419374D02*
D03*
Y429374D02*
D03*
X62500Y419374D02*
D03*
Y429374D02*
D03*
X72500Y419374D02*
D03*
Y429374D02*
D03*
X82500Y419374D02*
D03*
Y429374D02*
D03*
X92500Y419374D02*
D03*
Y429374D02*
D03*
X102500Y419374D02*
D03*
Y429374D02*
D03*
X112500Y419374D02*
D03*
Y429374D02*
D03*
X122500Y419374D02*
D03*
Y429374D02*
D03*
X132500Y419374D02*
D03*
Y429374D02*
D03*
X142500Y419374D02*
D03*
Y429374D02*
D03*
X152500Y419374D02*
D03*
Y429374D02*
D03*
X162500Y419374D02*
D03*
Y429374D02*
D03*
X172500Y419374D02*
D03*
Y429374D02*
D03*
X182500Y419374D02*
D03*
Y429374D02*
D03*
X192500Y419374D02*
D03*
Y429374D02*
D03*
X202500Y419374D02*
D03*
Y429374D02*
D03*
X212500Y419374D02*
D03*
Y429374D02*
D03*
X222500Y419374D02*
D03*
Y429374D02*
D03*
X232500D02*
D03*
X242500Y419374D02*
D03*
X232500D02*
D03*
X28000Y321000D02*
D03*
X31000Y247500D02*
D03*
X171500Y48500D02*
D03*
X172500Y122000D02*
D03*
X172000Y161000D02*
D03*
X166000Y245500D02*
D03*
X101000Y321500D02*
D03*
X100500Y245500D02*
D03*
X230500Y48000D02*
D03*
X232000Y120000D02*
D03*
X232500Y161500D02*
D03*
X103000Y162500D02*
D03*
X167000Y319000D02*
D03*
X231000Y243000D02*
D03*
X230500Y320500D02*
D03*
X229500Y393500D02*
D03*
D28*
X32500Y14000D02*
D03*
X242500Y429374D02*
D03*
X18000Y321000D02*
D03*
X21000Y247500D02*
D03*
X161500Y48500D02*
D03*
X162500Y122000D02*
D03*
X162000Y161000D02*
D03*
X156000Y245500D02*
D03*
X91000Y321500D02*
D03*
X90500Y245500D02*
D03*
X220500Y48000D02*
D03*
X222000Y120000D02*
D03*
X222500Y161500D02*
D03*
X93000Y162500D02*
D03*
X157000Y319000D02*
D03*
X221000Y243000D02*
D03*
X220500Y320500D02*
D03*
X219500Y393500D02*
D03*
D29*
X87000D02*
D03*
Y383500D02*
D03*
Y373500D02*
D03*
D30*
X157000Y383500D02*
D03*
D31*
X56000Y384500D02*
D03*
D32*
X32378D02*
D03*
D33*
X44189Y365996D02*
D03*
D34*
X222000Y106000D02*
D03*
X179000Y100000D02*
D03*
X180500Y210000D02*
D03*
X236000Y206000D02*
D03*
X266000Y286000D02*
D03*
X168000Y295000D02*
D03*
X196000Y298500D02*
D03*
X112500Y314500D02*
D03*
X91500Y304000D02*
D03*
X206000Y267500D02*
D03*
X222000Y285000D02*
D03*
X128000Y331000D02*
D03*
X114000Y347000D02*
D03*
X197600Y35300D02*
D03*
X196900Y126495D02*
D03*
X112500Y74274D02*
D03*
X79000Y39300D02*
D03*
X131247Y193953D02*
D03*
X140600Y78800D02*
D03*
X47500Y6200D02*
D03*
X27500Y274800D02*
D03*
X237500Y9400D02*
D03*
X127900Y55000D02*
D03*
X222250Y97100D02*
D03*
X74900Y257700D02*
D03*
X178900Y314100D02*
D03*
X68700Y262600D02*
D03*
X233600Y357600D02*
D03*
X202000Y185800D02*
D03*
X177500Y27600D02*
D03*
X245200Y30500D02*
D03*
X172000Y40500D02*
D03*
X230500Y39500D02*
D03*
X232000Y111000D02*
D03*
X232500Y153000D02*
D03*
X172000Y152500D02*
D03*
X173000Y113500D02*
D03*
X103500Y154500D02*
D03*
X166500Y237000D02*
D03*
X28000Y312500D02*
D03*
X101000Y312000D02*
D03*
X229500Y385000D02*
D03*
X230000Y312000D02*
D03*
X167000Y310000D02*
D03*
X231000Y234500D02*
D03*
X100500Y236500D02*
D03*
X31000Y238500D02*
D03*
M02*
