G04*
G04 #@! TF.GenerationSoftware,Altium Limited,Altium Designer,19.1.5 (86)*
G04*
G04 Layer_Color=8388736*
%FSLAX25Y25*%
%MOIN*%
G70*
G01*
G75*
%ADD17C,0.00400*%
%ADD18R,0.11811X0.62992*%
%ADD19R,0.05800X0.07300*%
%ADD20R,0.04800X0.06300*%
%ADD21C,0.06706*%
%ADD22R,0.06706X0.06706*%
%ADD23R,0.06706X0.06706*%
%ADD24C,0.05800*%
%ADD25C,0.03162*%
D17*
X89937Y52500D02*
X90937D01*
X89937Y53300D02*
X90937D01*
X89937Y54900D02*
X90937D01*
X89937Y54100D02*
X90937D01*
X89937Y57300D02*
X90937D01*
X89937Y58100D02*
X90937D01*
X89937Y56500D02*
X90937D01*
X89937Y55700D02*
X90937D01*
X89937Y62100D02*
X90937D01*
X89937Y62900D02*
X90937D01*
X89937Y64500D02*
X90937D01*
X89937Y63700D02*
X90937D01*
X89937Y60500D02*
X90937D01*
X89937Y61300D02*
X90937D01*
X89937Y59700D02*
X90937D01*
X89937Y58900D02*
X90937D01*
X89937Y71700D02*
X90937D01*
X89937Y72500D02*
X90937D01*
X89937Y74100D02*
X90937D01*
X89937Y73300D02*
X90937D01*
X89937Y76500D02*
X90937D01*
X89937Y77300D02*
X90937D01*
X89937Y75700D02*
X90937D01*
X89937Y74900D02*
X90937D01*
X89937Y68500D02*
X90937D01*
X89937Y69300D02*
X90937D01*
X89937Y70900D02*
X90937D01*
X89937Y70100D02*
X90937D01*
X89937Y66900D02*
X90937D01*
X89937Y67700D02*
X90937D01*
X89937Y66100D02*
X90937D01*
X89937Y65300D02*
X90937D01*
X89937Y84500D02*
X90937D01*
X89937Y85300D02*
X90937D01*
X89937Y86900D02*
X90937D01*
X89937Y86100D02*
X90937D01*
X89937Y89300D02*
X90937D01*
X89937Y90100D02*
X90937D01*
X89937Y88500D02*
X90937D01*
X89937Y87700D02*
X90937D01*
X89937Y81300D02*
X90937D01*
X89937Y82100D02*
X90937D01*
X89937Y83700D02*
X90937D01*
X89937Y82900D02*
X90937D01*
X89937Y79700D02*
X90937D01*
X89937Y80500D02*
X90937D01*
X89937Y78900D02*
X90937D01*
X89937Y78100D02*
X90937D01*
X69063Y64437D02*
X70063D01*
X69063Y63637D02*
X70063D01*
X69063Y62037D02*
X70063D01*
X69063Y62837D02*
X70063D01*
X69063Y59637D02*
X70063D01*
X69063Y58837D02*
X70063D01*
X69063Y60437D02*
X70063D01*
X69063Y61237D02*
X70063D01*
X69063Y54837D02*
X70063D01*
X69063Y54037D02*
X70063D01*
X69063Y52437D02*
X70063D01*
X69063Y53237D02*
X70063D01*
X69063Y56437D02*
X70063D01*
X69063Y55637D02*
X70063D01*
X69063Y57237D02*
X70063D01*
X69063Y58037D02*
X70063D01*
X69063Y77237D02*
X70063D01*
X69063Y76437D02*
X70063D01*
X69063Y74837D02*
X70063D01*
X69063Y75637D02*
X70063D01*
X69063Y72437D02*
X70063D01*
X69063Y71637D02*
X70063D01*
X69063Y73237D02*
X70063D01*
X69063Y74037D02*
X70063D01*
X69063Y67637D02*
X70063D01*
X69063Y66837D02*
X70063D01*
X69063Y65237D02*
X70063D01*
X69063Y66037D02*
X70063D01*
X69063Y69237D02*
X70063D01*
X69063Y68437D02*
X70063D01*
X69063Y70037D02*
X70063D01*
X69063Y70837D02*
X70063D01*
X69063Y83637D02*
X70063D01*
X69063Y82837D02*
X70063D01*
X69063Y81237D02*
X70063D01*
X69063Y82037D02*
X70063D01*
X69063Y78837D02*
X70063D01*
X69063Y78037D02*
X70063D01*
X69063Y79637D02*
X70063D01*
X69063Y80437D02*
X70063D01*
X69063Y86837D02*
X70063D01*
X69063Y86037D02*
X70063D01*
X69063Y84437D02*
X70063D01*
X69063Y85237D02*
X70063D01*
X69063Y88437D02*
X70063D01*
X69063Y87637D02*
X70063D01*
X69063Y89237D02*
X70063D01*
X69063Y90037D02*
X70063D01*
D18*
X80094Y79996D02*
D03*
D19*
X76500Y43600D02*
D03*
D20*
X83500D02*
D03*
D21*
X25000Y145000D02*
D03*
X35000D02*
D03*
X45000D02*
D03*
X55000D02*
D03*
X65000D02*
D03*
X75000D02*
D03*
X85000D02*
D03*
X95000D02*
D03*
X105000D02*
D03*
X115000D02*
D03*
X125000D02*
D03*
X135000D02*
D03*
X25000Y155000D02*
D03*
X35000D02*
D03*
X45000D02*
D03*
X55000D02*
D03*
X65000D02*
D03*
X75000D02*
D03*
X85000D02*
D03*
X95000D02*
D03*
X105000D02*
D03*
X115000D02*
D03*
X125000D02*
D03*
X145000Y135000D02*
D03*
Y125000D02*
D03*
Y115000D02*
D03*
Y105000D02*
D03*
Y95000D02*
D03*
Y85000D02*
D03*
Y75000D02*
D03*
Y65000D02*
D03*
Y55000D02*
D03*
Y45000D02*
D03*
Y35000D02*
D03*
Y25000D02*
D03*
X155000Y135000D02*
D03*
Y125000D02*
D03*
Y115000D02*
D03*
Y105000D02*
D03*
Y95000D02*
D03*
Y85000D02*
D03*
Y75000D02*
D03*
Y65000D02*
D03*
Y55000D02*
D03*
Y45000D02*
D03*
Y35000D02*
D03*
X135000Y15000D02*
D03*
X125000D02*
D03*
X115000D02*
D03*
X105000D02*
D03*
X95000D02*
D03*
X85000D02*
D03*
X75000D02*
D03*
X65000D02*
D03*
X55000D02*
D03*
X45000D02*
D03*
X35000D02*
D03*
X25000D02*
D03*
X135000Y5000D02*
D03*
X125000D02*
D03*
X115000D02*
D03*
X105000D02*
D03*
X95000D02*
D03*
X85000D02*
D03*
X75000D02*
D03*
X65000D02*
D03*
X55000D02*
D03*
X45000D02*
D03*
X35000D02*
D03*
X15000Y25000D02*
D03*
Y35000D02*
D03*
Y45000D02*
D03*
Y55000D02*
D03*
Y65000D02*
D03*
Y75000D02*
D03*
Y85000D02*
D03*
Y95000D02*
D03*
Y105000D02*
D03*
Y115000D02*
D03*
Y125000D02*
D03*
Y135000D02*
D03*
X5000Y25000D02*
D03*
Y35000D02*
D03*
Y45000D02*
D03*
Y55000D02*
D03*
Y65000D02*
D03*
Y75000D02*
D03*
Y85000D02*
D03*
Y95000D02*
D03*
Y105000D02*
D03*
Y115000D02*
D03*
Y125000D02*
D03*
D22*
X135000Y155000D02*
D03*
X25000Y5000D02*
D03*
D23*
X155000Y25000D02*
D03*
X5000Y135000D02*
D03*
D24*
X144000Y11000D02*
D03*
X152000D02*
D03*
D25*
X82862Y53760D02*
D03*
X77350Y108925D02*
D03*
X85000Y126000D02*
D03*
X81500D02*
D03*
X74500D02*
D03*
X78000D02*
D03*
X71000D02*
D03*
X89500D02*
D03*
X93000D02*
D03*
X100000D02*
D03*
X96500D02*
D03*
X103500D02*
D03*
X107000D02*
D03*
X129000Y88500D02*
D03*
Y92000D02*
D03*
Y102500D02*
D03*
Y99000D02*
D03*
Y95500D02*
D03*
Y85000D02*
D03*
X125000Y73500D02*
D03*
X122500Y71500D02*
D03*
X120500Y69000D02*
D03*
X129000Y82000D02*
D03*
X127000Y76000D02*
D03*
X129000Y78500D02*
D03*
X81000Y30500D02*
D03*
X77500Y30000D02*
D03*
X74000D02*
D03*
X70500D02*
D03*
X67000D02*
D03*
X64500Y32500D02*
D03*
X62000Y35000D02*
D03*
X60000Y38000D02*
D03*
X58000Y40500D02*
D03*
Y44000D02*
D03*
Y47500D02*
D03*
Y51000D02*
D03*
X26000D02*
D03*
X28500Y53500D02*
D03*
X33500Y58500D02*
D03*
X36000Y61000D02*
D03*
X31000Y56000D02*
D03*
X54000Y79500D02*
D03*
X38500Y63500D02*
D03*
X41000Y66000D02*
D03*
X43500Y68500D02*
D03*
X46000Y71000D02*
D03*
X48500Y74000D02*
D03*
X51500Y76500D02*
D03*
X74594Y106169D02*
D03*
X77350D02*
D03*
X82862D02*
D03*
X85618D02*
D03*
X80106D02*
D03*
X74594Y103414D02*
D03*
X77350D02*
D03*
X82862D02*
D03*
X85618D02*
D03*
X80106D02*
D03*
X74594Y108925D02*
D03*
X82862D02*
D03*
X85618D02*
D03*
X80106D02*
D03*
Y100658D02*
D03*
X85618D02*
D03*
X82862D02*
D03*
X77350D02*
D03*
X74594D02*
D03*
Y92390D02*
D03*
X77350D02*
D03*
X82862D02*
D03*
X85618D02*
D03*
X80106D02*
D03*
Y89634D02*
D03*
X85618D02*
D03*
X82862D02*
D03*
X77350D02*
D03*
X74594D02*
D03*
X80106Y86866D02*
D03*
X85618D02*
D03*
X82862D02*
D03*
X77350D02*
D03*
X74594D02*
D03*
Y81354D02*
D03*
X77350D02*
D03*
X82862D02*
D03*
X85618D02*
D03*
X80106D02*
D03*
Y78599D02*
D03*
X85618D02*
D03*
X82862D02*
D03*
X77350D02*
D03*
X74594D02*
D03*
Y73075D02*
D03*
X77350D02*
D03*
X82862D02*
D03*
X85618D02*
D03*
X80106D02*
D03*
Y75831D02*
D03*
X85618D02*
D03*
X82862D02*
D03*
X77350D02*
D03*
X74594D02*
D03*
Y95134D02*
D03*
X77350D02*
D03*
X82862D02*
D03*
X85618D02*
D03*
X80106D02*
D03*
Y84110D02*
D03*
X85618D02*
D03*
X82862D02*
D03*
X77350D02*
D03*
X74594D02*
D03*
Y97902D02*
D03*
X77350D02*
D03*
X82862D02*
D03*
X85618D02*
D03*
X80106D02*
D03*
Y100658D02*
D03*
X85618D02*
D03*
X82862D02*
D03*
X77350D02*
D03*
X74594D02*
D03*
Y70319D02*
D03*
X77350D02*
D03*
X82862D02*
D03*
X85618D02*
D03*
X80106D02*
D03*
Y67563D02*
D03*
X85618D02*
D03*
X82862D02*
D03*
X77350D02*
D03*
X74594D02*
D03*
Y62039D02*
D03*
X77350D02*
D03*
X82862D02*
D03*
X85618D02*
D03*
X80106D02*
D03*
Y64795D02*
D03*
X85618D02*
D03*
X82862D02*
D03*
X77350D02*
D03*
X74594D02*
D03*
Y53760D02*
D03*
X77350D02*
D03*
X85618D02*
D03*
X80106D02*
D03*
Y51004D02*
D03*
X85618D02*
D03*
X82862D02*
D03*
X77350D02*
D03*
X74594D02*
D03*
Y56528D02*
D03*
X77350D02*
D03*
X82862D02*
D03*
X85618D02*
D03*
X80106D02*
D03*
Y59283D02*
D03*
X85618D02*
D03*
X82862D02*
D03*
X77350D02*
D03*
X74594D02*
D03*
M02*
