G04*
G04 #@! TF.GenerationSoftware,Altium Limited,Altium Designer,19.1.5 (86)*
G04*
G04 Layer_Physical_Order=1*
G04 Layer_Color=255*
%FSLAX25Y25*%
%MOIN*%
G70*
G01*
G75*
%ADD11C,0.01000*%
%ADD15R,0.05000X0.06500*%
%ADD16R,0.04000X0.05500*%
%ADD17C,0.00400*%
%ADD26C,0.02000*%
%ADD27C,0.00300*%
%ADD28R,0.14496X0.68433*%
%ADD29C,0.05906*%
%ADD30R,0.05906X0.05906*%
%ADD31R,0.05906X0.05906*%
%ADD32C,0.05000*%
%ADD33C,0.02362*%
G36*
X81423Y139423D02*
X81688Y139246D01*
X82000Y139184D01*
X82000Y139184D01*
X87662D01*
X88488Y138358D01*
X88297Y137896D01*
X73257D01*
X71615Y139538D01*
X71807Y140000D01*
X80847D01*
X81423Y139423D01*
D02*
G37*
G36*
X100923Y139423D02*
X100923Y139423D01*
X101188Y139246D01*
X101500Y139184D01*
X101500Y139184D01*
X109462D01*
X110623Y138024D01*
X110431Y137562D01*
X94092D01*
X92115Y139538D01*
X92307Y140000D01*
X100347D01*
X100923Y139423D01*
D02*
G37*
G36*
X59423Y139923D02*
X63588Y135758D01*
X63397Y135296D01*
X55857D01*
X51616Y139538D01*
X51807Y140000D01*
X59372D01*
X59423Y139923D01*
D02*
G37*
G36*
X49246Y139688D02*
X49423Y139423D01*
X54388Y134458D01*
X54197Y133996D01*
X47657D01*
X42116Y139538D01*
X42307Y140000D01*
X49184D01*
X49246Y139688D01*
D02*
G37*
G36*
X39746D02*
X39923Y139423D01*
X46188Y133158D01*
X45997Y132696D01*
X38957D01*
X32116Y139538D01*
X32307Y140000D01*
X39684D01*
X39746Y139688D01*
D02*
G37*
G36*
X89285Y128369D02*
X89549Y128193D01*
X89862Y128130D01*
X89862Y128130D01*
X107379D01*
X107710Y127756D01*
X107237Y127463D01*
X107000Y127510D01*
X106422Y127395D01*
X105932Y127068D01*
X105605Y126578D01*
X105555Y126328D01*
X105002Y126108D01*
X104986Y126119D01*
X104895Y126578D01*
X104568Y127068D01*
X104078Y127395D01*
X103500Y127510D01*
X102922Y127395D01*
X102432Y127068D01*
X102105Y126578D01*
X102055Y126328D01*
X101502Y126108D01*
X101486Y126119D01*
X101395Y126578D01*
X101068Y127068D01*
X100578Y127395D01*
X100000Y127510D01*
X99422Y127395D01*
X98932Y127068D01*
X98605Y126578D01*
X98555Y126328D01*
X98002Y126108D01*
X97986Y126119D01*
X97895Y126578D01*
X97568Y127068D01*
X97078Y127395D01*
X96500Y127510D01*
X95922Y127395D01*
X95432Y127068D01*
X95105Y126578D01*
X95055Y126328D01*
X94502Y126108D01*
X94486Y126119D01*
X94395Y126578D01*
X94068Y127068D01*
X93578Y127395D01*
X93000Y127510D01*
X92422Y127395D01*
X91932Y127068D01*
X91605Y126578D01*
X91555Y126328D01*
X91002Y126108D01*
X90986Y126119D01*
X90895Y126578D01*
X90568Y127068D01*
X90078Y127395D01*
X89500Y127510D01*
X88922Y127395D01*
X88432Y127068D01*
X88105Y126578D01*
X87990Y126000D01*
X88105Y125422D01*
X88432Y124932D01*
X88922Y124605D01*
X89500Y124490D01*
X89797Y124549D01*
X90238Y124108D01*
X90047Y123646D01*
X89007D01*
X86475Y126179D01*
X86395Y126578D01*
X86068Y127068D01*
X85578Y127395D01*
X85000Y127510D01*
X84422Y127395D01*
X83932Y127068D01*
X83605Y126578D01*
X83555Y126328D01*
X83002Y126108D01*
X82986Y126119D01*
X82895Y126578D01*
X82568Y127068D01*
X82078Y127395D01*
X81500Y127510D01*
X80922Y127395D01*
X80432Y127068D01*
X80105Y126578D01*
X80055Y126328D01*
X79502Y126108D01*
X79486Y126119D01*
X79395Y126578D01*
X79068Y127068D01*
X78578Y127395D01*
X78000Y127510D01*
X77422Y127395D01*
X76932Y127068D01*
X76605Y126578D01*
X76555Y126328D01*
X76002Y126108D01*
X75986Y126119D01*
X75895Y126578D01*
X75568Y127068D01*
X75078Y127395D01*
X74500Y127510D01*
X73922Y127395D01*
X73432Y127068D01*
X73105Y126578D01*
X73055Y126328D01*
X72502Y126108D01*
X72486Y126119D01*
X72395Y126578D01*
X72068Y127068D01*
X71578Y127395D01*
X71000Y127510D01*
X70422Y127395D01*
X69932Y127068D01*
X69605Y126578D01*
X69584Y126475D01*
X69042Y126310D01*
X64749Y130603D01*
X64940Y131065D01*
X86589D01*
X89285Y128369D01*
D02*
G37*
G36*
X26907Y111278D02*
X26716Y110816D01*
X20000D01*
Y117532D01*
X20462Y117723D01*
X26907Y111278D01*
D02*
G37*
G36*
X139184Y133338D02*
X135489Y129642D01*
X135312Y129377D01*
X135250Y129065D01*
X135250Y129065D01*
Y113403D01*
X131668Y109821D01*
X131168Y110028D01*
Y140000D01*
X139184D01*
Y133338D01*
D02*
G37*
G36*
X129536Y109690D02*
X124423Y104577D01*
X124246Y104312D01*
X124184Y104000D01*
X124193Y103958D01*
X123316Y103081D01*
X122816Y103288D01*
Y140000D01*
X129536D01*
Y109690D01*
D02*
G37*
G36*
X136550Y111743D02*
Y100719D01*
X131623Y95792D01*
X131446Y95528D01*
X131384Y95215D01*
X131384Y95215D01*
Y68538D01*
X130162Y67316D01*
X121545D01*
X121394Y67816D01*
X121568Y67932D01*
X121895Y68422D01*
X122010Y69000D01*
X121895Y69578D01*
X121878Y69604D01*
X122178Y70054D01*
X122500Y69990D01*
X123078Y70105D01*
X123568Y70432D01*
X123895Y70922D01*
X124010Y71500D01*
X123946Y71821D01*
X124396Y72122D01*
X124422Y72105D01*
X125000Y71990D01*
X125578Y72105D01*
X126068Y72432D01*
X126395Y72922D01*
X126510Y73500D01*
X126395Y74078D01*
X126378Y74104D01*
X126679Y74554D01*
X127000Y74490D01*
X127578Y74605D01*
X128068Y74932D01*
X128395Y75422D01*
X128510Y76000D01*
X128395Y76578D01*
X128378Y76604D01*
X128679Y77054D01*
X129000Y76990D01*
X129578Y77105D01*
X130068Y77432D01*
X130395Y77922D01*
X130510Y78500D01*
X130395Y79078D01*
X130068Y79568D01*
X129578Y79895D01*
X129000Y80010D01*
X128422Y79895D01*
X127932Y79568D01*
X127605Y79078D01*
X127569Y78900D01*
X123359D01*
X123168Y79362D01*
X125264Y81459D01*
X127597D01*
X127605Y81422D01*
X127932Y80932D01*
X128422Y80605D01*
X129000Y80490D01*
X129578Y80605D01*
X130068Y80932D01*
X130395Y81422D01*
X130510Y82000D01*
X130395Y82578D01*
X130068Y83068D01*
X129871Y83199D01*
Y83801D01*
X130068Y83932D01*
X130395Y84422D01*
X130510Y85000D01*
X130395Y85578D01*
X130068Y86068D01*
X129578Y86395D01*
X129000Y86510D01*
X128983Y86507D01*
X128784Y86731D01*
X128910Y86882D01*
X129061Y87002D01*
X129578Y87105D01*
X130068Y87432D01*
X130395Y87922D01*
X130510Y88500D01*
X130395Y89078D01*
X130068Y89568D01*
X129578Y89895D01*
X129000Y90010D01*
X128422Y89895D01*
X128258Y89785D01*
X127939Y90174D01*
X128391Y90626D01*
X128422Y90605D01*
X129000Y90490D01*
X129578Y90605D01*
X130068Y90932D01*
X130395Y91422D01*
X130510Y92000D01*
X130395Y92578D01*
X130068Y93068D01*
X129578Y93395D01*
X129000Y93510D01*
X128422Y93395D01*
X128258Y93286D01*
X127939Y93674D01*
X128391Y94126D01*
X128422Y94105D01*
X129000Y93990D01*
X129578Y94105D01*
X130068Y94432D01*
X130395Y94922D01*
X130510Y95500D01*
X130395Y96078D01*
X130068Y96568D01*
X129578Y96895D01*
X129000Y97010D01*
X128422Y96895D01*
X128258Y96785D01*
X127939Y97174D01*
X128391Y97626D01*
X128422Y97605D01*
X129000Y97490D01*
X129578Y97605D01*
X130068Y97932D01*
X130395Y98422D01*
X130510Y99000D01*
X130395Y99578D01*
X130068Y100068D01*
X129578Y100395D01*
X129000Y100510D01*
X128422Y100395D01*
X128258Y100285D01*
X127939Y100674D01*
X128391Y101126D01*
X128422Y101105D01*
X129000Y100990D01*
X129578Y101105D01*
X130068Y101432D01*
X130395Y101922D01*
X130510Y102500D01*
X130395Y103078D01*
X130068Y103568D01*
X129578Y103895D01*
X129000Y104010D01*
X128839Y103978D01*
X128592Y104439D01*
X136088Y111934D01*
X136550Y111743D01*
D02*
G37*
G36*
X35146Y101200D02*
X34939Y100700D01*
X20000D01*
Y109184D01*
X27162D01*
X35146Y101200D01*
D02*
G37*
G36*
X42907Y91278D02*
X42716Y90816D01*
X20000D01*
Y99069D01*
X35116D01*
X42907Y91278D01*
D02*
G37*
G36*
X45923Y86423D02*
X46188Y86246D01*
X46353Y86214D01*
X46539Y85806D01*
X46550Y85703D01*
X41162Y80316D01*
X20000D01*
Y89184D01*
X43162D01*
X45923Y86423D01*
D02*
G37*
G36*
X40907Y78222D02*
X32501Y69816D01*
X20000D01*
Y78684D01*
X40716D01*
X40907Y78222D01*
D02*
G37*
G36*
X32246Y67722D02*
X25392Y60868D01*
X20000D01*
Y68184D01*
X32054D01*
X32246Y67722D01*
D02*
G37*
G36*
X140000Y58193D02*
Y50816D01*
X102838D01*
X99577Y54077D01*
X99312Y54254D01*
X99000Y54316D01*
X98958Y54307D01*
X98568Y54697D01*
X98760Y55159D01*
X115466D01*
X115623Y54923D01*
X115888Y54746D01*
X116200Y54684D01*
X135500D01*
X135500Y54684D01*
X135812Y54746D01*
X136077Y54923D01*
X139538Y58385D01*
X140000Y58193D01*
D02*
G37*
G36*
X39841Y47821D02*
Y20006D01*
X32063D01*
Y44409D01*
X34338Y46684D01*
X37219D01*
X37531Y46746D01*
X37778Y46911D01*
X37914Y46884D01*
X38226Y46946D01*
X38491Y47123D01*
X39379Y48012D01*
X39841Y47821D01*
D02*
G37*
G36*
X24876Y139971D02*
X34923Y129923D01*
X34923Y129923D01*
X35188Y129746D01*
X35500Y129684D01*
X63360D01*
X77291Y115754D01*
X77291Y115754D01*
X77555Y115577D01*
X77868Y115515D01*
X87801D01*
X91884Y111431D01*
Y91401D01*
X91360Y90877D01*
X91203Y90641D01*
X89937D01*
X89554Y90483D01*
X89429Y90179D01*
X89396Y90100D01*
X89396Y90100D01*
X89548Y89700D01*
X89396Y89300D01*
X89396Y89300D01*
X89396Y89300D01*
X89548Y88900D01*
X89396Y88500D01*
X89396Y88500D01*
X89396Y88500D01*
X89548Y88100D01*
X89396Y87700D01*
X89396Y87700D01*
X89396Y87700D01*
X89548Y87300D01*
X89396Y86900D01*
X89396Y86900D01*
X89396Y86900D01*
X89548Y86500D01*
X89396Y86100D01*
X89396Y86100D01*
X89396Y86100D01*
X89548Y85700D01*
X89396Y85300D01*
X89396Y85300D01*
X89396Y85300D01*
X89548Y84900D01*
X89396Y84500D01*
X89396Y84500D01*
X89396Y84500D01*
X89548Y84100D01*
X89396Y83700D01*
X89396Y83700D01*
X89396Y83700D01*
X89548Y83300D01*
X89396Y82900D01*
X89396Y82900D01*
X89396Y82900D01*
X89548Y82500D01*
X89396Y82100D01*
X89396Y82100D01*
X89396Y82100D01*
X89548Y81700D01*
X89396Y81300D01*
X89396Y81300D01*
X89396Y81300D01*
X89548Y80900D01*
X89396Y80500D01*
X89396Y80500D01*
X89396Y80500D01*
X89548Y80100D01*
X89396Y79700D01*
X89396Y79700D01*
X89396Y79700D01*
X89548Y79300D01*
X89396Y78900D01*
X89396Y78900D01*
X89396Y78900D01*
X89548Y78500D01*
X89396Y78100D01*
X89396Y78100D01*
X89396Y78100D01*
X89548Y77700D01*
X89396Y77300D01*
X89396Y77300D01*
X89396Y77300D01*
X89548Y76900D01*
X89396Y76500D01*
X89396Y76500D01*
X89396Y76500D01*
X89548Y76100D01*
X89396Y75700D01*
X89396Y75700D01*
X89396Y75700D01*
X89548Y75300D01*
X89396Y74900D01*
X89396Y74900D01*
X89396Y74900D01*
X89548Y74500D01*
X89396Y74100D01*
X89396Y74100D01*
X89396Y74100D01*
X89548Y73700D01*
X89396Y73300D01*
X89396Y73300D01*
X89396Y73300D01*
X89548Y72900D01*
X89396Y72500D01*
X89396Y72500D01*
X89396Y72500D01*
X89548Y72100D01*
X89396Y71700D01*
X89396Y71700D01*
X89396Y71700D01*
X89548Y71300D01*
X89396Y70900D01*
X89396Y70900D01*
X89396Y70900D01*
X89548Y70500D01*
X89396Y70100D01*
X89396Y70100D01*
X89396Y70100D01*
X89548Y69700D01*
X89396Y69300D01*
X89396Y69300D01*
X89396Y69300D01*
X89548Y68900D01*
X89396Y68500D01*
X89396Y68500D01*
X89396Y68500D01*
X89548Y68100D01*
X89396Y67700D01*
X89396Y67700D01*
X89396Y67700D01*
X89548Y67300D01*
X89396Y66900D01*
X89396Y66900D01*
X89396Y66900D01*
X89548Y66500D01*
X89396Y66100D01*
X89396Y66100D01*
X89396Y66100D01*
X89548Y65700D01*
X89396Y65300D01*
X89396Y65300D01*
X89396Y65300D01*
X89548Y64900D01*
X89396Y64500D01*
X89396Y64500D01*
X89396Y64500D01*
X89548Y64100D01*
X89396Y63700D01*
X89396Y63700D01*
X89396Y63700D01*
X89548Y63300D01*
X89396Y62900D01*
X89396Y62900D01*
X89396Y62900D01*
X89548Y62500D01*
X89396Y62100D01*
X89396Y62100D01*
X89396Y62100D01*
X89548Y61700D01*
X89396Y61300D01*
X89396Y61300D01*
X89396Y61300D01*
X89548Y60900D01*
X89396Y60500D01*
X89396Y60500D01*
X89396Y60500D01*
X89548Y60100D01*
X89396Y59700D01*
X89396Y59700D01*
X89396Y59700D01*
X89548Y59300D01*
X89396Y58900D01*
X89396Y58900D01*
X89396Y58900D01*
X89548Y58500D01*
X89396Y58100D01*
X89396Y58100D01*
X89396Y58100D01*
X89548Y57700D01*
X89396Y57300D01*
X89396Y57300D01*
X89396Y57300D01*
X89548Y56900D01*
X89396Y56500D01*
X89396Y56500D01*
X89396Y56500D01*
X89548Y56100D01*
X89396Y55700D01*
X89396Y55700D01*
X89396Y55700D01*
X89548Y55300D01*
X89396Y54900D01*
X89396Y54900D01*
X89396Y54900D01*
X89548Y54500D01*
X89396Y54100D01*
X89396Y54100D01*
X89396Y54100D01*
X89548Y53700D01*
X89396Y53300D01*
X89396Y53300D01*
X89396Y53300D01*
X89548Y52900D01*
X89396Y52500D01*
X89396Y52500D01*
X89554Y52117D01*
X89632Y52085D01*
X89937Y51959D01*
X94213D01*
X94459Y51713D01*
Y50600D01*
X94423Y50577D01*
X94246Y50312D01*
X94184Y50000D01*
X94246Y49688D01*
X94423Y49423D01*
X98421Y45426D01*
X98214Y44925D01*
X85800D01*
Y46650D01*
X81200D01*
Y40550D01*
X85800D01*
Y42274D01*
X98305D01*
X100040Y40540D01*
X100470Y40253D01*
X100977Y40152D01*
X101484Y40253D01*
X101914Y40540D01*
X102248Y40573D01*
X102995Y39825D01*
X102788Y39325D01*
X79221D01*
X78825Y39721D01*
Y42600D01*
X78800Y42728D01*
Y46650D01*
X74200D01*
Y40550D01*
X76174D01*
Y39172D01*
X76275Y38664D01*
X76563Y38234D01*
X77734Y37063D01*
X78164Y36775D01*
X78672Y36674D01*
X102915D01*
X103795Y35795D01*
X104225Y35508D01*
X104732Y35407D01*
X105199Y35500D01*
X112683Y28016D01*
X112476Y27516D01*
X66148D01*
X56316Y37348D01*
Y39455D01*
X56816Y39606D01*
X56932Y39432D01*
X57422Y39105D01*
X58000Y38990D01*
X58321Y39054D01*
X58622Y38604D01*
X58605Y38578D01*
X58490Y38000D01*
X58605Y37422D01*
X58932Y36932D01*
X59422Y36605D01*
X60000Y36490D01*
X60578Y36605D01*
X61068Y36932D01*
X61395Y37422D01*
X61440Y37647D01*
X61940Y37598D01*
Y36498D01*
X61422Y36395D01*
X60932Y36068D01*
X60605Y35578D01*
X60490Y35000D01*
X60605Y34422D01*
X60932Y33932D01*
X61422Y33605D01*
X62000Y33490D01*
X62578Y33605D01*
X63068Y33932D01*
X63395Y34422D01*
X63459Y34742D01*
X63959Y34693D01*
Y33902D01*
X63922Y33895D01*
X63432Y33568D01*
X63105Y33078D01*
X62990Y32500D01*
X63105Y31922D01*
X63432Y31432D01*
X63922Y31105D01*
X64500Y30990D01*
X65078Y31105D01*
X65568Y31432D01*
X65895Y31922D01*
X65959Y32242D01*
X66459Y32193D01*
Y31403D01*
X66422Y31395D01*
X65932Y31068D01*
X65605Y30578D01*
X65490Y30000D01*
X65605Y29422D01*
X65932Y28932D01*
X66422Y28605D01*
X67000Y28490D01*
X67578Y28605D01*
X68068Y28932D01*
X68395Y29422D01*
X68510Y30000D01*
X68395Y30578D01*
X68068Y31068D01*
X67578Y31395D01*
X67541Y31403D01*
Y34200D01*
X67383Y34583D01*
X67383Y34583D01*
X65741Y36224D01*
Y37676D01*
X66241Y37883D01*
X69959Y34166D01*
Y31403D01*
X69922Y31395D01*
X69432Y31068D01*
X69105Y30578D01*
X68990Y30000D01*
X69105Y29422D01*
X69432Y28932D01*
X69922Y28605D01*
X70500Y28490D01*
X71078Y28605D01*
X71568Y28932D01*
X71895Y29422D01*
X72010Y30000D01*
X71895Y30578D01*
X71568Y31068D01*
X71078Y31395D01*
X71041Y31403D01*
Y33420D01*
X71503Y33611D01*
X73267Y31847D01*
X73276Y31823D01*
X73215Y31257D01*
X72932Y31068D01*
X72605Y30578D01*
X72490Y30000D01*
X72605Y29422D01*
X72932Y28932D01*
X73422Y28605D01*
X74000Y28490D01*
X74578Y28605D01*
X75068Y28932D01*
X75395Y29422D01*
X75963Y29714D01*
X76011Y29693D01*
X76068Y29609D01*
X76105Y29422D01*
X76432Y28932D01*
X76922Y28605D01*
X77500Y28490D01*
X78078Y28605D01*
X78568Y28932D01*
X78895Y29422D01*
X79010Y30000D01*
X78895Y30578D01*
X78645Y30952D01*
X78833Y31386D01*
X79236Y31404D01*
X79373Y31283D01*
X79594Y31024D01*
X79490Y30500D01*
X79605Y29922D01*
X79932Y29432D01*
X80422Y29105D01*
X81000Y28990D01*
X81578Y29105D01*
X82068Y29432D01*
X82395Y29922D01*
X82510Y30500D01*
X82395Y31078D01*
X82068Y31568D01*
X81578Y31895D01*
X81000Y32010D01*
X80422Y31895D01*
X80391Y31874D01*
X79883Y32383D01*
X79500Y32541D01*
X79500Y32541D01*
X76084D01*
X67241Y41384D01*
Y51476D01*
X67661Y51896D01*
X70063D01*
X70446Y52054D01*
X70571Y52358D01*
X70604Y52437D01*
X70604Y52437D01*
X70452Y52837D01*
X70604Y53237D01*
X70604Y53237D01*
X70604Y53237D01*
X70452Y53637D01*
X70604Y54037D01*
X70604Y54037D01*
X70604Y54037D01*
X70452Y54437D01*
X70604Y54837D01*
X70604Y54837D01*
X70604Y54837D01*
X70452Y55237D01*
X70604Y55637D01*
X70604Y55637D01*
X70604Y55637D01*
X70452Y56037D01*
X70604Y56437D01*
X70604Y56437D01*
X70604Y56437D01*
X70452Y56837D01*
X70604Y57237D01*
X70604Y57237D01*
X70604Y57237D01*
X70452Y57637D01*
X70604Y58037D01*
X70604Y58037D01*
X70604Y58037D01*
X70452Y58437D01*
X70604Y58837D01*
X70604Y58837D01*
X70604Y58837D01*
X70452Y59237D01*
X70604Y59637D01*
X70604Y59637D01*
X70604Y59637D01*
X70452Y60037D01*
X70604Y60437D01*
X70604Y60437D01*
X70604Y60437D01*
X70452Y60837D01*
X70604Y61237D01*
X70604Y61237D01*
X70604Y61237D01*
X70452Y61637D01*
X70604Y62037D01*
X70604Y62037D01*
X70604Y62037D01*
X70452Y62437D01*
X70604Y62837D01*
X70604Y62837D01*
X70604Y62837D01*
X70452Y63237D01*
X70604Y63637D01*
X70604Y63637D01*
X70604Y63637D01*
X70452Y64037D01*
X70604Y64437D01*
X70604Y64437D01*
X70604Y64437D01*
X70452Y64837D01*
X70604Y65237D01*
X70604Y65237D01*
X70604Y65237D01*
X70452Y65637D01*
X70604Y66037D01*
X70604Y66037D01*
X70604Y66037D01*
X70452Y66437D01*
X70604Y66837D01*
X70604Y66837D01*
X70604Y66837D01*
X70452Y67237D01*
X70604Y67637D01*
X70604Y67637D01*
X70604Y67637D01*
X70452Y68037D01*
X70604Y68437D01*
X70604Y68437D01*
X70604Y68437D01*
X70452Y68837D01*
X70604Y69237D01*
X70604Y69237D01*
X70604Y69237D01*
X70452Y69637D01*
X70604Y70037D01*
X70604Y70037D01*
X70604Y70037D01*
X70452Y70437D01*
X70604Y70837D01*
X70604Y70837D01*
X70604Y70837D01*
X70452Y71237D01*
X70604Y71637D01*
X70604Y71637D01*
X70604Y71637D01*
X70452Y72037D01*
X70604Y72437D01*
X70604Y72437D01*
X70604Y72437D01*
X70452Y72837D01*
X70604Y73237D01*
X70604Y73237D01*
X70604Y73237D01*
X70452Y73637D01*
X70604Y74037D01*
X70604Y74037D01*
X70604Y74037D01*
X70452Y74437D01*
X70604Y74837D01*
X70604Y74837D01*
X70604Y74837D01*
X70452Y75237D01*
X70604Y75637D01*
X70604Y75637D01*
X70604Y75637D01*
X70452Y76037D01*
X70604Y76437D01*
X70604Y76437D01*
X70604Y76437D01*
X70452Y76837D01*
X70604Y77237D01*
X70604Y77237D01*
X70604Y77237D01*
X70452Y77637D01*
X70604Y78037D01*
X70604Y78037D01*
X70604Y78037D01*
X70452Y78437D01*
X70604Y78837D01*
X70604Y78837D01*
X70604Y78837D01*
X70452Y79237D01*
X70604Y79637D01*
X70604Y79637D01*
X70604Y79637D01*
X70452Y80037D01*
X70604Y80437D01*
X70604Y80437D01*
X70604Y80437D01*
X70452Y80837D01*
X70604Y81237D01*
X70604Y81237D01*
X70604Y81237D01*
X70452Y81637D01*
X70604Y82037D01*
X70604Y82037D01*
X70604Y82037D01*
X70452Y82437D01*
X70604Y82837D01*
X70604Y82837D01*
X70604Y82837D01*
X70452Y83237D01*
X70604Y83637D01*
X70604Y83637D01*
X70604Y83637D01*
X70452Y84037D01*
X70604Y84437D01*
X70604Y84437D01*
X70446Y84820D01*
X70604Y85237D01*
X70604Y85237D01*
X70604Y85237D01*
X70446Y85654D01*
X70571Y85958D01*
X70604Y86037D01*
X70604Y86037D01*
X70452Y86437D01*
X70604Y86837D01*
X70604Y86837D01*
X70604Y86837D01*
X70452Y87237D01*
X70604Y87637D01*
X70604Y87637D01*
X70604Y87637D01*
X70452Y88037D01*
X70604Y88437D01*
X70604Y88437D01*
X70604Y88437D01*
X70452Y88837D01*
X70604Y89237D01*
X70604Y89237D01*
X70604Y89237D01*
X70452Y89637D01*
X70604Y90037D01*
X70604Y90037D01*
X70446Y90420D01*
X70368Y90452D01*
X70063Y90578D01*
X66297D01*
X66140Y90814D01*
X65875Y90991D01*
X65563Y91053D01*
X65439D01*
X62415Y94077D01*
X62151Y94254D01*
X61839Y94316D01*
X61838Y94316D01*
X49853D01*
X22116Y122053D01*
Y127538D01*
X22116Y127539D01*
X22054Y127851D01*
X21877Y128115D01*
X21316Y128676D01*
Y140000D01*
X24856D01*
X24876Y139971D01*
D02*
G37*
G36*
X102188Y49246D02*
X102500Y49184D01*
X102500Y49184D01*
X140000D01*
Y40316D01*
X110338D01*
X101647Y49006D01*
X101966Y49395D01*
X102188Y49246D01*
D02*
G37*
G36*
X140000Y32063D02*
X116752D01*
X110593Y38222D01*
X110784Y38684D01*
X140000D01*
Y32063D01*
D02*
G37*
G36*
X24577Y51576D02*
X24598Y51545D01*
X24490Y51000D01*
X24605Y50422D01*
X24932Y49932D01*
X25422Y49605D01*
X26000Y49490D01*
X26578Y49605D01*
X27068Y49932D01*
X27236Y50184D01*
X30485D01*
X30584Y49684D01*
X30423Y49577D01*
X30423Y49577D01*
X23923Y43077D01*
X23746Y42812D01*
X23684Y42500D01*
X23684Y42500D01*
Y28838D01*
X20462Y25616D01*
X20000Y25807D01*
Y29346D01*
X21877Y31223D01*
X21877Y31223D01*
X22054Y31488D01*
X22116Y31800D01*
X22116Y31800D01*
Y49770D01*
X24087Y51741D01*
X24577Y51576D01*
D02*
G37*
G36*
X138134Y23389D02*
X140000Y21523D01*
Y20009D01*
X139994Y20006D01*
X126647D01*
X119448Y27206D01*
X119504Y27489D01*
X119634Y27706D01*
X133817D01*
X138134Y23389D01*
D02*
G37*
G36*
X118378Y20468D02*
X118187Y20006D01*
X110814D01*
X110754Y20312D01*
X110577Y20577D01*
X110577Y20577D01*
X107031Y24122D01*
X107222Y24584D01*
X114262D01*
X118378Y20468D01*
D02*
G37*
G36*
X57878D02*
X57687Y20006D01*
X50314D01*
X50254Y20312D01*
X50077Y20577D01*
X50077Y20577D01*
X44516Y26138D01*
Y33178D01*
X44978Y33369D01*
X57878Y20468D01*
D02*
G37*
G36*
X42884Y49961D02*
Y25800D01*
X42884Y25800D01*
X42946Y25488D01*
X43123Y25223D01*
X47878Y20468D01*
X47687Y20006D01*
X41473D01*
Y49257D01*
X42384Y50169D01*
X42884Y49961D01*
D02*
G37*
G36*
X33031Y47684D02*
X30670Y45324D01*
X30494Y45059D01*
X30432Y44747D01*
X30432Y44747D01*
Y20006D01*
X20000D01*
Y22847D01*
X25077Y27923D01*
X25077Y27923D01*
X25254Y28188D01*
X25316Y28500D01*
X25316Y28500D01*
Y42162D01*
X31338Y48184D01*
X32824D01*
X33031Y47684D01*
D02*
G37*
%LPC*%
G36*
X86496Y110758D02*
X73504D01*
X73274Y110663D01*
X73179Y110433D01*
Y109403D01*
X73084Y108925D01*
X73179Y108448D01*
Y106647D01*
X73084Y106169D01*
X73179Y105692D01*
Y103891D01*
X73084Y103414D01*
X73179Y102936D01*
Y101135D01*
X73084Y100658D01*
X73179Y100180D01*
Y98379D01*
X73084Y97902D01*
X73179Y97424D01*
Y95611D01*
X73084Y95134D01*
X73179Y94657D01*
Y92867D01*
X73084Y92390D01*
X73179Y91913D01*
Y90111D01*
X73084Y89634D01*
X73179Y89157D01*
Y87344D01*
X73084Y86866D01*
X73179Y86389D01*
Y84588D01*
X73084Y84110D01*
X73179Y83633D01*
Y81832D01*
X73084Y81354D01*
X73179Y80877D01*
Y79076D01*
X73084Y78599D01*
X73179Y78121D01*
Y76308D01*
X73084Y75831D01*
X73179Y75353D01*
Y73552D01*
X73084Y73075D01*
X73179Y72597D01*
Y70796D01*
X73084Y70319D01*
X73179Y69842D01*
Y68040D01*
X73084Y67563D01*
X73179Y67086D01*
Y65273D01*
X73084Y64795D01*
X73179Y64318D01*
Y62517D01*
X73084Y62039D01*
X73179Y61562D01*
Y59761D01*
X73084Y59283D01*
X73179Y58806D01*
Y57005D01*
X73084Y56528D01*
X73179Y56050D01*
Y54237D01*
X73084Y53760D01*
X73179Y53282D01*
Y51481D01*
X73084Y51004D01*
X73179Y50527D01*
Y49567D01*
X73274Y49337D01*
X73504Y49242D01*
X86496D01*
X86726Y49337D01*
X86821Y49567D01*
Y50138D01*
X87013Y50426D01*
X87128Y51004D01*
X87013Y51582D01*
X86821Y51870D01*
Y52894D01*
X87013Y53182D01*
X87128Y53760D01*
X87013Y54338D01*
X86821Y54626D01*
Y55661D01*
X87013Y55950D01*
X87128Y56528D01*
X87013Y57105D01*
X86821Y57394D01*
Y58417D01*
X87013Y58706D01*
X87128Y59283D01*
X87013Y59861D01*
X86821Y60150D01*
Y61173D01*
X87013Y61462D01*
X87128Y62039D01*
X87013Y62617D01*
X86821Y62906D01*
Y63929D01*
X87013Y64218D01*
X87128Y64795D01*
X87013Y65373D01*
X86821Y65662D01*
Y66697D01*
X87013Y66985D01*
X87128Y67563D01*
X87013Y68141D01*
X86821Y68429D01*
Y69453D01*
X87013Y69741D01*
X87128Y70319D01*
X87013Y70897D01*
X86821Y71185D01*
Y72209D01*
X87013Y72497D01*
X87128Y73075D01*
X87013Y73653D01*
X86821Y73941D01*
Y74965D01*
X87013Y75253D01*
X87128Y75831D01*
X87013Y76409D01*
X86821Y76697D01*
Y77732D01*
X87013Y78021D01*
X87128Y78599D01*
X87013Y79176D01*
X86821Y79465D01*
Y80488D01*
X87013Y80777D01*
X87128Y81354D01*
X87013Y81932D01*
X86821Y82221D01*
Y83244D01*
X87013Y83533D01*
X87128Y84110D01*
X87013Y84688D01*
X86821Y84977D01*
Y86000D01*
X87013Y86288D01*
X87128Y86866D01*
X87013Y87444D01*
X86821Y87732D01*
Y88768D01*
X87013Y89056D01*
X87128Y89634D01*
X87013Y90212D01*
X86821Y90500D01*
Y91524D01*
X87013Y91812D01*
X87128Y92390D01*
X87013Y92968D01*
X86821Y93256D01*
Y94268D01*
X87013Y94556D01*
X87128Y95134D01*
X87013Y95712D01*
X86821Y96000D01*
Y97035D01*
X87013Y97324D01*
X87128Y97902D01*
X87013Y98479D01*
X86821Y98768D01*
Y99791D01*
X87013Y100080D01*
X87128Y100658D01*
X87013Y101235D01*
X86821Y101524D01*
Y102548D01*
X87013Y102836D01*
X87128Y103414D01*
X87013Y103991D01*
X86821Y104280D01*
Y105303D01*
X87013Y105591D01*
X87128Y106169D01*
X87013Y106747D01*
X86821Y107036D01*
Y108059D01*
X87013Y108347D01*
X87128Y108925D01*
X87013Y109503D01*
X86821Y109792D01*
Y110433D01*
X86726Y110663D01*
X86496Y110758D01*
D02*
G37*
%LPD*%
D11*
X144693Y20000D02*
X150000D01*
X134746Y29947D02*
X144693Y20000D01*
X150000D02*
X155000Y25000D01*
X115053Y29947D02*
X134746D01*
X130000Y10000D02*
Y15500D01*
X118800Y26700D02*
X130000Y15500D01*
X65810Y26700D02*
X118800D01*
X95000Y50000D02*
X115053Y29947D01*
X97500Y52000D02*
X110000Y39500D01*
X149500D01*
X102500Y50000D02*
X150000D01*
X99000Y53500D02*
X102500Y50000D01*
X150000D02*
X155000Y55000D01*
X96200Y51461D02*
X116414Y31247D01*
X96200Y51461D02*
Y52539D01*
X116414Y31247D02*
X151247D01*
X155000Y35000D01*
X149500Y39500D02*
X155000Y45000D01*
X96331Y52669D02*
X96331D01*
X96200Y52539D02*
X96331Y52669D01*
X91937Y90300D02*
X92700Y91063D01*
Y111769D01*
X88138Y116331D02*
X92700Y111769D01*
X77868Y116331D02*
X88138D01*
X63698Y130500D02*
X77868Y116331D01*
X35500Y130500D02*
X63698D01*
X85969Y121531D02*
X90292D01*
X83769Y120231D02*
X89754D01*
X89215Y118931D02*
X95300Y112846D01*
X81569Y118931D02*
X89215D01*
X88677Y117631D02*
X94000Y112308D01*
X79369Y117631D02*
X88677D01*
X85000Y126000D02*
X85500D01*
X89754Y120231D02*
X96600Y113385D01*
X90292Y121531D02*
X97900Y113923D01*
X71000Y126000D02*
X79369Y117631D01*
X85500Y126000D02*
X88669Y122831D01*
X78000Y126000D02*
X83769Y120231D01*
X81500Y126000D02*
X85969Y121531D01*
X74500Y126000D02*
X81569Y118931D01*
X25453Y140547D02*
X35500Y130500D01*
X25453Y140547D02*
Y144547D01*
X25000Y145000D02*
X25453Y144547D01*
X94000Y90000D02*
Y112308D01*
X97900Y89500D02*
Y113923D01*
X99200Y89500D02*
Y114462D01*
X90831Y122831D02*
X99200Y114462D01*
X100500Y89500D02*
Y115000D01*
X89500Y126000D02*
X100500Y115000D01*
X101800Y89500D02*
Y118861D01*
X97581Y123081D02*
X101800Y118861D01*
X103100Y89500D02*
Y120900D01*
X102500Y121500D02*
X103100Y120900D01*
X101000Y121500D02*
X102500D01*
X96500Y126000D02*
X101000Y121500D01*
X104400Y89500D02*
Y121600D01*
X105700Y89500D02*
Y123800D01*
X107000Y89500D02*
Y126000D01*
X109000Y89500D02*
Y127931D01*
X110500Y89500D02*
Y128269D01*
X112000Y89500D02*
Y128608D01*
X113500Y89500D02*
Y128946D01*
X115000Y89500D02*
Y129285D01*
X116500Y89500D02*
Y129623D01*
X95300Y90000D02*
Y112846D01*
X88669Y122831D02*
X90831D01*
X96600Y90000D02*
Y113385D01*
X38619Y131881D02*
X86927D01*
X47319Y133181D02*
X87465D01*
X55519Y134481D02*
X88004D01*
X64719Y135781D02*
X88542D01*
X72919Y137081D02*
X89081D01*
X70000Y140000D02*
X72919Y137081D01*
X88542Y135781D02*
X91477Y132846D01*
X60000Y140500D02*
X64719Y135781D01*
X40500Y140000D02*
X47319Y133181D01*
X50000Y140000D02*
X55519Y134481D01*
X88004D02*
X90939Y131546D01*
X30500Y140000D02*
X38619Y131881D01*
X86927D02*
X89862Y128946D01*
X87465Y133181D02*
X90400Y130246D01*
X89081Y137081D02*
X92015Y134146D01*
X70000Y140000D02*
Y150000D01*
X89862Y128946D02*
X107985D01*
X90400Y130246D02*
X108523D01*
X90939Y131546D02*
X109062D01*
X91477Y132846D02*
X109600D01*
X92015Y134146D02*
X110138D01*
X92554Y135446D02*
X110677D01*
X88000Y140000D02*
X92554Y135446D01*
X93754Y136746D02*
X111215D01*
X90500Y140000D02*
X93754Y136746D01*
X108523Y130246D02*
X110500Y128269D01*
X110677Y135446D02*
X116500Y129623D01*
X110138Y134146D02*
X115000Y129285D01*
X109600Y132846D02*
X113500Y128946D01*
X107985Y128946D02*
X109000Y127931D01*
X111215Y136746D02*
X118000Y129962D01*
X109062Y131546D02*
X112000Y128608D01*
X100000Y126000D02*
X104400Y121600D01*
X103500Y126000D02*
X105700Y123800D01*
X95919Y123081D02*
X97581D01*
X93000Y126000D02*
X95919Y123081D01*
X118000Y89500D02*
Y129962D01*
X109800Y140000D02*
X119400Y130400D01*
X101500Y140000D02*
X109800D01*
X119400Y89900D02*
Y130400D01*
X111247Y143446D02*
Y148753D01*
Y143446D02*
X120700Y133993D01*
X105000Y155000D02*
X111247Y148753D01*
X120700Y89831D02*
Y133993D01*
X122000Y90369D02*
Y140198D01*
X118753Y143446D02*
X122000Y140198D01*
X25000Y155000D02*
X30500Y149500D01*
Y140000D02*
Y149500D01*
X35000Y155000D02*
X40500Y149500D01*
Y140000D02*
Y149500D01*
X50000Y140000D02*
Y149500D01*
X45000Y154500D02*
X50000Y149500D01*
X132200Y68200D02*
Y95215D01*
X133500Y66000D02*
Y94677D01*
X138665Y99842D01*
X132200Y95215D02*
X137365Y100381D01*
X47700Y85700D02*
X48500D01*
X41500Y79500D02*
X47700Y85700D01*
X48138Y84300D02*
X48276D01*
X32838Y69000D02*
X48138Y84300D01*
X26268Y58753D02*
X49684Y82169D01*
X51191Y81837D02*
X51391D01*
X20000Y50646D02*
X51191Y81837D01*
X21300Y50108D02*
X51596Y80404D01*
X40657Y49595D02*
X42031Y50969D01*
X40657Y9343D02*
Y49595D01*
X37914Y47700D02*
X39357Y49143D01*
X40657Y9343D02*
X45000Y5000D01*
X58000Y51000D02*
Y56500D01*
X55500Y37010D02*
Y55000D01*
X54000Y36672D02*
Y54500D01*
X52500Y36333D02*
Y54000D01*
X51000Y35995D02*
Y53500D01*
X49500Y35656D02*
Y53000D01*
X48000Y35177D02*
Y51951D01*
X45000Y34500D02*
Y51441D01*
X43700Y25800D02*
Y51286D01*
X34000Y47500D02*
X37219D01*
X45000Y154500D02*
Y155000D01*
X55000D02*
X60000Y150000D01*
Y140500D02*
Y150000D01*
X65000Y155000D02*
X70000Y150000D01*
X75000Y155000D02*
X80500Y149500D01*
Y141500D02*
Y149500D01*
Y141500D02*
X82000Y140000D01*
X88000D01*
X85000Y155000D02*
X90500Y149500D01*
Y140000D02*
Y149500D01*
X95000Y155000D02*
X99500Y150500D01*
Y142000D02*
Y150500D01*
Y142000D02*
X101500Y140000D01*
X118750Y146557D02*
Y151250D01*
Y146557D02*
X118753Y146554D01*
Y143446D02*
Y146554D01*
X115000Y155000D02*
X118750Y151250D01*
X130352Y109352D02*
Y149648D01*
X125000Y104000D02*
X130352Y109352D01*
X125000Y155000D02*
X130352Y149648D01*
X140000Y133000D02*
Y150000D01*
X136065Y129065D02*
X140000Y133000D01*
X135000Y155000D02*
X140000Y150000D01*
X136065Y113065D02*
Y129065D01*
X124500Y101500D02*
X136065Y113065D01*
X134800Y86638D02*
X138700Y90539D01*
X134800Y64315D02*
Y86638D01*
X136100Y86100D02*
X140000Y90000D01*
X136100Y63777D02*
Y86100D01*
X137400Y85400D02*
X142000Y90000D01*
X137400Y63239D02*
Y85400D01*
X117000Y66500D02*
X130500D01*
X117500Y65000D02*
X132500D01*
X130500Y66500D02*
X132200Y68200D01*
X132500Y65000D02*
X133500Y66000D01*
X117500Y63500D02*
X133985D01*
X134800Y64315D01*
X116300Y58300D02*
X134300D01*
X116000Y58000D02*
X116300Y58300D01*
X116500Y60000D02*
X134161D01*
X149500Y130000D02*
X154500Y135000D01*
X155000D01*
X142500Y130000D02*
X149500D01*
X140000Y127500D02*
X142500Y130000D01*
X140000Y121000D02*
Y127500D01*
X137365Y118365D02*
X140000Y121000D01*
X137365Y100381D02*
Y118365D01*
X143000Y120500D02*
X150000D01*
X140000Y117500D02*
X143000Y120500D01*
X150000D02*
X154500Y125000D01*
X155000D01*
X138665Y99842D02*
Y108665D01*
X140000Y110000D02*
Y117500D01*
X142500Y110000D02*
X150000D01*
X140000Y107500D02*
X142500Y110000D01*
X150000D02*
X155000Y115000D01*
X138665Y108665D02*
X140000Y110000D01*
X138700Y98039D02*
X140000Y99339D01*
X138700Y90539D02*
Y98039D01*
X140000Y99339D02*
Y107500D01*
Y90000D02*
Y97500D01*
X117793Y62000D02*
X134323D01*
X136100Y63777D01*
X134161Y60000D02*
X137400Y63239D01*
X117000Y57000D02*
X135161D01*
X116200Y55500D02*
X135500D01*
X134300Y58300D02*
X138700Y62700D01*
X135500Y55500D02*
X140000Y60000D01*
X135161Y57000D02*
X140000Y61839D01*
Y67500D01*
X150000Y100000D02*
X155000Y105000D01*
X142500Y100000D02*
X150000D01*
X140000Y97500D02*
X142500Y100000D01*
X150000Y90000D02*
X155000Y95000D01*
X142000Y90000D02*
X150000D01*
X143000Y80000D02*
X150000D01*
X140000Y77000D02*
X143000Y80000D01*
X150000D02*
X155000Y85000D01*
X138700Y62700D02*
Y68200D01*
X140000Y67500D02*
X142500Y70000D01*
X138700Y68200D02*
X140000Y69500D01*
Y77000D01*
X142500Y70000D02*
X150000D01*
X155000Y75000D01*
X150000Y60000D02*
X155000Y65000D01*
X140000Y60000D02*
X150000D01*
X130000Y10000D02*
X135000Y5000D01*
X65272Y25400D02*
X114600D01*
X64733Y24100D02*
X105900D01*
X64195Y22800D02*
X97200D01*
X63656Y21500D02*
X88500D01*
X63177Y20000D02*
X79000D01*
X80000Y10000D02*
Y19000D01*
X97200Y22800D02*
X100000Y20000D01*
X114600Y25400D02*
X120000Y20000D01*
X51000Y35995D02*
X64195Y22800D01*
X105900Y24100D02*
X110000Y20000D01*
X54000Y36672D02*
X65272Y25400D01*
X88500Y21500D02*
X90000Y20000D01*
X49500Y35656D02*
X63656Y21500D01*
X90000Y10000D02*
Y20000D01*
X55500Y37010D02*
X65810Y26700D01*
X100000Y10000D02*
Y20000D01*
X79000D02*
X80000Y19000D01*
X48000Y35177D02*
X63177Y20000D01*
X52500Y36333D02*
X64733Y24100D01*
X46300Y35039D02*
X61247Y20091D01*
X45000Y34500D02*
X59500Y20000D01*
Y10000D02*
Y20000D01*
X61247Y13446D02*
Y20091D01*
X46300Y35039D02*
Y51596D01*
X120000Y10000D02*
X125000Y5000D01*
X120000Y10000D02*
Y20000D01*
X110000Y10000D02*
Y20000D01*
Y10000D02*
X115000Y5000D01*
X100000Y10000D02*
X105000Y5000D01*
X90000Y10000D02*
X95000Y5000D01*
X50466Y71000D02*
X52483Y73017D01*
X46000Y71000D02*
X50466D01*
X48956Y68500D02*
X49168Y68712D01*
X43500Y68500D02*
X48956D01*
X25730Y60053D02*
X48677Y83000D01*
X41000Y66000D02*
X47446D01*
X21300Y31800D02*
Y50108D01*
X13446Y58753D02*
X26268D01*
X5000Y55000D02*
X10053Y60053D01*
X9000Y69000D02*
X32838D01*
X20000Y41500D02*
Y50646D01*
X47446Y66000D02*
X48223Y66777D01*
X10053Y60053D02*
X25730D01*
X45936Y63500D02*
X46148Y63712D01*
X38500Y63500D02*
X45936D01*
X44425Y61000D02*
X44638Y61212D01*
X36000Y61000D02*
X44425D01*
X42915Y58500D02*
X43128Y58712D01*
X33500Y58500D02*
X42915D01*
X31000Y56000D02*
X40500D01*
X28500Y53500D02*
X39500D01*
X26000Y51000D02*
X38000D01*
X31000Y49000D02*
X37000D01*
X43700Y25800D02*
X49500Y20000D01*
X64193Y10500D02*
X70000D01*
X61247Y13446D02*
X64193Y10500D01*
X80000Y10000D02*
X85000Y5000D01*
X70000Y10500D02*
X75000Y5500D01*
Y5000D02*
Y5500D01*
X59500Y10000D02*
X64500Y5000D01*
X65000D01*
X49500Y10500D02*
X55000Y5000D01*
X49500Y10500D02*
Y20000D01*
X31247Y8753D02*
Y44747D01*
Y8753D02*
X35000Y5000D01*
X31247Y44747D02*
X34000Y47500D01*
X16000Y14000D02*
Y20000D01*
Y14000D02*
X25000Y5000D01*
X16000Y20000D02*
X24500Y28500D01*
Y42500D01*
X31000Y49000D01*
X9500Y79500D02*
X41500D01*
X18500Y40000D02*
X20000Y41500D01*
X19000Y29500D02*
X21300Y31800D01*
X5000Y75000D02*
X9500Y79500D01*
X59800Y87500D02*
X60000D01*
X59800D02*
Y87538D01*
X59039Y88300D02*
X59800Y87538D01*
X47038Y88300D02*
X59039D01*
X35454Y99885D02*
X47038Y88300D01*
X9385Y99885D02*
X35454D01*
X47900Y89600D02*
X59900D01*
X27500Y110000D02*
X47900Y89600D01*
X10000Y110000D02*
X27500D01*
X48439Y90900D02*
X60600D01*
X19339Y120000D02*
X48439Y90900D01*
X10000Y120000D02*
X19339D01*
X5000Y115000D02*
X10000Y120000D01*
X20500Y128339D02*
Y140000D01*
Y128339D02*
X21300Y127539D01*
Y121715D02*
Y127539D01*
Y121715D02*
X49515Y93500D01*
X61839D01*
X10000Y140000D02*
X20500D01*
X48977Y92200D02*
X61300D01*
X20000Y121177D02*
X48977Y92200D01*
X20000Y121177D02*
Y127000D01*
X17000Y130000D02*
X20000Y127000D01*
X10000Y130000D02*
X17000D01*
X5000Y125000D02*
X10000Y130000D01*
X59900Y89600D02*
X61000Y88500D01*
X61300Y92200D02*
X64000Y89500D01*
X5000Y25000D02*
X9500Y29500D01*
X19000D01*
X10500Y40000D02*
X18500D01*
X5500Y35000D02*
X10500Y40000D01*
X5000Y35000D02*
X5500D01*
X9692Y54999D02*
X13446Y58753D01*
X9692Y49692D02*
Y54999D01*
X5000Y45000D02*
X9692Y49692D01*
X5000Y65000D02*
X9000Y69000D01*
X65101Y90237D02*
X65563D01*
X61839Y93500D02*
X65101Y90237D01*
X60600Y90900D02*
X62000Y89500D01*
X46500Y87000D02*
X58500D01*
X43500Y90000D02*
X46500Y87000D01*
X10000Y90000D02*
X43500D01*
X5000Y85000D02*
X10000Y90000D01*
X5000Y95500D02*
X9385Y99885D01*
X5000Y95000D02*
Y95500D01*
Y105000D02*
X10000Y110000D01*
X5000Y135000D02*
X10000Y140000D01*
D15*
X76500Y43600D02*
D03*
D16*
X83500D02*
D03*
D17*
X144000Y11000D02*
Y14100D01*
Y18289D01*
X138517Y23772D02*
X144000Y18289D01*
X134041Y28247D02*
X138517Y23772D01*
X129500Y28247D02*
X134041D01*
X119000D02*
X129500D01*
X113217D02*
X119000D01*
X104732Y36732D02*
X113217Y28247D01*
X152000Y11000D02*
Y11279D01*
X139198Y24081D02*
X152000Y11279D01*
X134331Y28947D02*
X139198Y24081D01*
X132500Y28947D02*
X134331D01*
X122000D02*
X132500D01*
X114639D02*
X122000D01*
X109543Y34043D02*
X114639Y28947D01*
X102109Y41477D02*
X109543Y34043D01*
X100977Y41477D02*
X102109D01*
X95000Y50000D02*
Y51937D01*
X94437Y52500D02*
X95000Y51937D01*
X89937Y52500D02*
X94437D01*
X97500Y52000D02*
Y52914D01*
X96314Y54100D02*
X97500Y52914D01*
X89937Y53300D02*
X95700D01*
X96331Y52669D01*
X89937Y54100D02*
X96314D01*
X97600Y54900D02*
X99000Y53500D01*
X89937Y54900D02*
X97600D01*
X89937Y55700D02*
X116000D01*
X89937Y56500D02*
X116500D01*
X89937Y57300D02*
X115300D01*
X89937Y58100D02*
X114600D01*
X89937Y58900D02*
X113986D01*
X89937Y59700D02*
X113796D01*
X89937Y60500D02*
X113000D01*
X89937Y61300D02*
X111800D01*
X107170Y71700D02*
X124200Y88730D01*
X89937Y71700D02*
X107170D01*
X124200Y88730D02*
Y101200D01*
X123500Y89020D02*
Y102500D01*
X106980Y72500D02*
X123500Y89020D01*
X89937Y72500D02*
X106980D01*
X122000Y88510D02*
Y90369D01*
X106790Y73300D02*
X122000Y88510D01*
X89937Y73300D02*
X106790D01*
X120700Y88200D02*
Y89831D01*
X106600Y74100D02*
X120700Y88200D01*
X89937Y74100D02*
X106600D01*
X119400Y87900D02*
Y89900D01*
X106400Y74900D02*
X119400Y87900D01*
X89937Y74900D02*
X106400D01*
X118000Y88000D02*
Y89500D01*
X105700Y75700D02*
X118000Y88000D01*
X89937Y75700D02*
X105700D01*
X116500Y88000D02*
Y89500D01*
X105000Y76500D02*
X116500Y88000D01*
X89937Y76500D02*
X105000D01*
X115000Y88000D02*
Y89500D01*
X104300Y77300D02*
X115000Y88000D01*
X89937Y77300D02*
X104300D01*
X113500Y88000D02*
Y89500D01*
X103600Y78100D02*
X113500Y88000D01*
X89937Y78100D02*
X103600D01*
X112000Y88000D02*
Y89500D01*
X102900Y78900D02*
X112000Y88000D01*
X89937Y78900D02*
X102900D01*
X110606Y88106D02*
Y89394D01*
X102200Y79700D02*
X110606Y88106D01*
X89937Y79700D02*
X102200D01*
X109000Y88500D02*
Y89500D01*
X101000Y80500D02*
X109000Y88500D01*
X89937Y80500D02*
X101000D01*
X107000Y87500D02*
Y89500D01*
X100800Y81300D02*
X107000Y87500D01*
X89937Y81300D02*
X100800D01*
X105700Y87710D02*
Y89000D01*
X100090Y82100D02*
X105700Y87710D01*
X89937Y82100D02*
X100090D01*
X104400Y87400D02*
Y89500D01*
X99900Y82900D02*
X104400Y87400D01*
X89937Y82900D02*
X99900D01*
X89937Y86100D02*
X94437D01*
X89937Y90100D02*
X91937D01*
X89937Y89300D02*
X93437D01*
X89937Y84500D02*
X94437D01*
X89937Y83700D02*
X94437D01*
X108001Y70900D02*
X124900Y87799D01*
X108191Y70100D02*
X125600Y87510D01*
X108380Y69300D02*
X126300Y87220D01*
X108570Y68500D02*
X127000Y86930D01*
X108760Y67700D02*
X127700Y86640D01*
X108950Y66900D02*
X127050Y85000D01*
X109140Y66100D02*
X125040Y82000D01*
X109330Y65300D02*
X122389Y78359D01*
X121020Y76000D02*
X127000D01*
X109520Y64500D02*
X121020Y76000D01*
X119510Y73500D02*
X125000D01*
X109710Y63700D02*
X119510Y73500D01*
X118500Y71500D02*
X122500D01*
X109900Y62900D02*
X118500Y71500D01*
X117000Y69000D02*
X120500D01*
X110100Y62100D02*
X117000Y69000D01*
X110500Y89500D02*
X110606Y89394D01*
X114600Y58100D02*
X116500Y60000D01*
X123500Y102500D02*
X125000Y104000D01*
X124900Y98400D02*
X129000Y102500D01*
X124900Y87799D02*
Y98400D01*
X125600Y95600D02*
X129000Y99000D01*
X125600Y87510D02*
Y95600D01*
X126300Y92800D02*
X129000Y95500D01*
X126300Y87220D02*
Y92800D01*
X127000Y90000D02*
X129000Y92000D01*
X127000Y86930D02*
Y90000D01*
X89937Y63700D02*
X109710D01*
X89937Y68500D02*
X108570D01*
X125040Y82000D02*
X129000D01*
X89937Y67700D02*
X108760D01*
X127050Y85000D02*
X129000D01*
X122389Y78359D02*
X128859D01*
X89937Y70900D02*
X108001D01*
X89937Y70100D02*
X108191D01*
X89937Y62100D02*
X110100D01*
X127700Y86640D02*
Y87200D01*
X89937Y66900D02*
X108950D01*
X89937Y69300D02*
X108380D01*
X89937Y65300D02*
X109330D01*
X89937Y66100D02*
X109140D01*
X89937Y64500D02*
X109520D01*
X89937Y62900D02*
X109900D01*
X127700Y87200D02*
X129000Y88500D01*
X116500Y56500D02*
X117000Y57000D01*
X113986Y58900D02*
X117086Y62000D01*
X115300Y57300D02*
X116000Y58000D01*
X117086Y62000D02*
X117793D01*
X48500Y85300D02*
X70000D01*
X48276Y84437D02*
X70063D01*
X48138Y84300D02*
X48276Y84437D01*
X70000Y85300D02*
X70063Y85237D01*
X49684Y82169D02*
X50352Y82837D01*
X49314Y83637D02*
X70063D01*
X48677Y83000D02*
X49314Y83637D01*
X51391Y82037D02*
X70063D01*
X51191Y81837D02*
X51391Y82037D01*
X51596Y80404D02*
X52429Y81237D01*
X37800Y49000D02*
X59636Y70837D01*
X37000Y49000D02*
X37800D01*
X58000Y56500D02*
Y57463D01*
X55500Y55000D02*
Y55953D01*
X54000Y54500D02*
Y55443D01*
X52500Y54000D02*
Y54932D01*
X51000Y53500D02*
Y54422D01*
X49500Y53000D02*
Y53912D01*
X48000Y51951D02*
Y53402D01*
X46300Y51596D02*
Y52692D01*
X45000Y51441D02*
Y52382D01*
X43700Y51286D02*
Y52072D01*
X41819Y51181D02*
X59875Y69237D01*
X60065Y68437D02*
X70063D01*
X43700Y52072D02*
X60065Y68437D01*
X60255Y67637D02*
X70063D01*
X45000Y52382D02*
X60255Y67637D01*
X60445Y66837D02*
X70063D01*
X46300Y52692D02*
X60445Y66837D01*
X60635Y66037D02*
X70063D01*
X48000Y53402D02*
X60635Y66037D01*
X60825Y65237D02*
X70063D01*
X49500Y53912D02*
X60825Y65237D01*
X61015Y64437D02*
X70063D01*
X51000Y54422D02*
X61015Y64437D01*
X61205Y63637D02*
X70063D01*
X52500Y54932D02*
X61205Y63637D01*
X61395Y62837D02*
X70063D01*
X54000Y55443D02*
X61395Y62837D01*
X61584Y62037D02*
X70063D01*
X55500Y55953D02*
X61584Y62037D01*
X61774Y61237D02*
X70063D01*
X58000Y57463D02*
X61774Y61237D01*
X61964Y60437D02*
X70063D01*
X59681Y58154D02*
X61964Y60437D01*
X59681Y49181D02*
Y58154D01*
X62154Y59637D02*
X70063D01*
X60381Y57864D02*
X62154Y59637D01*
X60381Y46381D02*
Y57864D01*
X62344Y58837D02*
X70063D01*
X61081Y57574D02*
X62344Y58837D01*
X61081Y43581D02*
Y57574D01*
X62534Y58037D02*
X70063D01*
X61781Y57284D02*
X62534Y58037D01*
X61781Y39781D02*
Y57284D01*
X62724Y57237D02*
X70063D01*
X62481Y56994D02*
X62724Y57237D01*
X62481Y35481D02*
Y56994D01*
X63734Y56437D02*
X70063D01*
X63181Y55884D02*
X63734Y56437D01*
X63181Y39319D02*
Y55884D01*
X59875Y69237D02*
X70063D01*
X38810Y51000D02*
X59447Y71637D01*
X128859Y78359D02*
X129000Y78500D01*
X124200Y101200D02*
X124500Y101500D01*
X111800Y61300D02*
X117000Y66500D01*
X113000Y60500D02*
X117500Y65000D01*
X113796Y59700D02*
X117500Y63404D01*
Y63500D01*
X79500Y32000D02*
X81000Y30500D01*
X75860Y32000D02*
X79500D01*
X66700Y41160D02*
X75860Y32000D01*
X76870Y30000D02*
X77500D01*
X66000Y40870D02*
X76870Y30000D01*
X65281Y40599D02*
X74000Y31880D01*
X64581Y40309D02*
X70500Y34390D01*
X64581Y40309D02*
Y54500D01*
X70500Y30000D02*
Y34390D01*
X66000Y52500D02*
X66737Y53237D01*
X66000Y40870D02*
Y52500D01*
X65281Y40599D02*
Y53281D01*
X74000Y30000D02*
Y31880D01*
X66700Y41160D02*
Y51700D01*
X67437Y52437D01*
X64581Y54500D02*
X64918Y54837D01*
X70063D01*
X65281Y53281D02*
X66037Y54037D01*
X70063D01*
X65200Y36000D02*
X67000Y34200D01*
Y30000D02*
Y34200D01*
X65200Y36000D02*
Y38290D01*
X63881Y39609D02*
X65200Y38290D01*
X63881Y39609D02*
Y55284D01*
X64234Y55637D01*
X70063D01*
X63181Y39319D02*
X64500Y38000D01*
X60000D02*
X61781Y39781D01*
X62000Y35000D02*
X62481Y35481D01*
X64500Y32500D02*
Y38000D01*
X40320Y53500D02*
X59257Y72437D01*
X41830Y56000D02*
X59067Y73237D01*
X43340Y58500D02*
X58877Y74037D01*
X44850Y61000D02*
X58687Y74837D01*
X58000Y47500D02*
X59681Y49181D01*
X58000Y44000D02*
X60381Y46381D01*
X58000Y40500D02*
X61081Y43581D01*
X44638Y61000D02*
X44850D01*
X46360Y63500D02*
X58497Y75637D01*
X46148Y63500D02*
X46360D01*
X54377Y76500D02*
X57514Y79637D01*
X51500Y76500D02*
X54377D01*
X52679Y72821D02*
X57894Y78037D01*
X48517Y74017D02*
X52885D01*
X48500Y74000D02*
X48517Y74017D01*
X52885D02*
X57704Y78837D01*
X49380Y68500D02*
X58117Y77237D01*
X48435Y66565D02*
X58307Y76437D01*
X59447Y71637D02*
X70063D01*
X59636Y70837D02*
X70063D01*
X59067Y73237D02*
X70063D01*
X58497Y75637D02*
X70063D01*
X58877Y74037D02*
X70063D01*
X43128Y58500D02*
X43340D01*
X58307Y76437D02*
X70063D01*
X59257Y72437D02*
X70063D01*
X39500Y53500D02*
X40320D01*
X58687Y74837D02*
X70063D01*
X58117Y77237D02*
X70063D01*
X40500Y56000D02*
X41830D01*
X38000Y51000D02*
X38810D01*
X49168Y68500D02*
X49380D01*
X57894Y78037D02*
X70063D01*
X57704Y78837D02*
X70063D01*
X55937Y80437D02*
X70063D01*
X52429Y81237D02*
X70063D01*
X50352Y82837D02*
X70063D01*
X54000Y79500D02*
X55000D01*
X55937Y80437D01*
X57514Y79637D02*
X70063D01*
X61863Y87637D02*
X70063D01*
X61000Y88500D02*
X61863Y87637D01*
X64263Y89237D02*
X70063D01*
X64000Y89500D02*
X64263Y89237D01*
X65563Y90037D02*
X70063D01*
X63063Y88437D02*
X70063D01*
X63000Y88500D02*
X63063Y88437D01*
X59463Y86037D02*
X70063D01*
X58500Y87000D02*
X59463Y86037D01*
X60000Y87500D02*
X60663Y86837D01*
X89937Y85300D02*
X94437D01*
X89937Y86900D02*
X94437D01*
X89937Y88500D02*
X93500D01*
X89937Y87700D02*
X94437D01*
X67437Y52437D02*
X70063D01*
X66737Y53237D02*
X70063D01*
X65563Y70037D02*
X70063D01*
X60663Y86837D02*
X70063D01*
D26*
X103464Y38000D02*
X104732Y36732D01*
X88500Y38000D02*
X103464D01*
X78672D02*
X88500D01*
X77500Y39172D02*
X78672Y38000D01*
X77500Y39172D02*
Y42600D01*
X76500Y43600D02*
X77500Y42600D01*
X98854Y43600D02*
X100977Y41477D01*
X88500Y43600D02*
X98854D01*
X83500D02*
X88500D01*
D27*
X101500Y86651D02*
Y88850D01*
X99348Y84500D02*
X101500Y86651D01*
X94437Y84500D02*
X99348D01*
X103000Y87000D02*
Y89300D01*
X99700Y83700D02*
X103000Y87000D01*
Y89300D02*
X103100Y89400D01*
X101800Y89500D02*
X101975Y89325D01*
X101500Y88850D02*
X101975Y89325D01*
X100500Y86500D02*
Y89500D01*
X99300Y85300D02*
X100500Y86500D01*
X99200Y89500D02*
X99375Y89325D01*
X99068Y89018D02*
X99375Y89325D01*
X99068Y86000D02*
Y89018D01*
X94537Y86000D02*
X99068D01*
X94437Y86100D02*
X94537Y86000D01*
X94437Y87700D02*
X95225D01*
X96600Y89075D01*
X95000Y88500D02*
X95300Y88800D01*
X93500Y88500D02*
X95000D01*
X95300Y88800D02*
Y90000D01*
X92437Y89300D02*
X93300D01*
X94000Y90000D01*
X94437Y86900D02*
X98126D01*
X98250D02*
Y89150D01*
X96600Y89075D02*
Y90000D01*
X97900Y89500D02*
X98250Y89150D01*
X94437Y85300D02*
X99300D01*
X94437Y83700D02*
X99700D01*
X103100Y89400D02*
Y89500D01*
X39109Y49391D02*
X59756Y70037D01*
X65563D01*
X62000Y89500D02*
X63000Y88500D01*
D28*
X80252Y81217D02*
D03*
D29*
X25000Y145000D02*
D03*
X35000D02*
D03*
X45000D02*
D03*
X55000D02*
D03*
X65000D02*
D03*
X75000D02*
D03*
X85000D02*
D03*
X95000D02*
D03*
X105000D02*
D03*
X115000D02*
D03*
X125000D02*
D03*
X135000D02*
D03*
X25000Y155000D02*
D03*
X35000D02*
D03*
X45000D02*
D03*
X55000D02*
D03*
X65000D02*
D03*
X75000D02*
D03*
X85000D02*
D03*
X95000D02*
D03*
X105000D02*
D03*
X115000D02*
D03*
X125000D02*
D03*
X145000Y135000D02*
D03*
Y125000D02*
D03*
Y115000D02*
D03*
Y105000D02*
D03*
Y95000D02*
D03*
Y85000D02*
D03*
Y75000D02*
D03*
Y65000D02*
D03*
Y55000D02*
D03*
Y45000D02*
D03*
Y35000D02*
D03*
Y25000D02*
D03*
X155000Y135000D02*
D03*
Y125000D02*
D03*
Y115000D02*
D03*
Y105000D02*
D03*
Y95000D02*
D03*
Y85000D02*
D03*
Y75000D02*
D03*
Y65000D02*
D03*
Y55000D02*
D03*
Y45000D02*
D03*
Y35000D02*
D03*
X135000Y15000D02*
D03*
X125000D02*
D03*
X115000D02*
D03*
X105000D02*
D03*
X95000D02*
D03*
X85000D02*
D03*
X75000D02*
D03*
X65000D02*
D03*
X55000D02*
D03*
X45000D02*
D03*
X35000D02*
D03*
X25000D02*
D03*
X135000Y5000D02*
D03*
X125000D02*
D03*
X115000D02*
D03*
X105000D02*
D03*
X95000D02*
D03*
X85000D02*
D03*
X75000D02*
D03*
X65000D02*
D03*
X55000D02*
D03*
X45000D02*
D03*
X35000D02*
D03*
X15000Y25000D02*
D03*
Y35000D02*
D03*
Y45000D02*
D03*
Y55000D02*
D03*
Y65000D02*
D03*
Y75000D02*
D03*
Y85000D02*
D03*
Y95000D02*
D03*
Y105000D02*
D03*
Y115000D02*
D03*
Y125000D02*
D03*
Y135000D02*
D03*
X5000Y25000D02*
D03*
Y35000D02*
D03*
Y45000D02*
D03*
Y55000D02*
D03*
Y65000D02*
D03*
Y75000D02*
D03*
Y85000D02*
D03*
Y95000D02*
D03*
Y105000D02*
D03*
Y115000D02*
D03*
Y125000D02*
D03*
D30*
X135000Y155000D02*
D03*
X25000Y5000D02*
D03*
D31*
X155000Y25000D02*
D03*
X5000Y135000D02*
D03*
D32*
X144000Y11000D02*
D03*
X152000D02*
D03*
D33*
X82862Y53760D02*
D03*
X77350Y108925D02*
D03*
X85000Y126000D02*
D03*
X81500D02*
D03*
X74500D02*
D03*
X78000D02*
D03*
X71000D02*
D03*
X89500D02*
D03*
X93000D02*
D03*
X100000D02*
D03*
X96500D02*
D03*
X103500D02*
D03*
X107000D02*
D03*
X129000Y88500D02*
D03*
Y92000D02*
D03*
Y102500D02*
D03*
Y99000D02*
D03*
Y95500D02*
D03*
Y85000D02*
D03*
X125000Y73500D02*
D03*
X122500Y71500D02*
D03*
X120500Y69000D02*
D03*
X129000Y82000D02*
D03*
X127000Y76000D02*
D03*
X129000Y78500D02*
D03*
X81000Y30500D02*
D03*
X77500Y30000D02*
D03*
X74000D02*
D03*
X70500D02*
D03*
X67000D02*
D03*
X64500Y32500D02*
D03*
X62000Y35000D02*
D03*
X60000Y38000D02*
D03*
X58000Y40500D02*
D03*
Y44000D02*
D03*
Y47500D02*
D03*
Y51000D02*
D03*
X26000D02*
D03*
X28500Y53500D02*
D03*
X33500Y58500D02*
D03*
X36000Y61000D02*
D03*
X31000Y56000D02*
D03*
X54000Y79500D02*
D03*
X38500Y63500D02*
D03*
X41000Y66000D02*
D03*
X43500Y68500D02*
D03*
X46000Y71000D02*
D03*
X48500Y74000D02*
D03*
X51500Y76500D02*
D03*
X74594Y106169D02*
D03*
X77350D02*
D03*
X82862D02*
D03*
X85618D02*
D03*
X80106D02*
D03*
X74594Y103414D02*
D03*
X77350D02*
D03*
X82862D02*
D03*
X85618D02*
D03*
X80106D02*
D03*
X74594Y108925D02*
D03*
X82862D02*
D03*
X85618D02*
D03*
X80106D02*
D03*
Y100658D02*
D03*
X85618D02*
D03*
X82862D02*
D03*
X77350D02*
D03*
X74594D02*
D03*
Y92390D02*
D03*
X77350D02*
D03*
X82862D02*
D03*
X85618D02*
D03*
X80106D02*
D03*
Y89634D02*
D03*
X85618D02*
D03*
X82862D02*
D03*
X77350D02*
D03*
X74594D02*
D03*
X80106Y86866D02*
D03*
X85618D02*
D03*
X82862D02*
D03*
X77350D02*
D03*
X74594D02*
D03*
Y81354D02*
D03*
X77350D02*
D03*
X82862D02*
D03*
X85618D02*
D03*
X80106D02*
D03*
Y78599D02*
D03*
X85618D02*
D03*
X82862D02*
D03*
X77350D02*
D03*
X74594D02*
D03*
Y73075D02*
D03*
X77350D02*
D03*
X82862D02*
D03*
X85618D02*
D03*
X80106D02*
D03*
Y75831D02*
D03*
X85618D02*
D03*
X82862D02*
D03*
X77350D02*
D03*
X74594D02*
D03*
Y95134D02*
D03*
X77350D02*
D03*
X82862D02*
D03*
X85618D02*
D03*
X80106D02*
D03*
Y84110D02*
D03*
X85618D02*
D03*
X82862D02*
D03*
X77350D02*
D03*
X74594D02*
D03*
Y97902D02*
D03*
X77350D02*
D03*
X82862D02*
D03*
X85618D02*
D03*
X80106D02*
D03*
Y100658D02*
D03*
X85618D02*
D03*
X82862D02*
D03*
X77350D02*
D03*
X74594D02*
D03*
Y70319D02*
D03*
X77350D02*
D03*
X82862D02*
D03*
X85618D02*
D03*
X80106D02*
D03*
Y67563D02*
D03*
X85618D02*
D03*
X82862D02*
D03*
X77350D02*
D03*
X74594D02*
D03*
Y62039D02*
D03*
X77350D02*
D03*
X82862D02*
D03*
X85618D02*
D03*
X80106D02*
D03*
Y64795D02*
D03*
X85618D02*
D03*
X82862D02*
D03*
X77350D02*
D03*
X74594D02*
D03*
Y53760D02*
D03*
X77350D02*
D03*
X85618D02*
D03*
X80106D02*
D03*
Y51004D02*
D03*
X85618D02*
D03*
X82862D02*
D03*
X77350D02*
D03*
X74594D02*
D03*
Y56528D02*
D03*
X77350D02*
D03*
X82862D02*
D03*
X85618D02*
D03*
X80106D02*
D03*
Y59283D02*
D03*
X85618D02*
D03*
X82862D02*
D03*
X77350D02*
D03*
X74594D02*
D03*
M02*
