G04*
G04 #@! TF.GenerationSoftware,Altium Limited,Altium Designer,19.1.5 (86)*
G04*
G04 Layer_Color=16711935*
%FSLAX25Y25*%
%MOIN*%
G70*
G01*
G75*
%ADD21C,0.06706*%
%ADD22R,0.06706X0.06706*%
%ADD23R,0.06706X0.06706*%
%ADD24C,0.05800*%
%ADD25C,0.03162*%
G36*
X140000Y20000D02*
X20000D01*
Y140000D01*
X140000D01*
Y20000D01*
D02*
G37*
D21*
X25000Y145000D02*
D03*
X35000D02*
D03*
X45000D02*
D03*
X55000D02*
D03*
X65000D02*
D03*
X75000D02*
D03*
X85000D02*
D03*
X95000D02*
D03*
X105000D02*
D03*
X115000D02*
D03*
X125000D02*
D03*
X135000D02*
D03*
X25000Y155000D02*
D03*
X35000D02*
D03*
X45000D02*
D03*
X55000D02*
D03*
X65000D02*
D03*
X75000D02*
D03*
X85000D02*
D03*
X95000D02*
D03*
X105000D02*
D03*
X115000D02*
D03*
X125000D02*
D03*
X145000Y135000D02*
D03*
Y125000D02*
D03*
Y115000D02*
D03*
Y105000D02*
D03*
Y95000D02*
D03*
Y85000D02*
D03*
Y75000D02*
D03*
Y65000D02*
D03*
Y55000D02*
D03*
Y45000D02*
D03*
Y35000D02*
D03*
Y25000D02*
D03*
X155000Y135000D02*
D03*
Y125000D02*
D03*
Y115000D02*
D03*
Y105000D02*
D03*
Y95000D02*
D03*
Y85000D02*
D03*
Y75000D02*
D03*
Y65000D02*
D03*
Y55000D02*
D03*
Y45000D02*
D03*
Y35000D02*
D03*
X135000Y15000D02*
D03*
X125000D02*
D03*
X115000D02*
D03*
X105000D02*
D03*
X95000D02*
D03*
X85000D02*
D03*
X75000D02*
D03*
X65000D02*
D03*
X55000D02*
D03*
X45000D02*
D03*
X35000D02*
D03*
X25000D02*
D03*
X135000Y5000D02*
D03*
X125000D02*
D03*
X115000D02*
D03*
X105000D02*
D03*
X95000D02*
D03*
X85000D02*
D03*
X75000D02*
D03*
X65000D02*
D03*
X55000D02*
D03*
X45000D02*
D03*
X35000D02*
D03*
X15000Y25000D02*
D03*
Y35000D02*
D03*
Y45000D02*
D03*
Y55000D02*
D03*
Y65000D02*
D03*
Y75000D02*
D03*
Y85000D02*
D03*
Y95000D02*
D03*
Y105000D02*
D03*
Y115000D02*
D03*
Y125000D02*
D03*
Y135000D02*
D03*
X5000Y25000D02*
D03*
Y35000D02*
D03*
Y45000D02*
D03*
Y55000D02*
D03*
Y65000D02*
D03*
Y75000D02*
D03*
Y85000D02*
D03*
Y95000D02*
D03*
Y105000D02*
D03*
Y115000D02*
D03*
Y125000D02*
D03*
D22*
X135000Y155000D02*
D03*
X25000Y5000D02*
D03*
D23*
X155000Y25000D02*
D03*
X5000Y135000D02*
D03*
D24*
X144000Y11000D02*
D03*
X152000D02*
D03*
D25*
X82862Y53760D02*
D03*
X77350Y108925D02*
D03*
X85000Y126000D02*
D03*
X81500D02*
D03*
X74500D02*
D03*
X78000D02*
D03*
X71000D02*
D03*
X89500D02*
D03*
X93000D02*
D03*
X100000D02*
D03*
X96500D02*
D03*
X103500D02*
D03*
X107000D02*
D03*
X129000Y88500D02*
D03*
Y92000D02*
D03*
Y102500D02*
D03*
Y99000D02*
D03*
Y95500D02*
D03*
Y85000D02*
D03*
X125000Y73500D02*
D03*
X122500Y71500D02*
D03*
X120500Y69000D02*
D03*
X129000Y82000D02*
D03*
X127000Y76000D02*
D03*
X129000Y78500D02*
D03*
X81000Y30500D02*
D03*
X77500Y30000D02*
D03*
X74000D02*
D03*
X70500D02*
D03*
X67000D02*
D03*
X64500Y32500D02*
D03*
X62000Y35000D02*
D03*
X60000Y38000D02*
D03*
X58000Y40500D02*
D03*
Y44000D02*
D03*
Y47500D02*
D03*
Y51000D02*
D03*
X26000D02*
D03*
X28500Y53500D02*
D03*
X33500Y58500D02*
D03*
X36000Y61000D02*
D03*
X31000Y56000D02*
D03*
X54000Y79500D02*
D03*
X38500Y63500D02*
D03*
X41000Y66000D02*
D03*
X43500Y68500D02*
D03*
X46000Y71000D02*
D03*
X48500Y74000D02*
D03*
X51500Y76500D02*
D03*
X74594Y106169D02*
D03*
X77350D02*
D03*
X82862D02*
D03*
X85618D02*
D03*
X80106D02*
D03*
X74594Y103414D02*
D03*
X77350D02*
D03*
X82862D02*
D03*
X85618D02*
D03*
X80106D02*
D03*
X74594Y108925D02*
D03*
X82862D02*
D03*
X85618D02*
D03*
X80106D02*
D03*
Y100658D02*
D03*
X85618D02*
D03*
X82862D02*
D03*
X77350D02*
D03*
X74594D02*
D03*
Y92390D02*
D03*
X77350D02*
D03*
X82862D02*
D03*
X85618D02*
D03*
X80106D02*
D03*
Y89634D02*
D03*
X85618D02*
D03*
X82862D02*
D03*
X77350D02*
D03*
X74594D02*
D03*
X80106Y86866D02*
D03*
X85618D02*
D03*
X82862D02*
D03*
X77350D02*
D03*
X74594D02*
D03*
Y81354D02*
D03*
X77350D02*
D03*
X82862D02*
D03*
X85618D02*
D03*
X80106D02*
D03*
Y78599D02*
D03*
X85618D02*
D03*
X82862D02*
D03*
X77350D02*
D03*
X74594D02*
D03*
Y73075D02*
D03*
X77350D02*
D03*
X82862D02*
D03*
X85618D02*
D03*
X80106D02*
D03*
Y75831D02*
D03*
X85618D02*
D03*
X82862D02*
D03*
X77350D02*
D03*
X74594D02*
D03*
Y95134D02*
D03*
X77350D02*
D03*
X82862D02*
D03*
X85618D02*
D03*
X80106D02*
D03*
Y84110D02*
D03*
X85618D02*
D03*
X82862D02*
D03*
X77350D02*
D03*
X74594D02*
D03*
Y97902D02*
D03*
X77350D02*
D03*
X82862D02*
D03*
X85618D02*
D03*
X80106D02*
D03*
Y100658D02*
D03*
X85618D02*
D03*
X82862D02*
D03*
X77350D02*
D03*
X74594D02*
D03*
Y70319D02*
D03*
X77350D02*
D03*
X82862D02*
D03*
X85618D02*
D03*
X80106D02*
D03*
Y67563D02*
D03*
X85618D02*
D03*
X82862D02*
D03*
X77350D02*
D03*
X74594D02*
D03*
Y62039D02*
D03*
X77350D02*
D03*
X82862D02*
D03*
X85618D02*
D03*
X80106D02*
D03*
Y64795D02*
D03*
X85618D02*
D03*
X82862D02*
D03*
X77350D02*
D03*
X74594D02*
D03*
Y53760D02*
D03*
X77350D02*
D03*
X85618D02*
D03*
X80106D02*
D03*
Y51004D02*
D03*
X85618D02*
D03*
X82862D02*
D03*
X77350D02*
D03*
X74594D02*
D03*
Y56528D02*
D03*
X77350D02*
D03*
X82862D02*
D03*
X85618D02*
D03*
X80106D02*
D03*
Y59283D02*
D03*
X85618D02*
D03*
X82862D02*
D03*
X77350D02*
D03*
X74594D02*
D03*
M02*
