M48
;Layer_Color=9474304
;FILE_FORMAT=2:5
INCH,LZ
;TYPE=PLATED
T1F00S00C0.01181
T2F00S00C0.02800
T3F00S00C0.03543
%
T01
X0026Y0051
X00285Y00535
X0031Y0056
X0058Y0051
Y00475
Y0044
Y00405
X006Y0038
X0062Y0035
X00645Y00325
X0067Y003
X00705
X0074
X00775
X0081Y00305
X0080106Y0051004
Y005376
X0082862
Y0051004
X0085618
Y005376
X007735
Y0051004
X0074594
Y005376
Y0056528
Y0059283
Y0062039
X007735
X0080106
X0082862
X0085618
Y0064795
X0082862
X0080106
X007735
X0074594
Y0067563
Y0070319
Y0073075
X007735
Y0070319
X0080106
Y0073075
X0082862
Y0070319
X0085618
Y0073075
Y0075831
X0082862
X0080106
X007735
X0074594
Y0078599
Y0081354
X007735
Y0078599
X0080106
Y0081354
X0082862
Y0078599
X0085618
Y0081354
Y008411
Y0086866
X0082862
X0080106
Y008411
X0082862
X007735
Y0086866
X0074594
Y008411
Y0089634
Y009239
Y0095134
X007735
Y009239
Y0089634
X0080106
Y009239
Y0095134
X0082862
Y009239
Y0089634
X0085618
Y009239
Y0095134
Y0097902
Y0100658
Y0103414
Y0106169
X0082862
X0080106
Y0103414
X0082862
Y0100658
X0080106
X007735
Y0103414
Y0106169
Y0108925
X0074594
Y0106169
Y0103414
Y0100658
Y0097902
X007735
X0080106
X0082862
Y0108925
X0080106
X0085618
X0085Y0126
X00815
X0078
X00745
X0071
X00895
X0093
X00965
X01
X01035
X0107
X0129Y01025
Y0099
Y00955
Y0092
Y00885
Y0085
Y0082
Y00785
X0127Y0076
X0125Y00735
X01225Y00715
X01205Y0069
X0085618Y0067563
X0082862
X0080106
X007735
Y0059283
Y0056528
X0080106
X0082862
Y0059283
X0080106
X0085618
Y0056528
X00335Y00585
X0036Y0061
X00385Y00635
X0041Y0066
X00435Y00685
X0046Y0071
X00485Y0074
X00515Y00765
X0054Y00795
T02
X0144Y0011
X0152
T03
X0025Y0005
Y0015
X0035
X0045
X0055
Y0005
X0045
X0035
X0015Y0025
Y0035
Y0045
Y0055
X0005
Y0045
Y0035
Y0025
X0065Y0015
X0075
X0085
X0095
X0105
X0115
X0125
X0135
Y0005
X0125
X0115
X0105
X0095
X0085
X0075
X0065
X0145Y0025
Y0035
Y0045
Y0055
X0155
Y0045
Y0035
Y0025
Y0065
X0145
Y0075
Y0085
Y0095
Y0105
Y0115
Y0125
Y0135
X0155
Y0125
Y0115
Y0105
Y0095
Y0085
Y0075
X0135Y0145
X0125
X0115
X0105
X0095
X0085
X0075
X0065
Y0155
X0075
X0085
X0095
X0105
X0115
X0125
X0135
X0055
Y0145
X0045
X0035
X0025
Y0155
X0035
X0045
X0015Y0135
Y0125
Y0115
Y0105
Y0095
Y0085
Y0075
Y0065
X0005
Y0075
Y0085
Y0095
Y0105
Y0115
Y0125
Y0135
M30
